<svg width="148" height="28" viewBox="0 0 148 28" fill="none" xmlns="http://www.w3.org/2000/svg">
<path d="M6.40715 28C4.43941 28 2.87962 27.4072 1.72777 26.2216C0.575924 25.0108 0 23.4342 0 21.4919C0 20.0793 0.311959 18.8685 0.935876 17.8595C1.58379 16.8505 2.50767 16.0811 3.70751 15.5514C4.93135 14.9964 6.39516 14.7189 8.09893 14.7189H11.9864V13.3946C11.9864 12.6126 11.7224 12.0072 11.1945 11.5784C10.6906 11.1243 9.95868 10.8973 8.99881 10.8973C8.08693 10.8973 7.35503 11.0865 6.8031 11.4649C6.27517 11.8432 5.9872 12.3982 5.93921 13.1297H0.827891C0.899882 11.0865 1.66778 9.45946 3.13159 8.24865C4.59539 7.03784 6.57513 6.43243 9.0708 6.43243C11.6865 6.43243 13.7262 7.06306 15.19 8.32432C16.6538 9.58559 17.3857 11.3514 17.3857 13.6216V27.6216H12.1664V23.4973H11.3025L12.2744 22.8919C12.2744 23.9261 12.0344 24.8342 11.5545 25.6162C11.0745 26.373 10.3906 26.9658 9.50274 27.3946C8.63885 27.7982 7.60699 28 6.40715 28ZM8.3149 23.4595C9.44275 23.4595 10.3306 23.1694 10.9785 22.5892C11.6505 21.9838 11.9864 21.2018 11.9864 20.2432V18.1243H8.20692C7.24704 18.1243 6.50314 18.3766 5.97521 18.8811C5.47127 19.3604 5.21931 19.991 5.21931 20.773C5.21931 21.555 5.48327 22.1982 6.0112 22.7027C6.56313 23.2072 7.33103 23.4595 8.3149 23.4595Z" fill="url(#paint0_linear_2483_4)"/>
<path d="M30.5459 28C27.8822 28 25.7945 27.2432 24.2827 25.7297C22.7949 24.2162 22.051 22.1478 22.051 19.5243V6.81081H27.4503V19.4865C27.4503 20.6468 27.7143 21.5423 28.2422 22.173C28.7701 22.7784 29.538 23.0811 30.5459 23.0811C31.5298 23.0811 32.2857 22.7784 32.8136 22.173C33.3655 21.5423 33.6415 20.6468 33.6415 19.4865V6.81081H39.0408V19.5243C39.0408 22.173 38.2849 24.2541 36.7731 25.7676C35.2613 27.2559 33.1855 28 30.5459 28Z" fill="url(#paint1_linear_2483_4)"/>
<path d="M54.1087 27.6216C52.093 27.6216 50.5092 27.0162 49.3573 25.8054C48.2055 24.5946 47.6296 22.9297 47.6296 20.8108V11.9189H42.3023V6.81081H47.6296V0.945945H53.0288V6.81081H60.7678V11.9189H53.0288V20.6216C53.0288 21.1766 53.1608 21.6306 53.4248 21.9838C53.7127 22.3369 54.1207 22.5135 54.6486 22.5135H60.5878V27.6216H54.1087Z" fill="url(#paint2_linear_2483_4)"/>
<path d="M73.712 28C71.9603 28 70.4365 27.6595 69.1407 26.9784C67.8448 26.2721 66.837 25.3009 66.1171 24.0649C65.4211 22.8036 65.0732 21.3405 65.0732 19.6757V14.7568C65.0732 13.0919 65.4211 11.6414 66.1171 10.4054C66.837 9.14415 67.8448 8.17297 69.1407 7.49189C70.4365 6.78559 71.9603 6.43243 73.712 6.43243C75.4878 6.43243 77.0116 6.78559 78.2834 7.49189C79.5793 8.17297 80.5751 9.14415 81.271 10.4054C81.9909 11.6414 82.3509 13.0919 82.3509 14.7568V19.6757C82.3509 21.3405 81.9909 22.8036 81.271 24.0649C80.5751 25.3009 79.5793 26.2721 78.2834 26.9784C77.0116 27.6595 75.4878 28 73.712 28ZM73.712 23.0811C74.7679 23.0811 75.5718 22.791 76.1237 22.2108C76.6757 21.6054 76.9516 20.7604 76.9516 19.6757V14.7568C76.9516 13.6468 76.6757 12.8018 76.1237 12.2216C75.5718 11.6414 74.7679 11.3514 73.712 11.3514C72.6802 11.3514 71.8763 11.6414 71.3004 12.2216C70.7484 12.8018 70.4725 13.6468 70.4725 14.7568V19.6757C70.4725 20.7604 70.7484 21.6054 71.3004 22.2108C71.8763 22.791 72.6802 23.0811 73.712 23.0811Z" fill="url(#paint3_linear_2483_4)"/>
<path d="M87.5921 27.6216V6.81081H92.8114V11.1622H94.3952L92.6315 12.4865C92.6315 10.6198 93.1474 9.14415 94.1793 8.05946C95.2111 6.97478 96.6029 6.43243 98.3547 6.43243C100.346 6.43243 101.906 7.13874 103.034 8.55135C104.162 9.96397 104.726 11.9063 104.726 14.3784V16.4595H99.3266V14.7568C99.3266 13.6721 99.0506 12.8396 98.4987 12.2595C97.9468 11.6541 97.1669 11.3514 96.159 11.3514C95.1511 11.3514 94.3712 11.6919 93.8193 12.373C93.2674 13.0288 92.9914 13.9748 92.9914 15.2108V27.6216H87.5921Z" fill="black"/>
<path d="M116.914 28C115.162 28 113.627 27.6595 112.307 26.9784C111.011 26.2721 110.003 25.3009 109.283 24.0649C108.587 22.8036 108.239 21.3405 108.239 19.6757V14.7568C108.239 13.0919 108.587 11.6414 109.283 10.4054C110.003 9.14415 111.011 8.17297 112.307 7.49189C113.627 6.78559 115.162 6.43243 116.914 6.43243C118.666 6.43243 120.178 6.78559 121.45 7.49189C122.745 8.17297 123.741 9.14415 124.437 10.4054C125.157 11.6414 125.517 13.0919 125.517 14.7568V18.6162H113.387V19.6757C113.387 20.9874 113.675 21.9459 114.251 22.5514C114.85 23.1568 115.738 23.4595 116.914 23.4595C117.682 23.4595 118.354 23.3333 118.93 23.0811C119.506 22.8288 119.842 22.4505 119.938 21.9459H125.229C124.845 23.7622 123.897 25.2252 122.385 26.3351C120.874 27.445 119.05 28 116.914 28ZM120.37 15.627V14.6811C120.37 13.3946 120.082 12.3982 119.506 11.6919C118.954 10.9856 118.09 10.6324 116.914 10.6324C115.738 10.6324 114.85 10.9982 114.251 11.7297C113.675 12.4613 113.387 13.4703 113.387 14.7568V15.2487L120.73 15.173L120.37 15.627Z" fill="black"/>
<path d="M141.881 27.6216C140.489 27.6216 139.265 27.3189 138.209 26.7135C137.153 26.0829 136.326 25.2126 135.726 24.1027C135.15 22.9928 134.862 21.7063 134.862 20.2432V5.10811H128.563V0H140.261V20.0541C140.261 20.7856 140.453 21.3784 140.837 21.8324C141.245 22.2865 141.773 22.5135 142.421 22.5135H148V27.6216H141.881Z" fill="black"/>
<defs>
<linearGradient id="paint0_linear_2483_4" x1="0" y1="14" x2="148" y2="14" gradientUnits="userSpaceOnUse">
<stop stop-color="#00B3FF"/>
<stop offset="1" stop-color="#44EA9A"/>
</linearGradient>
<linearGradient id="paint1_linear_2483_4" x1="0" y1="14" x2="148" y2="14" gradientUnits="userSpaceOnUse">
<stop stop-color="#00B3FF"/>
<stop offset="1" stop-color="#44EA9A"/>
</linearGradient>
<linearGradient id="paint2_linear_2483_4" x1="0" y1="14" x2="148" y2="14" gradientUnits="userSpaceOnUse">
<stop stop-color="#00B3FF"/>
<stop offset="1" stop-color="#44EA9A"/>
</linearGradient>
<linearGradient id="paint3_linear_2483_4" x1="0" y1="14" x2="148" y2="14" gradientUnits="userSpaceOnUse">
<stop stop-color="#00B3FF"/>
<stop offset="1" stop-color="#44EA9A"/>
</linearGradient>
</defs>
</svg>
