<svg width="154" height="56" viewBox="0 0 154 56" fill="none" xmlns="http://www.w3.org/2000/svg">
<path d="M6.64958 28C4.60739 28 2.98858 27.4072 1.79315 26.2216C0.597715 25.0108 0 23.4342 0 21.4919C0 20.0793 0.323763 18.8685 0.971288 17.8595C1.64372 16.8505 2.60256 16.0811 3.8478 15.5514C5.11794 14.9964 6.63714 14.7189 8.40538 14.7189H12.44V13.3946C12.44 12.6126 12.166 12.0072 11.6181 11.5784C11.0951 11.1243 10.3355 10.8973 9.33931 10.8973C8.39292 10.8973 7.63332 11.0865 7.06051 11.4649C6.51261 11.8432 6.21375 12.3982 6.16394 13.1297H0.859217C0.933932 11.0865 1.73089 9.45946 3.25008 8.24865C4.76927 7.03784 6.82392 6.43243 9.41402 6.43243C12.1286 6.43243 14.2455 7.06306 15.7647 8.32432C17.2839 9.58559 18.0435 11.3514 18.0435 13.6216V27.6216H12.6267V23.4973H11.7302L12.7388 22.8919C12.7388 23.9261 12.4898 24.8342 11.9917 25.6162C11.4936 26.373 10.7838 26.9658 9.8623 27.3946C8.96573 27.7982 7.89482 28 6.64958 28ZM8.62952 23.4595C9.80004 23.4595 10.7215 23.1694 11.394 22.5892C12.0913 21.9838 12.44 21.2018 12.44 20.2432V18.1243H8.51745C7.52126 18.1243 6.7492 18.3766 6.2013 18.8811C5.6783 19.3604 5.4168 19.991 5.4168 20.773C5.4168 21.555 5.69075 22.1982 6.23866 22.7027C6.81147 23.2072 7.60842 23.4595 8.62952 23.4595Z" fill="url(#paint0_linear_534_3)"/>
<path d="M31.7017 28C28.9372 28 26.7705 27.2432 25.2015 25.7297C23.6574 24.2162 22.8854 22.1478 22.8854 19.5243V6.81081H28.489V19.4865C28.489 20.6468 28.7629 21.5423 29.3108 22.173C29.8587 22.7784 30.6557 23.0811 31.7017 23.0811C32.7228 23.0811 33.5073 22.7784 34.0552 22.173C34.628 21.5423 34.9144 20.6468 34.9144 19.4865V6.81081H40.518V19.5243C40.518 22.173 39.7335 24.2541 38.1645 25.7676C36.5955 27.2559 34.4412 28 31.7017 28Z" fill="url(#paint1_linear_534_3)"/>
<path d="M56.1561 27.6216C54.0641 27.6216 52.4203 27.0162 51.2249 25.8054C50.0295 24.5946 49.4318 22.9297 49.4318 20.8108V11.9189H43.9029V6.81081H49.4318V0.945945H55.0353V6.81081H63.0671V11.9189H55.0353V20.6216C55.0353 21.1766 55.1723 21.6306 55.4463 21.9838C55.7451 22.3369 56.1685 22.5135 56.7164 22.5135H62.8804V27.6216H56.1561Z" fill="url(#paint2_linear_534_3)"/>
<path d="M76.5012 28C74.6831 28 73.1016 27.6595 71.7568 26.9784C70.4119 26.2721 69.3659 25.3009 68.6188 24.0649C67.8965 22.8036 67.5354 21.3405 67.5354 19.6757V14.7568C67.5354 13.0919 67.8965 11.6414 68.6188 10.4054C69.3659 9.14415 70.4119 8.17297 71.7568 7.49189C73.1016 6.78559 74.6831 6.43243 76.5012 6.43243C78.3441 6.43243 79.9256 6.78559 81.2455 7.49189C82.5904 8.17297 83.6239 9.14415 84.3462 10.4054C85.0933 11.6414 85.4669 13.0919 85.4669 14.7568V19.6757C85.4669 21.3405 85.0933 22.8036 84.3462 24.0649C83.6239 25.3009 82.5904 26.2721 81.2455 26.9784C79.9256 27.6595 78.3441 28 76.5012 28ZM76.5012 23.0811C77.597 23.0811 78.4313 22.791 79.0041 22.2108C79.5769 21.6054 79.8633 20.7604 79.8633 19.6757V14.7568C79.8633 13.6468 79.5769 12.8018 79.0041 12.2216C78.4313 11.6414 77.597 11.3514 76.5012 11.3514C75.4302 11.3514 74.5959 11.6414 73.9982 12.2216C73.4254 12.8018 73.139 13.6468 73.139 14.7568V19.6757C73.139 20.7604 73.4254 21.6054 73.9982 22.2108C74.5959 22.791 75.4302 23.0811 76.5012 23.0811Z" fill="url(#paint3_linear_534_3)"/>
<path d="M90.9064 27.6216V6.81081H96.3232V11.1622H97.967L96.1365 12.4865C96.1365 10.6198 96.6719 9.14415 97.7428 8.05946C98.8137 6.97478 100.258 6.43243 102.076 6.43243C104.143 6.43243 105.762 7.13874 106.933 8.55135C108.103 9.96397 108.688 11.9063 108.688 14.3784V16.4595H103.085V14.7568C103.085 13.6721 102.798 12.8396 102.226 12.2595C101.653 11.6541 100.843 11.3514 99.7975 11.3514C98.7514 11.3514 97.9421 11.6919 97.3692 12.373C96.7964 13.0288 96.51 13.9748 96.51 15.2108V27.6216H90.9064Z" fill="white"/>
<path d="M121.338 28C119.52 28 117.926 27.6595 116.556 26.9784C115.211 26.2721 114.165 25.3009 113.418 24.0649C112.696 22.8036 112.335 21.3405 112.335 19.6757V14.7568C112.335 13.0919 112.696 11.6414 113.418 10.4054C114.165 9.14415 115.211 8.17297 116.556 7.49189C117.926 6.78559 119.52 6.43243 121.338 6.43243C123.156 6.43243 124.725 6.78559 126.045 7.49189C127.39 8.17297 128.423 9.14415 129.146 10.4054C129.893 11.6414 130.266 13.0919 130.266 14.7568V18.6162H117.677V19.6757C117.677 20.9874 117.976 21.9459 118.574 22.5514C119.196 23.1568 120.118 23.4595 121.338 23.4595C122.135 23.4595 122.832 23.3333 123.43 23.0811C124.028 22.8288 124.376 22.4505 124.476 21.9459H129.967C129.569 23.7622 128.585 25.2252 127.016 26.3351C125.447 27.445 123.555 28 121.338 28ZM124.924 15.627V14.6811C124.924 13.3946 124.625 12.3982 124.028 11.6919C123.455 10.9856 122.558 10.6324 121.338 10.6324C120.118 10.6324 119.196 10.9982 118.574 11.7297C117.976 12.4613 117.677 13.4703 117.677 14.7568V15.2487L125.298 15.173L124.924 15.627Z" fill="white"/>
<path d="M147.249 27.6216C145.805 27.6216 144.535 27.3189 143.439 26.7135C142.343 26.0829 141.484 25.2126 140.861 24.1027C140.263 22.9928 139.965 21.7063 139.965 20.2432V5.10811H133.427V0H145.568V20.0541C145.568 20.7856 145.767 21.3784 146.166 21.8324C146.589 22.2865 147.137 22.5135 147.81 22.5135H153.6V27.6216H147.249Z" fill="white"/>
<defs>
<linearGradient id="paint0_linear_534_3" x1="0" y1="14" x2="153.6" y2="14" gradientUnits="userSpaceOnUse">
<stop stop-color="#00B3FF"/>
<stop offset="1" stop-color="#44EA9A"/>
</linearGradient>
<linearGradient id="paint1_linear_534_3" x1="0" y1="14" x2="153.6" y2="14" gradientUnits="userSpaceOnUse">
<stop stop-color="#00B3FF"/>
<stop offset="1" stop-color="#44EA9A"/>
</linearGradient>
<linearGradient id="paint2_linear_534_3" x1="0" y1="14" x2="153.6" y2="14" gradientUnits="userSpaceOnUse">
<stop stop-color="#00B3FF"/>
<stop offset="1" stop-color="#44EA9A"/>
</linearGradient>
<linearGradient id="paint3_linear_534_3" x1="0" y1="14" x2="153.6" y2="14" gradientUnits="userSpaceOnUse">
<stop stop-color="#00B3FF"/>
<stop offset="1" stop-color="#44EA9A"/>
</linearGradient>
</defs>
</svg>
