<svg width="192" height="53" viewBox="0 0 192 53" fill="none" xmlns="http://www.w3.org/2000/svg">
<g clip-path="url(#clip0_926_114)">
<path d="M52.476 8.4H58.632L69.956 35H63.572L55.364 14.404L47.118 35H40.886L52.476 8.4ZM47.346 25.006H63.04V29.68H47.346V25.006ZM76.2023 25.804C76.2023 27.1213 76.5443 28.16 77.2283 28.92C77.9122 29.68 78.8496 30.06 80.0403 30.06C81.4589 30.0347 82.5609 29.5153 83.3462 28.502C84.1569 27.4887 84.5623 26.2093 84.5623 24.664H85.9683C85.9683 27.0453 85.6263 29.0213 84.9423 30.592C84.2836 32.1373 83.3336 33.29 82.0923 34.05C80.8763 34.81 79.4196 35.2027 77.7222 35.228C76.2022 35.228 74.8976 34.9113 73.8082 34.278C72.7189 33.6193 71.8702 32.7073 71.2622 31.542C70.6542 30.3767 70.3502 28.996 70.3502 27.4V14.594H76.2023V25.804ZM84.5623 14.594H90.3763V35H84.5623V14.594ZM102.01 28.046C102.01 28.958 102.188 29.604 102.542 29.984C102.897 30.3387 103.378 30.5033 103.986 30.478C104.366 30.478 104.784 30.4147 105.24 30.288C105.696 30.1613 106.19 29.9713 106.722 29.718L107.938 33.822C107.178 34.278 106.342 34.6327 105.43 34.886C104.518 35.1393 103.581 35.266 102.618 35.266C101.402 35.266 100.3 35.038 99.3122 34.582C98.3495 34.126 97.5895 33.4293 97.0322 32.492C96.4749 31.5547 96.1962 30.3893 96.1962 28.996V9.844H102.01V28.046ZM93.3462 15.468H107.558V19.382H93.3462V15.468ZM119.789 14.404C121.968 14.404 123.881 14.8347 125.527 15.696C127.174 16.5573 128.453 17.7733 129.365 19.344C130.277 20.8893 130.733 22.7007 130.733 24.778C130.733 26.8553 130.277 28.6793 129.365 30.25C128.453 31.8207 127.174 33.0367 125.527 33.898C123.881 34.7593 121.968 35.19 119.789 35.19C117.611 35.19 115.685 34.7593 114.013 33.898C112.367 33.0367 111.087 31.8207 110.175 30.25C109.263 28.6793 108.807 26.8553 108.807 24.778C108.807 22.7007 109.263 20.8893 110.175 19.344C111.087 17.7733 112.367 16.5573 114.013 15.696C115.685 14.8347 117.611 14.404 119.789 14.404ZM119.789 19.078C118.776 19.078 117.877 19.3187 117.091 19.8C116.331 20.2813 115.736 20.9653 115.305 21.852C114.875 22.7133 114.659 23.714 114.659 24.854C114.659 25.994 114.875 27.0073 115.305 27.894C115.736 28.7553 116.331 29.4393 117.091 29.946C117.877 30.4273 118.776 30.668 119.789 30.668C120.803 30.668 121.689 30.4273 122.449 29.946C123.209 29.4393 123.805 28.7553 124.235 27.894C124.666 27.0073 124.881 25.994 124.881 24.854C124.881 23.714 124.666 22.7133 124.235 21.852C123.805 20.9653 123.209 20.2813 122.449 19.8C121.689 19.3187 120.803 19.078 119.789 19.078ZM145.508 8.4C148.979 8.4 151.664 9.21066 153.564 10.832C155.49 12.428 156.452 14.6827 156.452 17.596C156.452 20.6613 155.49 23.0553 153.564 24.778C151.664 26.4753 148.979 27.324 145.508 27.324H139.96V35H133.956V8.4H145.508ZM145.508 22.46C147.155 22.46 148.434 22.08 149.346 21.32C150.284 20.5347 150.752 19.3567 150.752 17.786C150.752 16.266 150.284 15.126 149.346 14.366C148.434 13.606 147.155 13.226 145.508 13.226H139.96V22.46H145.508ZM144.786 25.082H150.638L157.098 35H150.296L144.786 25.082ZM173.918 23.144C173.893 22.2067 173.69 21.4087 173.31 20.75C172.956 20.066 172.436 19.534 171.752 19.154C171.068 18.774 170.283 18.584 169.396 18.584C168.408 18.584 167.547 18.8373 166.812 19.344C166.078 19.8507 165.508 20.5473 165.102 21.434C164.697 22.3207 164.494 23.3467 164.494 24.512C164.494 25.8293 164.722 26.9567 165.178 27.894C165.634 28.8313 166.28 29.5533 167.116 30.06C167.952 30.5667 168.915 30.82 170.004 30.82C171.98 30.82 173.703 30.0853 175.172 28.616L178.25 31.656C177.237 32.796 175.983 33.67 174.488 34.278C173.019 34.886 171.36 35.19 169.51 35.19C167.332 35.19 165.444 34.7593 163.848 33.898C162.252 33.0367 161.011 31.8333 160.124 30.288C159.263 28.7173 158.832 26.906 158.832 24.854C158.832 22.7513 159.276 20.9273 160.162 19.382C161.049 17.8113 162.278 16.5953 163.848 15.734C165.444 14.8727 167.281 14.4293 169.358 14.404C171.765 14.404 173.728 14.9107 175.248 15.924C176.794 16.912 177.908 18.318 178.592 20.142C179.302 21.9407 179.568 24.0813 179.39 26.564H163.658V23.144H173.918ZM182.684 6.804H188.536V35H182.684V6.804Z" fill="url(#paint0_linear_926_114)"/>
<g clip-path="url(#clip1_926_114)">
<path d="M28.815 32.2934L27.4813 25.3004C27.9808 24.5963 28.4571 23.8634 28.9006 23.1021C31.6248 18.4262 32.739 13.2808 33.0296 9.12747L33.0296 9.12709C33.0775 8.44225 33.1032 7.78437 33.1098 7.16L33.1098 7.1596C33.1107 7.0726 33.111 6.98674 33.1112 6.90105C33.1113 6.87418 33.1115 6.84705 33.1114 6.82034C33.1114 6.74094 33.1109 6.66251 33.1103 6.58435C33.1101 6.55233 33.1099 6.52029 33.1095 6.4885C33.1087 6.41256 33.1075 6.3373 33.1061 6.2625C33.1054 6.23034 33.1048 6.19832 33.104 6.16636C33.1024 6.09193 33.1006 6.01794 33.0984 5.94475C33.0975 5.9151 33.0965 5.88582 33.0955 5.85641C33.093 5.78077 33.0904 5.70547 33.0873 5.63116C33.0864 5.61032 33.0854 5.58987 33.0845 5.56911C33.0691 5.21473 33.0474 4.87627 33.0201 4.55529C33.0186 4.53638 33.017 4.51716 33.0154 4.49839C33.0097 4.43303 33.0037 4.36896 32.9975 4.30511C32.9949 4.27851 32.9924 4.25176 32.9898 4.22541C32.9838 4.16524 32.9775 4.10603 32.9711 4.04728C32.968 4.01876 32.9649 3.99038 32.9617 3.9622C32.9552 3.90546 32.9487 3.84934 32.9419 3.79394C32.9384 3.76551 32.9349 3.73747 32.9313 3.70943C32.9244 3.65497 32.9174 3.60088 32.9102 3.54789C32.9065 3.5212 32.9027 3.49517 32.899 3.46885C32.8915 3.41541 32.8839 3.36201 32.876 3.31004C32.873 3.29004 32.8699 3.27083 32.8668 3.25103C32.8394 3.07516 32.8103 2.9083 32.7796 2.75045C32.7746 2.72445 32.7697 2.69795 32.7645 2.67248C32.7567 2.63355 32.7487 2.59599 32.7406 2.55827C32.7345 2.52946 32.7284 2.50053 32.7222 2.47241C32.7144 2.43718 32.7064 2.403 32.6985 2.36893C32.6918 2.34006 32.685 2.3114 32.6782 2.28331C32.6704 2.25124 32.6625 2.21974 32.6545 2.18868C32.6472 2.16021 32.6399 2.13235 32.6324 2.10469C32.6246 2.07577 32.6169 2.04704 32.609 2.01911C32.601 1.99092 32.593 1.96374 32.5849 1.93654C32.5773 1.91104 32.5697 1.88519 32.5621 1.86055C32.5529 1.8313 32.5437 1.80359 32.5344 1.7757C32.5276 1.75506 32.5208 1.73362 32.5139 1.71366C32.4981 1.66802 32.4821 1.62415 32.466 1.58236C32.4608 1.56905 32.4556 1.55713 32.4504 1.54421C32.4388 1.51516 32.4272 1.48631 32.4154 1.45932C32.4087 1.44393 32.4019 1.42984 32.3952 1.41508C32.3882 1.39981 32.3813 1.38376 32.3742 1.36923L32.3744 1.36918L32.3734 1.36739L32.3641 1.34903C32.3569 1.33463 32.3498 1.32113 32.3426 1.30752C32.3324 1.28822 32.3222 1.26945 32.312 1.25171C32.3047 1.23909 32.2974 1.22697 32.29 1.21508C32.2798 1.19843 32.2695 1.1826 32.2591 1.16754C32.2519 1.15697 32.2447 1.14653 32.2374 1.13674L32.2296 1.1256L32.2273 1.12239C32.22 1.11291 32.2126 1.10514 32.2053 1.09646L32.1847 1.07241C32.1769 1.06403 32.1692 1.05673 32.1614 1.04928L32.1461 1.03509L32.1318 1.02211C32.1142 1.00792 32.0966 0.995551 32.0791 0.986099C32.0615 0.976647 32.0415 0.968769 32.0199 0.961848L31.9969 0.956134C31.9815 0.95211 31.966 0.948307 31.9488 0.945434L31.9174 0.941472C31.9009 0.939504 31.884 0.937819 31.8661 0.936806C31.8539 0.936139 31.8412 0.935853 31.8284 0.935623C31.8102 0.93528 31.7913 0.935402 31.7717 0.935996C31.7578 0.936422 31.7436 0.936975 31.7291 0.937818C31.7087 0.939068 31.6874 0.940927 31.6657 0.943059C31.6503 0.944521 31.6351 0.945931 31.619 0.947875C31.5959 0.950739 31.5716 0.954412 31.5472 0.958166C31.531 0.960656 31.5154 0.962831 31.4987 0.965694C31.4698 0.970756 31.4394 0.976909 31.4089 0.983145C31.3952 0.985953 31.3822 0.988157 31.3682 0.991202C31.3245 1.00077 31.279 1.01157 31.2322 1.02347C31.2116 1.02874 31.1898 1.03493 31.1686 1.04061C31.1405 1.04822 31.1125 1.05567 31.0833 1.06405C31.0583 1.07129 31.0324 1.07923 31.0067 1.08706C30.9797 1.09517 30.9527 1.10338 30.9249 1.11223C30.8973 1.12098 30.869 1.13033 30.8405 1.13977C30.8134 1.14879 30.7861 1.15796 30.7582 1.16752C30.7279 1.17797 30.6973 1.18876 30.6662 1.19988C30.6391 1.20958 30.6116 1.21961 30.584 1.22986C30.5509 1.24209 30.5177 1.25439 30.4837 1.26732C30.4573 1.27741 30.4302 1.28811 30.4033 1.29867C30.3669 1.31291 30.3307 1.32701 30.2934 1.34208C30.2701 1.3515 30.246 1.36164 30.2224 1.37138C30.0729 1.43294 29.9168 1.50082 29.754 1.57518C29.7359 1.58344 29.7183 1.59131 29.7002 1.59972C29.6522 1.62184 29.6032 1.64502 29.5541 1.66829C29.5305 1.67951 29.507 1.69049 29.4831 1.70199C29.4346 1.72525 29.3854 1.74925 29.336 1.7735C29.3107 1.78593 29.2855 1.79831 29.2599 1.81103C29.2098 1.83599 29.1591 1.86141 29.108 1.88735C29.083 1.90013 29.0578 1.91302 29.0325 1.92599C28.9799 1.95304 28.9269 1.98041 28.8732 2.0086C28.8497 2.02088 28.826 2.03352 28.8024 2.04601C28.7457 2.07608 28.6888 2.10627 28.6311 2.1375C28.6148 2.14628 28.5983 2.15544 28.582 2.16434C28.2987 2.31844 28.0039 2.48676 27.6992 2.66905C27.6814 2.67973 27.6638 2.69015 27.6459 2.70088C27.582 2.73937 27.5175 2.77873 27.4527 2.81842C27.428 2.83352 27.4034 2.84859 27.3785 2.8639C27.3158 2.90263 27.2526 2.94197 27.1891 2.98183C27.1624 2.99859 27.1356 3.01545 27.1088 3.03245C27.0455 3.07256 26.9819 3.11301 26.9179 3.15421C26.8911 3.17141 26.8643 3.18887 26.8374 3.20629C26.7718 3.24877 26.706 3.29151 26.6397 3.33522C26.6174 3.3499 26.5949 3.36499 26.5725 3.37981C26.501 3.42715 26.4295 3.4747 26.3573 3.52335L26.357 3.52353C25.9378 3.80633 25.5069 4.11183 25.0685 4.43917L25.0674 4.44008C24.9649 4.51659 24.8621 4.59423 24.7588 4.67314L24.7585 4.67336C21.4507 7.20187 17.768 10.964 15.3633 15.812C14.9718 16.6013 14.6221 17.4024 14.309 18.2069L7.73633 20.942L3.48485 28.5443L5.08383 28.6243L8.08793 24.5346L12.6013 24.3444C12.2884 26.1196 12.1405 27.8039 12.1256 29.3001L11.9818 29.2227L12.0178 31.3376L12.0588 31.3596C10.703 32.882 8.07707 36.7034 9.7535 42.4161C9.7535 42.4161 15.8832 41.1467 17.7321 34.4149L17.7791 34.4402L19.5647 33.3063L19.4212 33.229L19.4508 33.2087C19.5241 33.1592 19.5977 33.1088 19.6715 33.0578C19.7228 33.0224 19.7741 32.987 19.8256 32.9508C19.9023 32.8971 19.9793 32.8422 20.0565 32.7869C20.1054 32.7518 20.1542 32.7172 20.2033 32.6814C20.2887 32.6193 20.3746 32.5557 20.4606 32.4918C20.5019 32.461 20.5429 32.4311 20.5844 32.3999C20.7108 32.3049 20.8377 32.208 20.965 32.109L20.9684 32.1064C21.7361 31.5092 22.5191 30.8392 23.2967 30.1041L25.6219 33.9771L23.8607 38.7361L24.8076 40.0271L28.815 32.2934Z" fill="#A5A5A5"/>
<path d="M17.7325 34.4151L16.9818 34.0108L15.5955 33.2642L14.6285 34.5454L13.6639 34.026L14.2014 32.5135L12.8326 31.7764L12.0587 31.3596C10.703 32.882 8.07703 36.7034 9.75346 42.4161C9.75346 42.4161 15.8836 41.1471 17.7325 34.4151Z" fill="#EAE325"/>
<path d="M28.815 32.2934L27.4815 25.3019C26.5833 26.5683 25.6078 27.7388 24.6025 28.8006C24.1716 29.2557 23.7353 29.6908 23.2972 30.1049L25.622 33.9772L23.8607 38.7362L24.8077 40.0272L28.815 32.2934Z" fill="#3951BE"/>
<path d="M12.971 22.5368C13.3042 21.113 13.7446 19.6543 14.3075 18.2074L7.73631 20.942L3.48484 28.5443L5.08381 28.6243L8.08792 24.5346L12.6004 24.3444C12.7051 23.7507 12.8282 23.1469 12.971 22.5368Z" fill="#3951BE"/>
<path d="M33.1098 7.15999C33.1395 4.35348 32.7878 2.22452 32.3743 1.36919L32.3742 1.36888L32.3669 1.35403L32.364 1.34822L32.3567 1.33361L32.3545 1.32934L32.3381 1.29779L32.338 1.2976L32.331 1.28467L32.3274 1.27817L32.3208 1.26615L32.3171 1.25974C32.3097 1.24662 32.3022 1.23392 32.2948 1.22165L32.2907 1.21499L32.2845 1.20505L32.284 1.20436L32.2804 1.1985L32.2795 1.19714L32.274 1.18862L32.2678 1.17919L32.2646 1.1743L32.2587 1.16563L32.2537 1.15841L32.2481 1.1505L32.2426 1.14289L32.2371 1.13544L32.2355 1.13337L32.2296 1.12544L32.2273 1.12253L32.2227 1.11665L32.2224 1.11619L32.2165 1.10867L32.2115 1.10261L32.2071 1.09727L32.2051 1.09494L32.2006 1.08957L32.1933 1.08134L32.1903 1.07789L32.1866 1.07389L32.1794 1.0661L32.1748 1.06136L32.1747 1.06133L32.1674 1.05394L32.1639 1.05049L32.1618 1.04845L32.1553 1.04225L32.1532 1.04032L32.1501 1.03759L32.1422 1.03059L32.138 1.02697L32.1347 1.02417L32.1341 1.02364L32.1303 1.02058L32.1271 1.01802L32.1225 1.01448L32.1193 1.01204L32.1162 1.00972L32.116 1.00966L32.1145 1.00855L32.107 1.00329L32.1069 1.00315L32.1048 1.00186L32.1015 0.99963L32.0943 0.99504L32.0932 0.994334L32.0901 0.992495L32.079 0.986076L32.0653 0.979264L32.0607 0.97721L32.0509 0.972913L32.0454 0.970697L32.0358 0.967031L32.0294 0.964753L32.0201 0.961711L32.013 0.959461L32.003 0.956633L31.9962 0.954808L31.9854 0.952195L31.9783 0.950577L31.9644 0.947759L31.9602 0.946891L31.9415 0.943743L31.9334 0.942656L31.9217 0.941046L31.9124 0.939961L31.9012 0.938823L31.8911 0.937922L31.8803 0.937067L31.8692 0.936358L31.8585 0.935818L31.8468 0.935335L31.8366 0.935039L31.8237 0.934767L31.8146 0.93472C31.7969 0.934667 31.7787 0.934987 31.7597 0.935722L31.7535 0.935985L31.7363 0.936845L31.7284 0.937278L31.7109 0.938499L31.7025 0.939097L31.6843 0.94062L31.6772 0.941236L31.6566 0.943217L31.6524 0.943701C30.7344 1.04066 28.7308 1.92225 26.3569 3.52341C26.3977 3.53702 26.4386 3.55078 26.4795 3.56464C26.4912 3.56865 26.503 3.57266 26.5147 3.57665C26.545 3.58702 26.5753 3.59744 26.6056 3.60792C26.6174 3.61201 26.6292 3.61611 26.641 3.62023C26.6722 3.63106 26.7034 3.64205 26.7346 3.65308C26.7452 3.65684 26.7558 3.66059 26.7664 3.66432C26.806 3.67845 26.8456 3.69264 26.8852 3.70694L26.8873 3.70774C26.9756 3.73974 27.0639 3.77248 27.1524 3.80584L27.1543 3.80662C27.1969 3.82265 27.2394 3.83888 27.282 3.85526L27.2909 3.85872C27.3336 3.87517 27.3763 3.89177 27.4191 3.90858L27.4197 3.90879C28.2393 4.23063 29.066 4.61248 29.8877 5.05498C31.0662 5.6896 32.1464 6.40145 33.1098 7.15999Z" fill="#3951BE"/>
<path d="M33.0545 8.73974C31.9403 7.79949 30.6659 6.93497 29.2779 6.18752C28.2451 5.63133 27.1928 5.16334 26.1457 4.79019C25.9667 4.72633 25.7878 4.6653 25.6093 4.60712L25.6058 4.60596C25.5626 4.59188 25.5194 4.57796 25.4762 4.56421L25.4711 4.56256C25.4303 4.5496 25.3895 4.53679 25.3486 4.52408L25.3362 4.52012C25.2976 4.50818 25.259 4.49639 25.2205 4.48465L25.2019 4.47896C25.1574 4.46548 25.1129 4.4522 25.0685 4.43905C24.9655 4.51595 24.8622 4.59391 24.7585 4.67322C24.8031 4.68588 24.8478 4.69875 24.8925 4.71178L24.8936 4.7121C24.9381 4.72506 24.9826 4.73824 25.0272 4.75157L25.0289 4.7521C25.1182 4.77879 25.2076 4.80625 25.2971 4.8344L25.2999 4.83529C25.3893 4.86341 25.4787 4.89228 25.5683 4.92184L25.5711 4.92282C25.6609 4.9525 25.7509 4.98292 25.8409 5.01404L25.8419 5.01438C26.9392 5.39413 28.0448 5.87996 29.1291 6.46391C30.5715 7.24069 31.8897 8.14423 33.0296 9.12745C33.0388 8.99722 33.047 8.86804 33.0545 8.73974Z" fill="#3951BE"/>
<path d="M24.6162 17.0704L24.6259 17.0723C24.6384 17.0747 24.6509 17.0772 24.6634 17.0795L24.6687 17.0805C24.6986 17.0861 24.7286 17.0912 24.7586 17.096L24.7606 17.0963C24.7752 17.0986 24.7896 17.1008 24.8041 17.1029L24.8063 17.1032C26.2724 17.3162 27.7823 16.6091 28.5274 15.2255C29.4794 13.4577 28.8225 11.2551 27.06 10.306C25.6665 9.55557 23.9993 9.81336 22.8917 10.8279L22.8907 10.8288C22.8682 10.8495 22.8459 10.8703 22.8239 10.8916L22.8201 10.8953C22.8111 10.904 22.8021 10.9127 22.7932 10.9215L22.7851 10.9296L22.7617 10.9531L22.7538 10.961C22.7437 10.9714 22.7336 10.9818 22.7235 10.9923L22.7199 10.996C22.7005 11.0164 22.6812 11.037 22.6621 11.0579L22.6557 11.0651L22.6383 11.0843L22.6319 11.0915C22.6224 11.1022 22.6129 11.113 22.6035 11.1238L22.5932 11.1358L22.5794 11.1518L22.5669 11.1666L22.549 11.188L22.5332 11.2072L22.5212 11.2221L22.508 11.2385L22.4968 11.2526C22.4892 11.2621 22.4819 11.2716 22.4744 11.2811L22.4662 11.2918L22.4498 11.3134L22.4413 11.3247C22.4336 11.3348 22.426 11.3451 22.4185 11.3553L22.4126 11.3634L22.3939 11.3893L22.3873 11.3985C22.3795 11.4093 22.3718 11.4202 22.3642 11.4312L22.3626 11.4335C22.3551 11.4443 22.3477 11.4552 22.3403 11.4661L22.3349 11.474C22.3279 11.4845 22.3209 11.4949 22.314 11.5054L22.3116 11.509C22.3039 11.5207 22.2962 11.5325 22.2886 11.5444L22.2844 11.5511C22.2778 11.5614 22.2712 11.5718 22.2647 11.5822L22.2611 11.588C22.2536 11.6 22.2461 11.6121 22.2388 11.6243L22.2359 11.6292C22.2294 11.6399 22.223 11.6506 22.2166 11.6615L22.2124 11.6685C22.2052 11.6809 22.198 11.6932 22.1909 11.7057L22.1896 11.7079C22.183 11.7194 22.1765 11.7311 22.1701 11.7427L22.1655 11.7509C22.1586 11.7633 22.1518 11.7757 22.1451 11.7882C21.9978 12.0617 21.8891 12.3455 21.817 12.6336L21.8119 12.6538C21.8032 12.6894 21.7951 12.7251 21.7875 12.7608L21.7821 12.7869C21.7691 12.8502 21.7579 12.9137 21.7484 12.9774C21.7454 12.9973 21.7425 13.0172 21.7399 13.0371C21.7253 13.1474 21.7159 13.2577 21.7115 13.3679C21.7109 13.3825 21.7105 13.3971 21.71 13.4117C21.7096 13.426 21.7093 13.4403 21.7091 13.4546C21.7086 13.4849 21.7085 13.5153 21.7088 13.5457C21.7089 13.5585 21.709 13.5715 21.7093 13.5844C21.7096 13.6012 21.7101 13.618 21.7107 13.6348L21.7121 13.6706C21.7128 13.6884 21.7138 13.7061 21.7147 13.7238C21.7171 13.7635 21.72 13.8029 21.7235 13.8424C21.7254 13.862 21.7273 13.8816 21.7294 13.9012C21.747 14.0652 21.7756 14.2275 21.8151 14.3869C21.8255 14.4293 21.8367 14.4714 21.8487 14.5132C21.8566 14.541 21.8648 14.5687 21.8734 14.5962C21.8907 14.6518 21.9093 14.707 21.9293 14.7617C21.9343 14.7754 21.9393 14.789 21.9444 14.8025C21.9547 14.8297 21.9653 14.8567 21.9762 14.8837C21.9816 14.8971 21.9872 14.9105 21.9928 14.924C22.0041 14.9507 22.0156 14.9774 22.0275 15.0039C22.0335 15.0172 22.0395 15.0304 22.0456 15.0436C22.0578 15.0699 22.0703 15.0962 22.0831 15.1224C22.0896 15.1354 22.0961 15.1484 22.1026 15.1614C22.1158 15.1874 22.1293 15.2132 22.1431 15.2388C22.1569 15.2645 22.171 15.29 22.1854 15.3153C22.1998 15.3407 22.2146 15.3658 22.2296 15.3908C22.2446 15.4158 22.26 15.4407 22.2757 15.4653C22.2992 15.5024 22.3234 15.539 22.3483 15.5752C22.3648 15.5993 22.3817 15.6233 22.3989 15.6471C22.4505 15.7183 22.5049 15.7879 22.5619 15.8556C22.5904 15.8894 22.6196 15.9228 22.6494 15.9557C22.6793 15.9885 22.7098 16.0209 22.741 16.0528C22.7618 16.0741 22.7829 16.0951 22.8042 16.1158C22.8149 16.1262 22.8257 16.1366 22.8365 16.1468C22.856 16.1653 22.8758 16.1836 22.8957 16.2017C22.909 16.2138 22.9224 16.2258 22.9359 16.2377C22.9472 16.2476 22.9586 16.2574 22.9699 16.2672C22.9927 16.2868 23.0158 16.3061 23.0392 16.3252C23.2146 16.4681 23.406 16.5965 23.6125 16.7077C23.6246 16.7143 23.6368 16.7207 23.649 16.7271L23.6594 16.7325C23.6701 16.7381 23.6808 16.7436 23.6915 16.749L23.6967 16.7517C23.7089 16.7579 23.7212 16.764 23.7335 16.77L23.743 16.7747C23.7532 16.7797 23.7634 16.7846 23.7737 16.7895L23.7814 16.7932C23.7936 16.799 23.8059 16.8047 23.8183 16.8104L23.827 16.8143C23.8371 16.819 23.8472 16.8235 23.8574 16.8281L23.8669 16.8323C23.8791 16.8377 23.8914 16.8431 23.9037 16.8484L23.9108 16.8514C23.9211 16.8558 23.9314 16.8601 23.9418 16.8645L23.9529 16.8691C23.9637 16.8735 23.9745 16.878 23.9854 16.8823L23.9945 16.8859C24.0054 16.8902 24.0162 16.8945 24.0271 16.8987L24.04 16.9036L24.0664 16.9136L24.0786 16.9181C24.09 16.9224 24.1014 16.9265 24.1129 16.9306L24.1275 16.9358L24.1517 16.9442L24.166 16.9491C24.1769 16.9529 24.1878 16.9565 24.1987 16.9601L24.2184 16.9665L24.2352 16.9719L24.2557 16.9784L24.2727 16.9836C24.2843 16.9871 24.2959 16.9906 24.3076 16.9941L24.3225 16.9985L24.345 17.0049L24.3562 17.008C24.3723 17.0125 24.3885 17.0169 24.4048 17.0212L24.4088 17.0223L24.4361 17.0294L24.442 17.0309C24.4705 17.0381 24.4991 17.045 24.5278 17.0515L24.5297 17.0519C24.5438 17.0551 24.5578 17.0581 24.5719 17.0611L24.5831 17.0635C24.5941 17.0658 24.6051 17.0682 24.6162 17.0704Z" fill="#6800BA"/>
<path d="M13.664 34.026L14.2015 32.5135L12.8327 31.7764C11.9575 33.1335 11.0803 35.3794 11.9491 38.339C11.9491 38.339 15.4103 37.5513 16.9819 34.0108L15.5955 33.2642L14.6286 34.5454L13.664 34.026Z" fill="#DA802E"/>
<path d="M24.3836 38.5923L26.3076 33.531L24.6025 28.8006C24.1717 29.2556 23.7353 29.6907 23.2972 30.1049L25.622 33.9771L23.8608 38.7362L24.8077 40.0271L24.3836 38.5923Z" fill="#3951BE"/>
<path d="M8.08309 23.7166L4.91616 28.1086L3.48487 28.5442L5.08384 28.6243L8.08795 24.5346L12.6004 24.3444C12.7051 23.7507 12.8282 23.1469 12.971 22.5367L8.08309 23.7166Z" fill="#3951BE"/>
<path d="M14.2014 32.5135L14.8265 30.7546L12.1249 29.2997L11.9818 29.2227L12.0178 31.3376L12.0587 31.3596L12.8326 31.7764L14.2014 32.5135Z" fill="#605E6F"/>
<path d="M16.72 31.7743L15.5956 33.2642L16.9819 34.0108L17.7326 34.4151L17.7792 34.4402L19.5647 33.3062L19.4217 33.2292L16.72 31.7743Z" fill="#605E6F"/>
<path d="M26.3569 3.5234C26.3977 3.537 26.4386 3.55076 26.4796 3.56463C26.4912 3.56863 26.503 3.57264 26.5147 3.57664C26.545 3.587 26.5753 3.59742 26.6056 3.6079C26.6175 3.612 26.6292 3.6161 26.641 3.62021C26.6722 3.63104 26.7034 3.64203 26.7346 3.65307C26.7452 3.65682 26.7558 3.66057 26.7664 3.6643C26.806 3.67843 26.8456 3.69262 26.8852 3.70693L26.8874 3.70772C26.9756 3.73972 27.0639 3.77246 27.1524 3.80582L27.1543 3.8066C27.1969 3.82263 27.2394 3.83886 27.282 3.85524L27.2909 3.8587C27.3336 3.87515 27.3764 3.89175 27.4191 3.90856L27.4197 3.90877C29.344 2.64716 31.1115 1.79728 32.3743 1.36919L32.3742 1.36888L32.3669 1.35403L32.364 1.34822L32.3567 1.33361L32.3545 1.32934L32.3381 1.29779L32.338 1.2976L32.331 1.28467L32.3274 1.27817L32.3208 1.26615L32.3171 1.25974C32.3097 1.24662 32.3022 1.23392 32.2948 1.22165L32.2907 1.21499L32.2845 1.20505L32.284 1.20436L32.2804 1.1985L32.2795 1.19714L32.274 1.18862L32.2678 1.17919L32.2646 1.1743L32.2587 1.16563L32.2537 1.15841L32.2481 1.1505L32.2426 1.14289L32.2371 1.13544L32.2355 1.13337L32.2296 1.12544L32.2273 1.12253L32.2227 1.11665L32.2224 1.11619L32.2165 1.10867L32.2115 1.10261L32.2071 1.09727L32.2051 1.09494L32.2006 1.08957L32.1933 1.08134L32.1903 1.07789L32.1866 1.07389L32.1794 1.0661L32.1748 1.06136L32.1747 1.06133L32.1674 1.05394L32.1639 1.05049L32.1618 1.04845L32.1553 1.04225L32.1532 1.04032L32.1501 1.03759L32.1422 1.03059L32.138 1.02697L32.1347 1.02417L32.1341 1.02364L32.1303 1.02058L32.1271 1.01802L32.1225 1.01448L32.1193 1.01204L32.1162 1.00972L32.116 1.00966L32.1145 1.00855L32.107 1.00329L32.1069 1.00315L32.1048 1.00186L32.1015 0.99963L32.0943 0.99504L32.0932 0.994333L32.0901 0.992495L32.079 0.986076L32.0653 0.979264L32.0607 0.97721L32.0509 0.972913L32.0454 0.970697L32.0358 0.967031L32.0294 0.964753L32.0201 0.961711L32.013 0.959461L32.003 0.956633L31.9962 0.954808L31.9854 0.952195L31.9783 0.950576L31.9644 0.947759L31.9602 0.946891L31.9415 0.943743L31.9334 0.942656L31.9217 0.941046L31.9124 0.939961L31.9012 0.938823L31.8911 0.937922L31.8803 0.937067L31.8692 0.936357L31.8585 0.935818L31.8468 0.935335L31.8366 0.935039L31.8237 0.934767L31.8146 0.934719C31.7969 0.934666 31.7787 0.934987 31.7597 0.935721L31.7535 0.935985L31.7363 0.936845L31.7284 0.937278L31.7109 0.938499L31.7025 0.939097L31.6843 0.94062L31.6772 0.941236L31.6566 0.943217L31.6524 0.943701C30.7344 1.04062 28.7308 1.92222 26.3569 3.5234Z" fill="#3951BE"/>
<path d="M25.8418 5.01437C25.9433 4.93859 26.0446 4.86385 26.1457 4.79019C25.9667 4.72642 25.7879 4.66533 25.6093 4.60713L25.6058 4.60596C25.5626 4.59189 25.5194 4.57797 25.4762 4.56421L25.4711 4.56257C25.4303 4.54961 25.3895 4.53679 25.3486 4.52409L25.3362 4.52013C25.2976 4.50819 25.259 4.49639 25.2205 4.48465L25.2019 4.47897C25.1574 4.46548 25.1129 4.45221 25.0684 4.43906C24.9655 4.51596 24.8622 4.59391 24.7584 4.67322C24.8031 4.68589 24.8478 4.69875 24.8925 4.71179L24.8936 4.7121C24.9381 4.72507 24.9826 4.73825 25.0272 4.75158L25.0289 4.7521C25.1182 4.77879 25.2076 4.80625 25.2971 4.8344L25.2999 4.8353C25.3893 4.86342 25.4787 4.89228 25.5683 4.92185L25.5711 4.92283C25.6609 4.95251 25.7508 4.98292 25.8408 5.01404L25.8418 5.01437Z" fill="#3951BE"/>
<path d="M23.0719 20.8344L20.4645 19.4302L16.6146 25.7232L15.4483 29.0051L14.8265 30.7546L14.2014 32.5135L13.6639 34.026L14.6285 34.5454L15.5955 33.2642L16.72 31.7743L17.7945 30.3506L19.9367 27.5122L23.0719 20.8344Z" fill="#3951BE"/>
<path d="M13.9017 34.0442L14.4824 34.3569L19.2582 27.1879L22.9371 20.9305L20.4584 19.5956L17.2587 26.1111L13.9017 34.0442Z" fill="#3951BE"/>
</g>
</g>
<defs>
<linearGradient id="paint0_linear_926_114" x1="87.3905" y1="-6.30851" x2="213.961" y2="52.9059" gradientUnits="userSpaceOnUse">
<stop offset="0.0714721" stop-color="#2D4DDE"/>
<stop offset="1" stop-color="#9F53DA"/>
</linearGradient>
<clipPath id="clip0_926_114">
<rect width="192" height="53" fill="white"/>
</clipPath>
<clipPath id="clip1_926_114">
<rect width="40.0397" height="50.1906" fill="white" transform="translate(15.1986 -9.87748) rotate(28.3037)"/>
</clipPath>
</defs>
</svg>
