<svg width="227" height="62" viewBox="0 0 227 62" fill="none" xmlns="http://www.w3.org/2000/svg">
<path d="M16.4062 0.25H25.5938L26.9883 6.73047C28.3008 7.22266 29.4492 7.96094 30.5977 8.78125L36.832 6.8125L41.4258 14.7695L36.5859 19.1992C36.668 19.8555 36.75 20.5938 36.75 21.25C36.75 21.9883 36.668 22.6445 36.5859 23.3828L41.4258 27.8125L36.832 35.7695L30.5977 33.7188C29.4492 34.6211 28.3008 35.2773 26.9883 35.8516L25.5938 42.25H16.4062L14.9297 35.8516C13.6992 35.3594 12.4688 34.6211 11.3203 33.8008L5.08594 35.7695L0.492188 27.8125L5.33203 23.3828C5.25 22.7266 5.25 21.9883 5.25 21.25C5.25 20.5938 5.25 19.8555 5.33203 19.1992L0.492188 14.7695L5.08594 6.8125L11.3203 8.78125C12.4688 7.96094 13.6992 7.22266 14.9297 6.73047L16.4062 0.25ZM21 27.8125C23.2969 27.8125 25.4297 26.582 26.6602 24.5312C27.8086 22.5625 27.8086 20.0195 26.6602 17.9688C25.4297 16 23.2969 14.6875 21 14.6875C18.6211 14.6875 16.4883 16 15.2578 17.9688C14.1094 20.0195 14.1094 22.5625 15.2578 24.5312C16.4883 26.582 18.6211 27.8125 21 27.8125Z" fill="url(#paint0_linear_422_241)"/>
<path d="M59.618 36.92C57.322 36.92 55.502 36.262 54.158 34.946C52.814 33.602 52.142 31.852 52.142 29.696C52.142 28.128 52.506 26.784 53.234 25.664C53.99 24.544 55.068 23.69 56.468 23.102C57.896 22.486 59.604 22.178 61.592 22.178H66.128V20.708C66.128 19.84 65.82 19.168 65.204 18.692C64.616 18.188 63.762 17.936 62.642 17.936C61.578 17.936 60.724 18.146 60.08 18.566C59.464 18.986 59.128 19.602 59.072 20.414H53.108C53.192 18.146 54.088 16.34 55.796 14.996C57.504 13.652 59.814 12.98 62.726 12.98C65.778 12.98 68.158 13.68 69.866 15.08C71.574 16.48 72.428 18.44 72.428 20.96V36.5H66.338V31.922H65.33L66.464 31.25C66.464 32.398 66.184 33.406 65.624 34.274C65.064 35.114 64.266 35.772 63.23 36.248C62.222 36.696 61.018 36.92 59.618 36.92ZM61.844 31.88C63.16 31.88 64.196 31.558 64.952 30.914C65.736 30.242 66.128 29.374 66.128 28.31V25.958H61.718C60.598 25.958 59.73 26.238 59.114 26.798C58.526 27.33 58.232 28.03 58.232 28.898C58.232 29.766 58.54 30.48 59.156 31.04C59.8 31.6 60.696 31.88 61.844 31.88ZM87.7836 36.92C84.6756 36.92 82.2396 36.08 80.4756 34.4C78.7396 32.72 77.8716 30.424 77.8716 27.512V13.4H84.1716V27.47C84.1716 28.758 84.4796 29.752 85.0956 30.452C85.7116 31.124 86.6076 31.46 87.7836 31.46C88.9316 31.46 89.8136 31.124 90.4296 30.452C91.0736 29.752 91.3956 28.758 91.3956 27.47V13.4H97.6956V27.512C97.6956 30.452 96.8136 32.762 95.0496 34.442C93.2856 36.094 90.8636 36.92 87.7836 36.92ZM115.277 36.5C112.925 36.5 111.077 35.828 109.733 34.484C108.389 33.14 107.717 31.292 107.717 28.94V19.07H101.501V13.4H107.717V6.89H114.017V13.4H123.047V19.07H114.017V28.73C114.017 29.346 114.171 29.85 114.479 30.242C114.815 30.634 115.291 30.83 115.907 30.83H122.837V36.5H115.277ZM138.151 36.92C136.107 36.92 134.329 36.542 132.817 35.786C131.305 35.002 130.129 33.924 129.289 32.552C128.477 31.152 128.071 29.528 128.071 27.68V22.22C128.071 20.372 128.477 18.762 129.289 17.39C130.129 15.99 131.305 14.912 132.817 14.156C134.329 13.372 136.107 12.98 138.151 12.98C140.223 12.98 142.001 13.372 143.485 14.156C144.997 14.912 146.159 15.99 146.971 17.39C147.811 18.762 148.231 20.372 148.231 22.22V27.68C148.231 29.528 147.811 31.152 146.971 32.552C146.159 33.924 144.997 35.002 143.485 35.786C142.001 36.542 140.223 36.92 138.151 36.92ZM138.151 31.46C139.383 31.46 140.321 31.138 140.965 30.494C141.609 29.822 141.931 28.884 141.931 27.68V22.22C141.931 20.988 141.609 20.05 140.965 19.406C140.321 18.762 139.383 18.44 138.151 18.44C136.947 18.44 136.009 18.762 135.337 19.406C134.693 20.05 134.371 20.988 134.371 22.22V27.68C134.371 28.884 134.693 29.822 135.337 30.494C136.009 31.138 136.947 31.46 138.151 31.46Z" fill="url(#paint1_linear_422_241)"/>
<path d="M154.346 36.5V13.4H160.436V18.23H162.284L160.226 19.7C160.226 17.628 160.828 15.99 162.032 14.786C163.236 13.582 164.86 12.98 166.904 12.98C169.228 12.98 171.048 13.764 172.364 15.332C173.68 16.9 174.338 19.056 174.338 21.8V24.11H168.038V22.22C168.038 21.016 167.716 20.092 167.072 19.448C166.428 18.776 165.518 18.44 164.342 18.44C163.166 18.44 162.256 18.818 161.612 19.574C160.968 20.302 160.646 21.352 160.646 22.724V36.5H154.346ZM188.56 36.92C186.516 36.92 184.724 36.542 183.184 35.786C181.672 35.002 180.496 33.924 179.656 32.552C178.844 31.152 178.438 29.528 178.438 27.68V22.22C178.438 20.372 178.844 18.762 179.656 17.39C180.496 15.99 181.672 14.912 183.184 14.156C184.724 13.372 186.516 12.98 188.56 12.98C190.604 12.98 192.368 13.372 193.852 14.156C195.364 14.912 196.526 15.99 197.338 17.39C198.178 18.762 198.598 20.372 198.598 22.22V26.504H184.444V27.68C184.444 29.136 184.78 30.2 185.452 30.872C186.152 31.544 187.188 31.88 188.56 31.88C189.456 31.88 190.24 31.74 190.912 31.46C191.584 31.18 191.976 30.76 192.088 30.2H198.262C197.814 32.216 196.708 33.84 194.944 35.072C193.18 36.304 191.052 36.92 188.56 36.92ZM192.592 23.186V22.136C192.592 20.708 192.256 19.602 191.584 18.818C190.94 18.034 189.932 17.642 188.56 17.642C187.188 17.642 186.152 18.048 185.452 18.86C184.78 19.672 184.444 20.792 184.444 22.22V22.766L193.012 22.682L192.592 23.186ZM217.692 36.5C216.068 36.5 214.64 36.164 213.408 35.492C212.176 34.792 211.21 33.826 210.51 32.594C209.838 31.362 209.502 29.934 209.502 28.31V11.51H202.152V5.84H215.802V28.1C215.802 28.912 216.026 29.57 216.474 30.074C216.95 30.578 217.566 30.83 218.322 30.83H224.832V36.5H217.692Z" fill="black"/>
<defs>
<linearGradient id="paint0_linear_422_241" x1="0" y1="0" x2="42" y2="47" gradientUnits="userSpaceOnUse">
<stop stop-color="#9A9A9A"/>
<stop offset="1" stop-color="#292929"/>
</linearGradient>
<linearGradient id="paint1_linear_422_241" x1="50" y1="21" x2="227" y2="21" gradientUnits="userSpaceOnUse">
<stop stop-color="#00B3FF"/>
<stop offset="1" stop-color="#44EA9A"/>
</linearGradient>
</defs>
</svg>
