<svg width="227" height="75" viewBox="0 0 227 75" fill="none" xmlns="http://www.w3.org/2000/svg">
<path d="M59.618 53.42C57.322 53.42 55.502 52.762 54.158 51.446C52.814 50.102 52.142 48.352 52.142 46.196C52.142 44.628 52.506 43.284 53.234 42.164C53.99 41.044 55.068 40.19 56.468 39.602C57.896 38.986 59.604 38.678 61.592 38.678H66.128V37.208C66.128 36.34 65.82 35.668 65.204 35.192C64.616 34.688 63.762 34.436 62.642 34.436C61.578 34.436 60.724 34.646 60.08 35.066C59.464 35.486 59.128 36.102 59.072 36.914H53.108C53.192 34.646 54.088 32.84 55.796 31.496C57.504 30.152 59.814 29.48 62.726 29.48C65.778 29.48 68.158 30.18 69.866 31.58C71.574 32.98 72.428 34.94 72.428 37.46V53H66.338V48.422H65.33L66.464 47.75C66.464 48.898 66.184 49.906 65.624 50.774C65.064 51.614 64.266 52.272 63.23 52.748C62.222 53.196 61.018 53.42 59.618 53.42ZM61.844 48.38C63.16 48.38 64.196 48.058 64.952 47.414C65.736 46.742 66.128 45.874 66.128 44.81V42.458H61.718C60.598 42.458 59.73 42.738 59.114 43.298C58.526 43.83 58.232 44.53 58.232 45.398C58.232 46.266 58.54 46.98 59.156 47.54C59.8 48.1 60.696 48.38 61.844 48.38ZM87.7836 53.42C84.6756 53.42 82.2396 52.58 80.4756 50.9C78.7396 49.22 77.8716 46.924 77.8716 44.012V29.9H84.1716V43.97C84.1716 45.258 84.4796 46.252 85.0956 46.952C85.7116 47.624 86.6076 47.96 87.7836 47.96C88.9316 47.96 89.8136 47.624 90.4296 46.952C91.0736 46.252 91.3956 45.258 91.3956 43.97V29.9H97.6956V44.012C97.6956 46.952 96.8136 49.262 95.0496 50.942C93.2856 52.594 90.8636 53.42 87.7836 53.42ZM115.277 53C112.925 53 111.077 52.328 109.733 50.984C108.389 49.64 107.717 47.792 107.717 45.44V35.57H101.501V29.9H107.717V23.39H114.017V29.9H123.047V35.57H114.017V45.23C114.017 45.846 114.171 46.35 114.479 46.742C114.815 47.134 115.291 47.33 115.907 47.33H122.837V53H115.277ZM138.151 53.42C136.107 53.42 134.329 53.042 132.817 52.286C131.305 51.502 130.129 50.424 129.289 49.052C128.477 47.652 128.071 46.028 128.071 44.18V38.72C128.071 36.872 128.477 35.262 129.289 33.89C130.129 32.49 131.305 31.412 132.817 30.656C134.329 29.872 136.107 29.48 138.151 29.48C140.223 29.48 142.001 29.872 143.485 30.656C144.997 31.412 146.159 32.49 146.971 33.89C147.811 35.262 148.231 36.872 148.231 38.72V44.18C148.231 46.028 147.811 47.652 146.971 49.052C146.159 50.424 144.997 51.502 143.485 52.286C142.001 53.042 140.223 53.42 138.151 53.42ZM138.151 47.96C139.383 47.96 140.321 47.638 140.965 46.994C141.609 46.322 141.931 45.384 141.931 44.18V38.72C141.931 37.488 141.609 36.55 140.965 35.906C140.321 35.262 139.383 34.94 138.151 34.94C136.947 34.94 136.009 35.262 135.337 35.906C134.693 36.55 134.371 37.488 134.371 38.72V44.18C134.371 45.384 134.693 46.322 135.337 46.994C136.009 47.638 136.947 47.96 138.151 47.96Z" fill="url(#paint0_linear_337_218)"/>
<path d="M154.346 53V29.9H160.436V34.73H162.284L160.226 36.2C160.226 34.128 160.828 32.49 162.032 31.286C163.236 30.082 164.86 29.48 166.904 29.48C169.228 29.48 171.048 30.264 172.364 31.832C173.68 33.4 174.338 35.556 174.338 38.3V40.61H168.038V38.72C168.038 37.516 167.716 36.592 167.072 35.948C166.428 35.276 165.518 34.94 164.342 34.94C163.166 34.94 162.256 35.318 161.612 36.074C160.968 36.802 160.646 37.852 160.646 39.224V53H154.346ZM188.56 53.42C186.516 53.42 184.724 53.042 183.184 52.286C181.672 51.502 180.496 50.424 179.656 49.052C178.844 47.652 178.438 46.028 178.438 44.18V38.72C178.438 36.872 178.844 35.262 179.656 33.89C180.496 32.49 181.672 31.412 183.184 30.656C184.724 29.872 186.516 29.48 188.56 29.48C190.604 29.48 192.368 29.872 193.852 30.656C195.364 31.412 196.526 32.49 197.338 33.89C198.178 35.262 198.598 36.872 198.598 38.72V43.004H184.444V44.18C184.444 45.636 184.78 46.7 185.452 47.372C186.152 48.044 187.188 48.38 188.56 48.38C189.456 48.38 190.24 48.24 190.912 47.96C191.584 47.68 191.976 47.26 192.088 46.7H198.262C197.814 48.716 196.708 50.34 194.944 51.572C193.18 52.804 191.052 53.42 188.56 53.42ZM192.592 39.686V38.636C192.592 37.208 192.256 36.102 191.584 35.318C190.94 34.534 189.932 34.142 188.56 34.142C187.188 34.142 186.152 34.548 185.452 35.36C184.78 36.172 184.444 37.292 184.444 38.72V39.266L193.012 39.182L192.592 39.686ZM217.692 53C216.068 53 214.64 52.664 213.408 51.992C212.176 51.292 211.21 50.326 210.51 49.094C209.838 47.862 209.502 46.434 209.502 44.81V28.01H202.152V22.34H215.802V44.6C215.802 45.412 216.026 46.07 216.474 46.574C216.95 47.078 217.566 47.33 218.322 47.33H224.832V53H217.692Z" fill="black"/>
<path d="M15.4219 23.9609C14.2734 24.4531 13.125 25.0273 12.1406 25.8477L11.6484 26.2578L10.9922 26.0938L5.66016 24.3711L2.13281 30.5234L6.23438 34.2148L6.72656 34.707L6.64453 35.3633C6.5625 36.0195 6.5625 36.6758 6.5625 37.332C6.5625 37.9062 6.5625 38.5625 6.64453 39.2188L6.72656 39.875L6.23438 40.3672L2.13281 44.0586L5.66016 50.2109L10.9922 48.4883L11.6484 48.3242L12.1406 48.7344C13.125 49.4727 14.2734 50.1289 15.5039 50.6211L16.0781 50.8672L16.2422 51.6055L17.3906 56.9375H24.5273L25.6758 51.6055L25.8398 50.8672L26.4961 50.6211C27.6445 50.1289 28.793 49.4727 29.7773 48.7344L30.3516 48.3242L31.0078 48.4883L36.2578 50.2109L39.7852 44.0586L35.6836 40.3672L35.1914 39.875L35.2734 39.2188C35.3555 38.5625 35.3555 37.9062 35.3555 37.25C35.3555 36.5938 35.3555 36.0195 35.2734 35.3633L35.1914 34.707L35.6836 34.2148L39.7852 30.5234L36.2578 24.3711L30.9258 26.0938L30.2695 26.2578L29.7773 25.8477C28.793 25.1094 27.6445 24.4531 26.4961 23.9609L25.8398 23.6328L25.6758 22.9766L24.5273 17.5625H17.3906L16.2422 22.9766L16.0781 23.6328L15.4219 23.9609ZM25.5938 16.25L26.9883 22.7305C28.3008 23.2227 29.4492 23.9609 30.5977 24.7812L36.832 22.8125L41.4258 30.7695L36.5859 35.1992C36.668 35.8555 36.75 36.5938 36.75 37.332C36.75 37.9883 36.668 38.7266 36.5859 39.3828L41.4258 43.8125L36.832 51.7695L30.5977 49.8008C29.4492 50.6211 28.3008 51.3594 26.9883 51.8516L25.5938 58.25H16.4062L14.9297 51.8516C13.6992 51.2773 12.4688 50.6211 11.3203 49.8008L5.08594 51.7695L0.492188 43.8125L5.33203 39.3828C5.25 38.7266 5.25 37.9883 5.25 37.25C5.25 36.5938 5.25 35.8555 5.33203 35.1992L0.492188 30.7695L5.08594 22.8125L11.3203 24.7812C12.4688 23.9609 13.6992 23.2227 14.9297 22.7305L16.4062 16.25H25.5938ZM15.75 37.25C15.75 39.1367 16.7344 40.8594 18.375 41.8438C19.9336 42.7461 21.9844 42.7461 23.625 41.8438C25.1836 40.8594 26.25 39.1367 26.25 37.25C26.25 35.4453 25.1836 33.7227 23.625 32.7383C21.9844 31.8359 19.9336 31.8359 18.375 32.7383C16.7344 33.7227 15.75 35.4453 15.75 37.25ZM27.5625 37.25C27.5625 39.6289 26.25 41.7617 24.2812 42.9922C22.2305 44.1406 19.6875 44.1406 17.7188 42.9922C15.668 41.7617 14.4375 39.6289 14.4375 37.25C14.4375 34.9531 15.668 32.8203 17.7188 31.5898C19.6875 30.4414 22.2305 30.4414 24.2812 31.5898C26.25 32.8203 27.5625 34.9531 27.5625 37.25Z" fill="black"/>
<defs>
<linearGradient id="paint0_linear_337_218" x1="50" y1="37.5" x2="227" y2="37.5" gradientUnits="userSpaceOnUse">
<stop stop-color="#00B3FF"/>
<stop offset="1" stop-color="#44EA9A"/>
</linearGradient>
</defs>
</svg>
