<svg width="216" height="61" viewBox="0 0 216 61" fill="none" xmlns="http://www.w3.org/2000/svg">
<path d="M82.3665 41.4624C80.9148 41.4624 79.6072 41.2038 78.4439 40.6868C77.2905 40.1598 76.3757 39.3842 75.6996 38.3601C75.0334 37.3359 74.7003 36.0732 74.7003 34.5717C74.7003 33.2791 74.9389 32.2102 75.4162 31.3651C75.8935 30.5199 76.5447 29.8438 77.37 29.3366C78.1953 28.8295 79.125 28.4467 80.1591 28.1882C81.2031 27.9197 82.282 27.7259 83.3956 27.6065C84.7379 27.4673 85.8267 27.343 86.6619 27.2337C87.4972 27.1143 88.1037 26.9354 88.4815 26.6967C88.8693 26.4482 89.0632 26.0653 89.0632 25.5483V25.4588C89.0632 24.3352 88.7301 23.4652 88.0639 22.8487C87.3977 22.2322 86.4382 21.924 85.1854 21.924C83.8629 21.924 82.8139 22.2124 82.0384 22.7891C81.2727 23.3658 80.7557 24.0469 80.4872 24.8324L75.446 24.1165C75.8438 22.7244 76.5 21.5611 77.4148 20.6264C78.3295 19.6818 79.4482 18.9759 80.7706 18.5085C82.093 18.0312 83.5547 17.7926 85.1555 17.7926C86.2592 17.7926 87.358 17.9219 88.4517 18.1804C89.5455 18.4389 90.5447 18.8665 91.4496 19.4631C92.3544 20.0497 93.0803 20.8501 93.6271 21.8643C94.184 22.8786 94.4624 24.1463 94.4624 25.6676V41H89.272V37.853H89.093C88.7649 38.4893 88.3026 39.0859 87.706 39.6428C87.1193 40.1896 86.3786 40.6321 85.4837 40.9702C84.5987 41.2983 83.5597 41.4624 82.3665 41.4624ZM83.7685 37.495C84.8523 37.495 85.7919 37.2812 86.5874 36.8537C87.3828 36.4162 87.9943 35.8395 88.4219 35.1236C88.8594 34.4077 89.0781 33.6271 89.0781 32.782V30.0824C88.9091 30.2216 88.6207 30.3509 88.2131 30.4702C87.8153 30.5895 87.3679 30.6939 86.8707 30.7834C86.3736 30.8729 85.8814 30.9524 85.3942 31.022C84.907 31.0916 84.4844 31.1513 84.1264 31.201C83.321 31.3104 82.6001 31.4893 81.9638 31.7379C81.3274 31.9865 80.8253 32.3345 80.4574 32.782C80.0895 33.2195 79.9055 33.7862 79.9055 34.4822C79.9055 35.4766 80.2685 36.2273 80.9943 36.7344C81.7202 37.2415 82.6449 37.495 83.7685 37.495ZM114.493 31.3651V18.0909H119.892V41H114.657V36.9283H114.418C113.901 38.2109 113.051 39.2599 111.868 40.0753C110.695 40.8906 109.248 41.2983 107.528 41.2983C106.026 41.2983 104.699 40.9652 103.545 40.299C102.402 39.6229 101.507 38.6435 100.861 37.3608C100.214 36.0682 99.8913 34.5071 99.8913 32.6776V18.0909H105.29V31.8423C105.29 33.294 105.688 34.4474 106.484 35.3026C107.279 36.1577 108.323 36.5852 109.616 36.5852C110.411 36.5852 111.182 36.3913 111.928 36.0036C112.673 35.6158 113.285 35.0391 113.762 34.2734C114.249 33.4979 114.493 32.5284 114.493 31.3651ZM136.884 18.0909V22.267H123.714V18.0909H136.884ZM126.965 12.6023H132.365V34.1094C132.365 34.8352 132.474 35.392 132.693 35.7798C132.921 36.1577 133.22 36.4162 133.588 36.5554C133.955 36.6946 134.363 36.7642 134.811 36.7642C135.149 36.7642 135.457 36.7393 135.735 36.6896C136.024 36.6399 136.242 36.5952 136.392 36.5554L137.301 40.7763C137.013 40.8757 136.6 40.9851 136.063 41.1044C135.536 41.2237 134.89 41.2933 134.124 41.3132C132.772 41.353 131.554 41.1491 130.47 40.7017C129.387 40.2443 128.526 39.5384 127.89 38.5838C127.264 37.6293 126.955 36.4361 126.965 35.0043V12.6023ZM151.146 41.4474C148.909 41.4474 146.97 40.9553 145.329 39.9709C143.689 38.9865 142.416 37.6094 141.511 35.8395C140.616 34.0696 140.169 32.0014 140.169 29.6349C140.169 27.2685 140.616 25.1953 141.511 23.4155C142.416 21.6357 143.689 20.2536 145.329 19.2692C146.97 18.2848 148.909 17.7926 151.146 17.7926C153.383 17.7926 155.322 18.2848 156.963 19.2692C158.603 20.2536 159.871 21.6357 160.766 23.4155C161.671 25.1953 162.123 27.2685 162.123 29.6349C162.123 32.0014 161.671 34.0696 160.766 35.8395C159.871 37.6094 158.603 38.9865 156.963 39.9709C155.322 40.9553 153.383 41.4474 151.146 41.4474ZM151.176 37.1222C152.389 37.1222 153.403 36.7891 154.218 36.1229C155.034 35.4467 155.64 34.5419 156.038 33.4084C156.446 32.2749 156.65 31.0121 156.65 29.62C156.65 28.218 156.446 26.9503 156.038 25.8168C155.64 24.6733 155.034 23.7635 154.218 23.0874C153.403 22.4112 152.389 22.0732 151.176 22.0732C149.933 22.0732 148.899 22.4112 148.074 23.0874C147.258 23.7635 146.647 24.6733 146.239 25.8168C145.841 26.9503 145.642 28.218 145.642 29.62C145.642 31.0121 145.841 32.2749 146.239 33.4084C146.647 34.5419 147.258 35.4467 148.074 36.1229C148.899 36.7891 149.933 37.1222 151.176 37.1222ZM166.706 41V18.0909H171.941V21.9091H172.18C172.597 20.5866 173.313 19.5675 174.327 18.8516C175.351 18.1257 176.52 17.7628 177.832 17.7628C178.131 17.7628 178.464 17.7777 178.831 17.8075C179.209 17.8274 179.523 17.8622 179.771 17.9119V22.8786C179.542 22.799 179.18 22.7294 178.682 22.6697C178.195 22.6001 177.723 22.5653 177.265 22.5653C176.281 22.5653 175.396 22.7791 174.611 23.2067C173.835 23.6243 173.224 24.206 172.776 24.9517C172.329 25.6974 172.105 26.5575 172.105 27.532V41H166.706ZM192.557 41.4474C190.26 41.4474 188.276 40.9702 186.606 40.0156C184.945 39.0511 183.668 37.6889 182.773 35.929C181.878 34.1591 181.43 32.076 181.43 29.6797C181.43 27.3232 181.878 25.255 182.773 23.4751C183.678 21.6854 184.94 20.2933 186.561 19.299C188.182 18.2947 190.086 17.7926 192.273 17.7926C193.685 17.7926 195.018 18.0213 196.271 18.4787C197.533 18.9261 198.647 19.6222 199.612 20.5668C200.586 21.5114 201.352 22.7145 201.908 24.1761C202.465 25.6278 202.744 27.358 202.744 29.3665V31.022H183.966V27.3828H197.568C197.558 26.3487 197.335 25.429 196.897 24.6236C196.46 23.8082 195.848 23.1669 195.062 22.6996C194.287 22.2322 193.382 21.9986 192.348 21.9986C191.244 21.9986 190.275 22.267 189.44 22.804C188.604 23.331 187.953 24.027 187.486 24.892C187.028 25.7472 186.795 26.6868 186.785 27.7109V30.8878C186.785 32.2202 187.028 33.3636 187.516 34.3182C188.003 35.2628 188.684 35.9886 189.559 36.4957C190.434 36.9929 191.458 37.2415 192.631 37.2415C193.417 37.2415 194.128 37.1321 194.764 36.9134C195.401 36.6847 195.952 36.3516 196.42 35.9141C196.887 35.4766 197.24 34.9347 197.479 34.2884L202.52 34.8551C202.202 36.1875 201.595 37.3509 200.7 38.3452C199.815 39.3295 198.682 40.0952 197.3 40.642C195.918 41.179 194.337 41.4474 192.557 41.4474ZM212.71 10.4545V41H207.311V10.4545H212.71Z" fill="white"/>
<path fill-rule="evenodd" clip-rule="evenodd" d="M30.5 61C47.3447 61 61 47.3447 61 30.5C61 27.0361 60.4226 23.7071 59.3588 20.604C58.5293 19.9856 57.886 19.1313 57.5278 18.1406H38.9883C38.2467 20.1918 36.2831 21.6578 33.9755 21.6578C31.0325 21.6578 28.6466 19.272 28.6466 16.3289C28.6466 13.3858 31.0325 11 33.9755 11C36.2831 11 38.2467 12.466 38.9883 14.5172H56.4819C51.1121 5.80638 41.4841 0 30.5 0C13.6553 0 0 13.6553 0 30.5C0 36.3438 1.64343 41.8037 4.49341 46.4428H18.8812C19.6228 44.3916 21.5863 42.9256 23.8939 42.9256C26.837 42.9256 29.2228 45.3114 29.2228 48.2545C29.2228 51.1976 26.837 53.5834 23.8939 53.5834C21.5863 53.5834 19.6228 52.1174 18.8812 50.0662H7.10217C12.697 56.7496 21.1021 61 30.5 61ZM10.1633 31.4515C10.1633 34.3946 12.5492 36.7804 15.4922 36.7804C17.7998 36.7804 19.7634 35.3144 20.505 33.2632H39.0446C39.7861 35.3144 41.7496 36.7804 44.0573 36.7804C47.0004 36.7804 49.3861 34.3946 49.3861 31.4515C49.3861 28.5085 47.0004 26.1227 44.0573 26.1227C41.7496 26.1227 39.7861 27.5886 39.0446 29.6399H20.505C19.7634 27.5886 17.7998 26.1227 15.4922 26.1227C12.5492 26.1227 10.1633 28.5085 10.1633 31.4515Z" fill="white"/>
</svg>
