<svg width="227" height="55" viewBox="0 0 227 55" fill="none" xmlns="http://www.w3.org/2000/svg">
<path d="M59.618 43.42C57.322 43.42 55.502 42.762 54.158 41.446C52.814 40.102 52.142 38.352 52.142 36.196C52.142 34.628 52.506 33.284 53.234 32.164C53.99 31.044 55.068 30.19 56.468 29.602C57.896 28.986 59.604 28.678 61.592 28.678H66.128V27.208C66.128 26.34 65.82 25.668 65.204 25.192C64.616 24.688 63.762 24.436 62.642 24.436C61.578 24.436 60.724 24.646 60.08 25.066C59.464 25.486 59.128 26.102 59.072 26.914H53.108C53.192 24.646 54.088 22.84 55.796 21.496C57.504 20.152 59.814 19.48 62.726 19.48C65.778 19.48 68.158 20.18 69.866 21.58C71.574 22.98 72.428 24.94 72.428 27.46V43H66.338V38.422H65.33L66.464 37.75C66.464 38.898 66.184 39.906 65.624 40.774C65.064 41.614 64.266 42.272 63.23 42.748C62.222 43.196 61.018 43.42 59.618 43.42ZM61.844 38.38C63.16 38.38 64.196 38.058 64.952 37.414C65.736 36.742 66.128 35.874 66.128 34.81V32.458H61.718C60.598 32.458 59.73 32.738 59.114 33.298C58.526 33.83 58.232 34.53 58.232 35.398C58.232 36.266 58.54 36.98 59.156 37.54C59.8 38.1 60.696 38.38 61.844 38.38ZM87.7836 43.42C84.6756 43.42 82.2396 42.58 80.4756 40.9C78.7396 39.22 77.8716 36.924 77.8716 34.012V19.9H84.1716V33.97C84.1716 35.258 84.4796 36.252 85.0956 36.952C85.7116 37.624 86.6076 37.96 87.7836 37.96C88.9316 37.96 89.8136 37.624 90.4296 36.952C91.0736 36.252 91.3956 35.258 91.3956 33.97V19.9H97.6956V34.012C97.6956 36.952 96.8136 39.262 95.0496 40.942C93.2856 42.594 90.8636 43.42 87.7836 43.42ZM115.277 43C112.925 43 111.077 42.328 109.733 40.984C108.389 39.64 107.717 37.792 107.717 35.44V25.57H101.501V19.9H107.717V13.39H114.017V19.9H123.047V25.57H114.017V35.23C114.017 35.846 114.171 36.35 114.479 36.742C114.815 37.134 115.291 37.33 115.907 37.33H122.837V43H115.277ZM138.151 43.42C136.107 43.42 134.329 43.042 132.817 42.286C131.305 41.502 130.129 40.424 129.289 39.052C128.477 37.652 128.071 36.028 128.071 34.18V28.72C128.071 26.872 128.477 25.262 129.289 23.89C130.129 22.49 131.305 21.412 132.817 20.656C134.329 19.872 136.107 19.48 138.151 19.48C140.223 19.48 142.001 19.872 143.485 20.656C144.997 21.412 146.159 22.49 146.971 23.89C147.811 25.262 148.231 26.872 148.231 28.72V34.18C148.231 36.028 147.811 37.652 146.971 39.052C146.159 40.424 144.997 41.502 143.485 42.286C142.001 43.042 140.223 43.42 138.151 43.42ZM138.151 37.96C139.383 37.96 140.321 37.638 140.965 36.994C141.609 36.322 141.931 35.384 141.931 34.18V28.72C141.931 27.488 141.609 26.55 140.965 25.906C140.321 25.262 139.383 24.94 138.151 24.94C136.947 24.94 136.009 25.262 135.337 25.906C134.693 26.55 134.371 27.488 134.371 28.72V34.18C134.371 35.384 134.693 36.322 135.337 36.994C136.009 37.638 136.947 37.96 138.151 37.96Z" fill="url(#paint0_linear_337_214)"/>
<path d="M154.346 43V19.9H160.436V24.73H162.284L160.226 26.2C160.226 24.128 160.828 22.49 162.032 21.286C163.236 20.082 164.86 19.48 166.904 19.48C169.228 19.48 171.048 20.264 172.364 21.832C173.68 23.4 174.338 25.556 174.338 28.3V30.61H168.038V28.72C168.038 27.516 167.716 26.592 167.072 25.948C166.428 25.276 165.518 24.94 164.342 24.94C163.166 24.94 162.256 25.318 161.612 26.074C160.968 26.802 160.646 27.852 160.646 29.224V43H154.346ZM188.56 43.42C186.516 43.42 184.724 43.042 183.184 42.286C181.672 41.502 180.496 40.424 179.656 39.052C178.844 37.652 178.438 36.028 178.438 34.18V28.72C178.438 26.872 178.844 25.262 179.656 23.89C180.496 22.49 181.672 21.412 183.184 20.656C184.724 19.872 186.516 19.48 188.56 19.48C190.604 19.48 192.368 19.872 193.852 20.656C195.364 21.412 196.526 22.49 197.338 23.89C198.178 25.262 198.598 26.872 198.598 28.72V33.004H184.444V34.18C184.444 35.636 184.78 36.7 185.452 37.372C186.152 38.044 187.188 38.38 188.56 38.38C189.456 38.38 190.24 38.24 190.912 37.96C191.584 37.68 191.976 37.26 192.088 36.7H198.262C197.814 38.716 196.708 40.34 194.944 41.572C193.18 42.804 191.052 43.42 188.56 43.42ZM192.592 29.686V28.636C192.592 27.208 192.256 26.102 191.584 25.318C190.94 24.534 189.932 24.142 188.56 24.142C187.188 24.142 186.152 24.548 185.452 25.36C184.78 26.172 184.444 27.292 184.444 28.72V29.266L193.012 29.182L192.592 29.686ZM217.692 43C216.068 43 214.64 42.664 213.408 41.992C212.176 41.292 211.21 40.326 210.51 39.094C209.838 37.862 209.502 36.434 209.502 34.81V18.01H202.152V12.34H215.802V34.6C215.802 35.412 216.026 36.07 216.474 36.574C216.95 37.078 217.566 37.33 218.322 37.33H224.832V43H217.692Z" fill="white"/>
<path d="M16.4062 8.25H25.5938L26.9883 14.7305C28.3008 15.2227 29.4492 15.9609 30.5977 16.7812L36.832 14.8125L41.4258 22.7695L36.5859 27.1992C36.668 27.8555 36.75 28.5938 36.75 29.25C36.75 29.9883 36.668 30.6445 36.5859 31.3828L41.4258 35.8125L36.832 43.7695L30.5977 41.7188C29.4492 42.6211 28.3008 43.2773 26.9883 43.8516L25.5938 50.25H16.4062L14.9297 43.8516C13.6992 43.3594 12.4688 42.6211 11.3203 41.8008L5.08594 43.7695L0.492188 35.8125L5.33203 31.3828C5.25 30.7266 5.25 29.9883 5.25 29.25C5.25 28.5938 5.25 27.8555 5.33203 27.1992L0.492188 22.7695L5.08594 14.8125L11.3203 16.7812C12.4688 15.9609 13.6992 15.2227 14.9297 14.7305L16.4062 8.25ZM21 35.8125C23.2969 35.8125 25.4297 34.582 26.6602 32.5312C27.8086 30.5625 27.8086 28.0195 26.6602 25.9688C25.4297 24 23.2969 22.6875 21 22.6875C18.6211 22.6875 16.4883 24 15.2578 25.9688C14.1094 28.0195 14.1094 30.5625 15.2578 32.5312C16.4883 34.582 18.6211 35.8125 21 35.8125Z" fill="url(#paint1_linear_337_214)"/>
<defs>
<linearGradient id="paint0_linear_337_214" x1="50" y1="27.5" x2="227" y2="27.5" gradientUnits="userSpaceOnUse">
<stop stop-color="#00B3FF"/>
<stop offset="1" stop-color="#44EA9A"/>
</linearGradient>
<linearGradient id="paint1_linear_337_214" x1="0" y1="8" x2="42" y2="55" gradientUnits="userSpaceOnUse">
<stop stop-color="white"/>
<stop offset="1" stop-color="#707070"/>
</linearGradient>
</defs>
</svg>
