<svg width="230" height="69" viewBox="0 0 230 69" fill="none" xmlns="http://www.w3.org/2000/svg">
<g clip-path="url(#clip0_919_109)">
<path d="M48.798 7.7H56.736L71.338 42H63.106L52.522 15.442L41.889 42H33.853L48.798 7.7ZM42.183 29.113H62.42V35.14H42.183V29.113ZM79.3924 30.142C79.3924 31.8407 79.8334 33.18 80.7154 34.16C81.5974 35.14 82.806 35.63 84.3414 35.63C86.1707 35.5973 87.5917 34.9277 88.6044 33.621C89.6497 32.3143 90.1724 30.6647 90.1724 28.672H91.9854C91.9854 31.7427 91.5444 34.2907 90.6624 36.316C89.813 38.3087 88.588 39.795 86.9874 40.775C85.4194 41.755 83.541 42.2613 81.3524 42.294C79.3924 42.294 77.71 41.8857 76.3054 41.069C74.9007 40.2197 73.8064 39.0437 73.0224 37.541C72.2384 36.0383 71.8464 34.258 71.8464 32.2V15.687H79.3924V30.142ZM90.1724 15.687H97.6694V42H90.1724V15.687ZM112.671 33.033C112.671 34.209 112.9 35.042 113.357 35.532C113.814 35.9893 114.435 36.2017 115.219 36.169C115.709 36.169 116.248 36.0873 116.836 35.924C117.424 35.7607 118.061 35.5157 118.747 35.189L120.315 40.481C119.335 41.069 118.257 41.5263 117.081 41.853C115.905 42.1797 114.696 42.343 113.455 42.343C111.887 42.343 110.466 42.049 109.192 41.461C107.951 40.873 106.971 39.9747 106.252 38.766C105.533 37.5573 105.174 36.0547 105.174 34.258V9.562H112.671V33.033ZM101.499 16.814H119.825V21.861H101.499V16.814ZM135.597 15.442C138.406 15.442 140.873 15.9973 142.996 17.108C145.119 18.2187 146.769 19.7867 147.945 21.812C149.121 23.8047 149.709 26.1403 149.709 28.819C149.709 31.4977 149.121 33.8497 147.945 35.875C146.769 37.9003 145.119 39.4683 142.996 40.579C140.873 41.6897 138.406 42.245 135.597 42.245C132.788 42.245 130.305 41.6897 128.149 40.579C126.026 39.4683 124.376 37.9003 123.2 35.875C122.024 33.8497 121.436 31.4977 121.436 28.819C121.436 26.1403 122.024 23.8047 123.2 21.812C124.376 19.7867 126.026 18.2187 128.149 17.108C130.305 15.9973 132.788 15.442 135.597 15.442ZM135.597 21.469C134.29 21.469 133.131 21.7793 132.118 22.4C131.138 23.0207 130.37 23.9027 129.815 25.046C129.26 26.1567 128.982 27.447 128.982 28.917C128.982 30.387 129.26 31.6937 129.815 32.837C130.37 33.9477 131.138 34.8297 132.118 35.483C133.131 36.1037 134.29 36.414 135.597 36.414C136.904 36.414 138.047 36.1037 139.027 35.483C140.007 34.8297 140.775 33.9477 141.33 32.837C141.885 31.6937 142.163 30.387 142.163 28.917C142.163 27.447 141.885 26.1567 141.33 25.046C140.775 23.9027 140.007 23.0207 139.027 22.4C138.047 21.7793 136.904 21.469 135.597 21.469ZM168.761 7.7C173.236 7.7 176.699 8.74533 179.149 10.836C181.631 12.894 182.873 15.8013 182.873 19.558C182.873 23.5107 181.631 26.5977 179.149 28.819C176.699 31.0077 173.236 32.102 168.761 32.102H161.607V42H153.865V7.7H168.761ZM168.761 25.83C170.884 25.83 172.534 25.34 173.71 24.36C174.918 23.3473 175.523 21.8283 175.523 19.803C175.523 17.843 174.918 16.373 173.71 15.393C172.534 14.413 170.884 13.923 168.761 13.923H161.607V25.83H168.761ZM167.83 29.211H175.376L183.706 42H174.935L167.83 29.211ZM205.395 26.712C205.362 25.5033 205.101 24.4743 204.611 23.625C204.153 22.743 203.484 22.057 202.602 21.567C201.72 21.077 200.707 20.832 199.564 20.832C198.29 20.832 197.179 21.1587 196.232 21.812C195.284 22.4653 194.549 23.3637 194.027 24.507C193.504 25.6503 193.243 26.9733 193.243 28.476C193.243 30.1747 193.537 31.6283 194.125 32.837C194.713 34.0457 195.546 34.9767 196.624 35.63C197.702 36.2833 198.943 36.61 200.348 36.61C202.896 36.61 205.117 35.6627 207.012 33.768L210.981 37.688C209.674 39.158 208.057 40.285 206.13 41.069C204.235 41.853 202.095 42.245 199.711 42.245C196.901 42.245 194.468 41.6897 192.41 40.579C190.352 39.4683 188.751 37.9167 187.608 35.924C186.497 33.8987 185.942 31.563 185.942 28.917C185.942 26.2057 186.513 23.8537 187.657 21.861C188.8 19.8357 190.384 18.2677 192.41 17.157C194.468 16.0463 196.836 15.4747 199.515 15.442C202.618 15.442 205.15 16.0953 207.11 17.402C209.102 18.676 210.54 20.489 211.422 22.841C212.336 25.1603 212.679 27.9207 212.451 31.122H192.165V26.712H205.395ZM216.698 5.642H224.244V42H216.698V5.642Z" fill="url(#paint0_linear_919_109)"/>
<path d="M25 41L15.3846 29L5 41" stroke="black" stroke-opacity="0.98" stroke-width="5"/>
<path d="M25 27L15.8654 15L6 27" stroke="black" stroke-opacity="0.98" stroke-width="5"/>
</g>
<defs>
<linearGradient id="paint0_linear_919_109" x1="114" y1="-13.5" x2="333" y2="88" gradientUnits="userSpaceOnUse">
<stop offset="0.0714721" stop-color="#2D4DDE"/>
<stop offset="1" stop-color="#9F53DA"/>
</linearGradient>
<clipPath id="clip0_919_109">
<rect width="230" height="69" fill="white"/>
</clipPath>
</defs>
</svg>
