<svg width="371" height="114" viewBox="0 0 371 114" fill="none" xmlns="http://www.w3.org/2000/svg">
<g clip-path="url(#clip0_919_104)">
<path d="M81.556 20.4H94.192L117.436 75H104.332L87.484 32.724L70.558 75H57.766L81.556 20.4ZM71.026 54.486H103.24V64.08H71.026V54.486ZM130.257 56.124C130.257 58.828 130.959 60.96 132.363 62.52C133.767 64.08 135.691 64.86 138.135 64.86C141.047 64.808 143.309 63.742 144.921 61.662C146.585 59.582 147.417 56.956 147.417 53.784H150.303C150.303 58.672 149.601 62.728 148.197 65.952C146.845 69.124 144.895 71.49 142.347 73.05C139.851 74.61 136.861 75.416 133.377 75.468C130.257 75.468 127.579 74.818 125.343 73.518C123.107 72.166 121.365 70.294 120.117 67.902C118.869 65.51 118.245 62.676 118.245 59.4V33.114H130.257V56.124ZM147.417 33.114H159.351V75H147.417V33.114ZM183.231 60.726C183.231 62.598 183.595 63.924 184.323 64.704C185.051 65.432 186.039 65.77 187.287 65.718C188.067 65.718 188.925 65.588 189.861 65.328C190.797 65.068 191.811 64.678 192.903 64.158L195.399 72.582C193.839 73.518 192.123 74.246 190.251 74.766C188.379 75.286 186.455 75.546 184.479 75.546C181.983 75.546 179.721 75.078 177.693 74.142C175.717 73.206 174.157 71.776 173.013 69.852C171.869 67.928 171.297 65.536 171.297 62.676V23.364H183.231V60.726ZM165.447 34.908H194.619V42.942H165.447V34.908ZM219.726 32.724C224.198 32.724 228.124 33.608 231.504 35.376C234.884 37.144 237.51 39.64 239.382 42.864C241.254 46.036 242.19 49.754 242.19 54.018C242.19 58.282 241.254 62.026 239.382 65.25C237.51 68.474 234.884 70.97 231.504 72.738C228.124 74.506 224.198 75.39 219.726 75.39C215.254 75.39 211.302 74.506 207.87 72.738C204.49 70.97 201.864 68.474 199.992 65.25C198.12 62.026 197.184 58.282 197.184 54.018C197.184 49.754 198.12 46.036 199.992 42.864C201.864 39.64 204.49 37.144 207.87 35.376C211.302 33.608 215.254 32.724 219.726 32.724ZM219.726 42.318C217.646 42.318 215.8 42.812 214.188 43.8C212.628 44.788 211.406 46.192 210.522 48.012C209.638 49.78 209.196 51.834 209.196 54.174C209.196 56.514 209.638 58.594 210.522 60.414C211.406 62.182 212.628 63.586 214.188 64.626C215.8 65.614 217.646 66.108 219.726 66.108C221.806 66.108 223.626 65.614 225.186 64.626C226.746 63.586 227.968 62.182 228.852 60.414C229.736 58.594 230.178 56.514 230.178 54.174C230.178 51.834 229.736 49.78 228.852 48.012C227.968 46.192 226.746 44.788 225.186 43.8C223.626 42.812 221.806 42.318 219.726 42.318ZM272.517 20.4C279.641 20.4 285.153 22.064 289.053 25.392C293.005 28.668 294.981 33.296 294.981 39.276C294.981 45.568 293.005 50.482 289.053 54.018C285.153 57.502 279.641 59.244 272.517 59.244H261.129V75H248.805V20.4H272.517ZM272.517 49.26C275.897 49.26 278.523 48.48 280.395 46.92C282.319 45.308 283.281 42.89 283.281 39.666C283.281 36.546 282.319 34.206 280.395 32.646C278.523 31.086 275.897 30.306 272.517 30.306H261.129V49.26H272.517ZM271.035 54.642H283.047L296.307 75H282.345L271.035 54.642ZM330.832 50.664C330.78 48.74 330.364 47.102 329.584 45.75C328.856 44.346 327.79 43.254 326.386 42.474C324.982 41.694 323.37 41.304 321.55 41.304C319.522 41.304 317.754 41.824 316.246 42.864C314.738 43.904 313.568 45.334 312.736 47.154C311.904 48.974 311.488 51.08 311.488 53.472C311.488 56.176 311.956 58.49 312.892 60.414C313.828 62.338 315.154 63.82 316.87 64.86C318.586 65.9 320.562 66.42 322.798 66.42C326.854 66.42 330.39 64.912 333.406 61.896L339.724 68.136C337.644 70.476 335.07 72.27 332.002 73.518C328.986 74.766 325.58 75.39 321.784 75.39C317.312 75.39 313.438 74.506 310.162 72.738C306.886 70.97 304.338 68.5 302.518 65.328C300.75 62.104 299.866 58.386 299.866 54.174C299.866 49.858 300.776 46.114 302.596 42.942C304.416 39.718 306.938 37.222 310.162 35.454C313.438 33.686 317.208 32.776 321.472 32.724C326.412 32.724 330.442 33.764 333.562 35.844C336.734 37.872 339.022 40.758 340.426 44.502C341.882 48.194 342.428 52.588 342.064 57.684H309.772V50.664H330.832ZM348.825 17.124H360.837V75H348.825V17.124Z" fill="url(#paint0_linear_919_104)"/>
<path d="M42 70L25.6538 49L8 70" stroke="white" stroke-width="9"/>
<path d="M42 47L26.1346 26L9 47" stroke="white" stroke-width="9"/>
</g>
<defs>
<linearGradient id="paint0_linear_919_104" x1="138" y1="-7.5" x2="357" y2="94" gradientUnits="userSpaceOnUse">
<stop offset="0.0714721" stop-color="#2D4DDE"/>
<stop offset="1" stop-color="#9F53DA"/>
</linearGradient>
<clipPath id="clip0_919_104">
<rect width="371" height="114" fill="white"/>
</clipPath>
</defs>
</svg>
