<svg width="192" height="53" viewBox="0 0 192 53" fill="none" xmlns="http://www.w3.org/2000/svg">
<g clip-path="url(#clip0_926_114)">
<path d="M52.476 6.4H58.632L69.956 33H63.572L55.364 12.404L47.118 33H40.886L52.476 6.4ZM47.346 23.006H63.04V27.68H47.346V23.006ZM76.2023 23.804C76.2023 25.1213 76.5443 26.16 77.2283 26.92C77.9122 27.68 78.8496 28.06 80.0403 28.06C81.4589 28.0347 82.5609 27.5153 83.3462 26.502C84.1569 25.4887 84.5623 24.2093 84.5623 22.664H85.9683C85.9683 25.0453 85.6263 27.0213 84.9423 28.592C84.2836 30.1373 83.3336 31.29 82.0923 32.05C80.8763 32.81 79.4196 33.2027 77.7222 33.228C76.2022 33.228 74.8976 32.9113 73.8082 32.278C72.7189 31.6193 71.8702 30.7073 71.2622 29.542C70.6542 28.3767 70.3502 26.996 70.3502 25.4V12.594H76.2023V23.804ZM84.5623 12.594H90.3763V33H84.5623V12.594ZM102.01 26.046C102.01 26.958 102.188 27.604 102.542 27.984C102.897 28.3387 103.378 28.5033 103.986 28.478C104.366 28.478 104.784 28.4147 105.24 28.288C105.696 28.1613 106.19 27.9713 106.722 27.718L107.938 31.822C107.178 32.278 106.342 32.6327 105.43 32.886C104.518 33.1393 103.581 33.266 102.618 33.266C101.402 33.266 100.3 33.038 99.3122 32.582C98.3495 32.126 97.5895 31.4293 97.0322 30.492C96.4749 29.5547 96.1962 28.3893 96.1962 26.996V7.844H102.01V26.046ZM93.3462 13.468H107.558V17.382H93.3462V13.468ZM119.789 12.404C121.968 12.404 123.881 12.8347 125.527 13.696C127.174 14.5573 128.453 15.7733 129.365 17.344C130.277 18.8893 130.733 20.7007 130.733 22.778C130.733 24.8553 130.277 26.6793 129.365 28.25C128.453 29.8207 127.174 31.0367 125.527 31.898C123.881 32.7593 121.968 33.19 119.789 33.19C117.611 33.19 115.685 32.7593 114.013 31.898C112.367 31.0367 111.087 29.8207 110.175 28.25C109.263 26.6793 108.807 24.8553 108.807 22.778C108.807 20.7007 109.263 18.8893 110.175 17.344C111.087 15.7733 112.367 14.5573 114.013 13.696C115.685 12.8347 117.611 12.404 119.789 12.404ZM119.789 17.078C118.776 17.078 117.877 17.3187 117.091 17.8C116.331 18.2813 115.736 18.9653 115.305 19.852C114.875 20.7133 114.659 21.714 114.659 22.854C114.659 23.994 114.875 25.0073 115.305 25.894C115.736 26.7553 116.331 27.4393 117.091 27.946C117.877 28.4273 118.776 28.668 119.789 28.668C120.803 28.668 121.689 28.4273 122.449 27.946C123.209 27.4393 123.805 26.7553 124.235 25.894C124.666 25.0073 124.881 23.994 124.881 22.854C124.881 21.714 124.666 20.7133 124.235 19.852C123.805 18.9653 123.209 18.2813 122.449 17.8C121.689 17.3187 120.803 17.078 119.789 17.078ZM145.508 6.4C148.979 6.4 151.664 7.21066 153.564 8.832C155.49 10.428 156.452 12.6827 156.452 15.596C156.452 18.6613 155.49 21.0553 153.564 22.778C151.664 24.4753 148.979 25.324 145.508 25.324H139.96V33H133.956V6.4H145.508ZM145.508 20.46C147.155 20.46 148.434 20.08 149.346 19.32C150.284 18.5347 150.752 17.3567 150.752 15.786C150.752 14.266 150.284 13.126 149.346 12.366C148.434 11.606 147.155 11.226 145.508 11.226H139.96V20.46H145.508ZM144.786 23.082H150.638L157.098 33H150.296L144.786 23.082ZM173.918 21.144C173.893 20.2067 173.69 19.4087 173.31 18.75C172.956 18.066 172.436 17.534 171.752 17.154C171.068 16.774 170.283 16.584 169.396 16.584C168.408 16.584 167.547 16.8373 166.812 17.344C166.078 17.8507 165.508 18.5473 165.102 19.434C164.697 20.3207 164.494 21.3467 164.494 22.512C164.494 23.8293 164.722 24.9567 165.178 25.894C165.634 26.8313 166.28 27.5533 167.116 28.06C167.952 28.5667 168.915 28.82 170.004 28.82C171.98 28.82 173.703 28.0853 175.172 26.616L178.25 29.656C177.237 30.796 175.983 31.67 174.488 32.278C173.019 32.886 171.36 33.19 169.51 33.19C167.332 33.19 165.444 32.7593 163.848 31.898C162.252 31.0367 161.011 29.8333 160.124 28.288C159.263 26.7173 158.832 24.906 158.832 22.854C158.832 20.7513 159.276 18.9273 160.162 17.382C161.049 15.8113 162.278 14.5953 163.848 13.734C165.444 12.8727 167.281 12.4293 169.358 12.404C171.765 12.404 173.728 12.9107 175.248 13.924C176.794 14.912 177.908 16.318 178.592 18.142C179.302 19.9407 179.568 22.0813 179.39 24.564H163.658V21.144H173.918ZM182.684 4.804H188.536V33H182.684V4.804Z" fill="url(#paint0_linear_926_114)"/>
<g clip-path="url(#clip1_926_114)">
<path d="M27.5432 30.7465L25.5714 24.3903C25.9615 23.6838 26.3272 22.9531 26.6594 22.1995C28.6999 17.5703 29.1956 12.6739 29.0303 8.78532L29.0302 8.78496C29.003 8.14378 28.9579 7.52997 28.8986 6.94928L28.8985 6.94891C28.8903 6.868 28.8815 6.78821 28.8728 6.70859C28.87 6.68363 28.8673 6.65841 28.8645 6.63359C28.8562 6.55984 28.8475 6.48703 28.8387 6.4145C28.8351 6.38478 28.8316 6.35503 28.8279 6.32554C28.8192 6.25509 28.8102 6.1853 28.801 6.11597C28.7971 6.08616 28.7931 6.05648 28.7891 6.02688C28.7798 5.9579 28.7703 5.88937 28.7606 5.82161C28.7567 5.79416 28.7527 5.76706 28.7486 5.73985C28.7384 5.66985 28.7281 5.60018 28.7175 5.53146C28.7144 5.5122 28.7113 5.49331 28.7083 5.47412C28.6569 5.14654 28.6012 4.83442 28.5423 4.5391C28.5388 4.5217 28.5354 4.50401 28.5319 4.48675C28.5198 4.42663 28.5074 4.36775 28.495 4.30908C28.4899 4.28464 28.4847 4.26005 28.4795 4.23585C28.4677 4.18059 28.4556 4.12624 28.4435 4.07234C28.4376 4.04617 28.4317 4.02014 28.4258 3.9943C28.4139 3.94226 28.4019 3.89082 28.3898 3.84007C28.3836 3.81402 28.3774 3.78835 28.3711 3.76267C28.359 3.71281 28.3468 3.6633 28.3345 3.61483C28.3284 3.59042 28.3221 3.56664 28.3159 3.54258C28.3033 3.49373 28.2907 3.44492 28.2779 3.39746C28.273 3.3792 28.2681 3.36169 28.2631 3.34363C28.2193 3.18312 28.1748 3.03116 28.1297 2.88775C28.1223 2.86413 28.1149 2.84003 28.1075 2.8169C28.0961 2.78157 28.0848 2.74752 28.0733 2.71332C28.0647 2.68719 28.056 2.66096 28.0472 2.63549C28.0363 2.60359 28.0253 2.57267 28.0144 2.54185C28.0051 2.51574 27.9958 2.48982 27.9865 2.46445C27.9759 2.43547 27.9653 2.40704 27.9546 2.37902C27.9449 2.35334 27.9351 2.32823 27.9253 2.30332C27.915 2.27727 27.9048 2.25139 27.8946 2.22627C27.8842 2.20092 27.8738 2.17652 27.8635 2.1521C27.8538 2.12922 27.844 2.10599 27.8343 2.08391C27.8228 2.05769 27.8113 2.03292 27.7998 2.00799C27.7912 1.98953 27.7827 1.97032 27.7742 1.95251C27.7547 1.91176 27.7353 1.87269 27.7159 1.83556C27.7097 1.82373 27.7036 1.81321 27.6975 1.80175C27.6836 1.77598 27.6698 1.7504 27.6561 1.72656C27.6482 1.71297 27.6405 1.70059 27.6326 1.68759C27.6246 1.67413 27.6164 1.65995 27.6084 1.64719L27.6085 1.64713L27.6074 1.64557L27.5968 1.62949C27.5887 1.61686 27.5806 1.60508 27.5725 1.59319C27.561 1.57633 27.5496 1.55996 27.5382 1.54455C27.5301 1.53359 27.5221 1.5231 27.514 1.51283C27.5027 1.49843 27.4915 1.48481 27.4803 1.4719C27.4725 1.46284 27.4647 1.4539 27.4569 1.44557L27.4484 1.43604L27.446 1.4333C27.4382 1.42526 27.4305 1.41881 27.4228 1.41152L27.4012 1.39134C27.3931 1.38437 27.3851 1.3784 27.3771 1.37229L27.3614 1.36071L27.3468 1.35015C27.329 1.33881 27.3113 1.32917 27.294 1.32223C27.2767 1.31529 27.2573 1.31007 27.2365 1.3059L27.2146 1.303C27.1999 1.30088 27.185 1.29898 27.1688 1.2981L27.1392 1.29771C27.1236 1.29762 27.1078 1.29783 27.091 1.29876C27.0796 1.29942 27.0678 1.30048 27.0559 1.30161C27.0389 1.30321 27.0214 1.3053 27.0033 1.3079C26.9904 1.30976 26.9773 1.31175 26.9638 1.31406C26.945 1.31736 26.9254 1.32132 26.9056 1.32557C26.8914 1.32854 26.8774 1.33145 26.8627 1.33494C26.8415 1.34002 26.8193 1.34598 26.797 1.35203C26.7823 1.35604 26.768 1.35969 26.7528 1.3641C26.7264 1.37183 26.6989 1.38073 26.6712 1.38972C26.6587 1.39377 26.6469 1.39717 26.6342 1.40147C26.5946 1.41494 26.5535 1.42974 26.5113 1.4457C26.4927 1.45276 26.4731 1.46079 26.454 1.46829C26.4286 1.47831 26.4034 1.48816 26.3772 1.499C26.3548 1.50834 26.3315 1.51844 26.3084 1.52841C26.2842 1.53877 26.26 1.54922 26.2351 1.56035C26.2104 1.57138 26.1851 1.58304 26.1596 1.59478C26.1354 1.60601 26.111 1.61739 26.0861 1.62919C26.059 1.64208 26.0317 1.65531 26.0039 1.6689C25.9798 1.68076 25.9553 1.69294 25.9307 1.70537C25.9013 1.72019 25.8718 1.73509 25.8415 1.75067C25.818 1.76282 25.794 1.77559 25.7701 1.78822C25.7378 1.80526 25.7057 1.82215 25.6726 1.84006C25.6519 1.85125 25.6306 1.8632 25.6097 1.87472C25.4773 1.94757 25.3394 2.02699 25.196 2.11313C25.18 2.1227 25.1645 2.13185 25.1485 2.14156C25.1062 2.16714 25.0632 2.19381 25.02 2.22057C24.9992 2.23347 24.9786 2.24614 24.9576 2.25931C24.915 2.286 24.8718 2.31346 24.8285 2.34116C24.8063 2.35536 24.7841 2.36951 24.7617 2.384C24.7177 2.41244 24.6734 2.44136 24.6286 2.47082C24.6067 2.4853 24.5847 2.49992 24.5625 2.51462C24.5164 2.54526 24.4701 2.57624 24.4232 2.60805C24.4027 2.62193 24.382 2.63615 24.3613 2.65023C24.3118 2.6841 24.2622 2.7181 24.2118 2.75317C24.1976 2.76303 24.1832 2.77327 24.169 2.78324C23.922 2.95609 23.6658 3.14334 23.4018 3.34461C23.3864 3.3564 23.3711 3.36792 23.3557 3.37977C23.3003 3.42222 23.2445 3.46554 23.1885 3.5092C23.1671 3.52581 23.1458 3.5424 23.1244 3.55921C23.0702 3.60177 23.0156 3.64494 22.9608 3.68861C22.9378 3.70698 22.9146 3.72546 22.8915 3.74405C22.8369 3.78796 22.7821 3.83219 22.7269 3.87717C22.7039 3.89595 22.6807 3.91499 22.6576 3.93399C22.6011 3.98032 22.5445 4.02692 22.4875 4.07447C22.4683 4.09045 22.4489 4.10683 22.4297 4.12295C22.3683 4.1744 22.3068 4.22607 22.2449 4.27883L22.2446 4.27903C21.8848 4.58567 21.5166 4.91461 21.1437 5.26464L21.1427 5.26559C21.0555 5.34741 20.9681 5.43031 20.8805 5.51443L20.8802 5.51467C18.0725 8.21015 15.0459 12.0909 13.3202 16.8464C13.0393 17.6206 12.7984 18.4014 12.5919 19.1815L6.77301 22.4111L3.62049 29.9186L5.1142 29.8254L7.47616 25.7115L11.6488 25.0617C11.5442 26.7436 11.5833 28.3236 11.7263 29.7151L11.5846 29.6582L11.8397 31.619L11.8801 31.6352C10.7802 33.1915 8.74146 37.0165 10.8975 42.1474C10.8975 42.1474 16.4584 40.3258 17.4704 33.8787L17.5167 33.8973L19.0565 32.6568L18.9151 32.6001L18.9405 32.5781C19.0034 32.5244 19.0665 32.4699 19.1297 32.4148C19.1737 32.3765 19.2176 32.3383 19.2617 32.2993C19.3272 32.2414 19.393 32.1823 19.4589 32.1228C19.5007 32.0851 19.5424 32.0478 19.5843 32.0094C19.6571 31.9428 19.7302 31.8747 19.8034 31.8063C19.8385 31.7734 19.8735 31.7413 19.9088 31.708C20.0162 31.6065 20.1239 31.5032 20.2319 31.3979L20.2348 31.3951C20.8852 30.7599 21.5424 30.0554 22.1877 29.2911L24.7536 32.6451L23.6163 37.2505L24.6312 38.3505L27.5432 30.7465Z" fill="#A5A5A5"/>
<path d="M17.4708 33.8789L16.7311 33.582L15.3651 33.0338L14.6011 34.3252L13.6506 33.9438L13.9914 32.4825L12.6426 31.9412L11.8801 31.6352C10.7802 33.1915 8.74146 37.0165 10.8975 42.1474C10.8975 42.1474 16.4589 40.3261 17.4708 33.8789Z" fill="#EAE325"/>
<path d="M27.5431 30.7465L25.5717 24.3916C24.87 25.6621 24.0865 26.8517 23.2639 27.9434C22.9114 28.4113 22.5517 28.8612 22.1881 29.2918L24.7535 32.6452L23.6163 37.2505L24.6312 38.3505L27.5431 30.7465Z" fill="#3951BE"/>
<path d="M11.8027 23.3438C11.963 21.9864 12.2193 20.5852 12.5906 19.1821L6.77301 22.4111L3.62049 29.9186L5.11421 29.8254L7.47616 25.7115L11.648 25.0618C11.683 24.4994 11.734 23.9256 11.8027 23.3438Z" fill="#3951BE"/>
<path d="M28.8986 6.94928C28.632 4.33912 28.0822 2.39834 27.6084 1.64715L27.6083 1.64687L27.6 1.63384L27.5967 1.62874L27.5884 1.61594L27.5859 1.61221L27.5673 1.58462L27.5672 1.58445L27.5594 1.57317L27.5554 1.56751L27.5479 1.55704L27.5439 1.55146C27.5356 1.54006 27.5273 1.52904 27.5191 1.51842L27.5146 1.51267L27.5078 1.50408L27.5073 1.50349L27.5033 1.49843L27.5024 1.49726L27.4964 1.48992L27.4896 1.48182L27.4861 1.47761L27.4797 1.47017L27.4743 1.46399L27.4683 1.45723L27.4624 1.45074L27.4565 1.44439L27.4548 1.44263L27.4485 1.43589L27.4461 1.43342L27.4412 1.42844L27.4408 1.42805L27.4345 1.42168L27.4293 1.41658L27.4246 1.41208L27.4225 1.41013L27.4178 1.40561L27.4102 1.39872L27.407 1.39583L27.4032 1.3925L27.3956 1.38603L27.3909 1.3821L27.3908 1.38208L27.3832 1.37598L27.3796 1.37315L27.3775 1.37147L27.3708 1.36639L27.3686 1.36483L27.3655 1.3626L27.3574 1.35693L27.3531 1.35402L27.3498 1.35176L27.3491 1.35133L27.3452 1.34889L27.342 1.34685L27.3373 1.34404L27.3341 1.34211L27.331 1.34028L27.3309 1.34023L27.3293 1.33937L27.3218 1.33527L27.3217 1.33515L27.3196 1.33417L27.3163 1.33244L27.3092 1.32893L27.308 1.3284L27.305 1.32701L27.2939 1.32222L27.2806 1.31732L27.2761 1.31589L27.2665 1.31292L27.2611 1.31145L27.2518 1.30905L27.2456 1.30761L27.2367 1.30575L27.2299 1.3044L27.2203 1.30283L27.2138 1.30184L27.2035 1.30055L27.1967 1.29979L27.1835 1.29863L27.1795 1.29826L27.1618 1.2973L27.1542 1.29714L27.1431 1.29687L27.1344 1.29684L27.1239 1.29695L27.1144 1.29717L27.1042 1.29751L27.0939 1.29801L27.0839 1.29864L27.073 1.29941L27.0635 1.3002L27.0515 1.3013L27.043 1.30221C27.0266 1.30402 27.0096 1.30623 26.9921 1.3089L26.9864 1.30979L26.9705 1.3124L26.9632 1.31362L26.947 1.3166L26.9394 1.31803L26.9226 1.32135L26.9161 1.32267L26.8971 1.32667L26.8933 1.32756C26.0507 1.51384 24.2819 2.54276 22.2445 4.27893C22.2839 4.28729 22.3233 4.29579 22.3628 4.30437C22.374 4.30687 22.3854 4.30937 22.3967 4.31184C22.4259 4.31829 22.4552 4.3248 22.4844 4.33136C22.4958 4.33392 22.5072 4.3365 22.5186 4.33909C22.5487 4.34588 22.5788 4.35282 22.609 4.3598C22.6192 4.36217 22.6295 4.36455 22.6397 4.3669C22.6779 4.37588 22.7162 4.38491 22.7545 4.39405L22.7566 4.39455C22.8419 4.41504 22.9274 4.43619 23.0131 4.45791L23.015 4.45843C23.0561 4.46886 23.0974 4.47948 23.1386 4.49023L23.1473 4.49251C23.1887 4.50331 23.2301 4.51425 23.2716 4.52539L23.2721 4.52553C24.0673 4.73859 24.8753 5.00664 25.6849 5.33158C26.8462 5.79757 27.9242 6.34561 28.8986 6.94928Z" fill="#3951BE"/>
<path d="M29.0127 8.42254C27.8792 7.66589 26.6047 6.9964 25.237 6.44754C24.2194 6.03913 23.1928 5.7147 22.181 5.4778C22.008 5.43725 21.8355 5.3993 21.6635 5.36397L21.6602 5.36326C21.6186 5.3547 21.577 5.3463 21.5354 5.33805L21.5305 5.33706C21.4912 5.3293 21.452 5.32167 21.4127 5.31415L21.4007 5.31178C21.3636 5.30473 21.3266 5.29782 21.2895 5.29095L21.2716 5.28762C21.2289 5.27976 21.1862 5.27209 21.1435 5.26453C21.0559 5.34676 20.9681 5.43 20.8801 5.51454C20.9229 5.52163 20.9658 5.52889 21.0087 5.53631L21.0097 5.53649C21.0524 5.54387 21.0952 5.55145 21.138 5.55916L21.1396 5.55947C21.2254 5.5749 21.3113 5.59104 21.3974 5.60782L21.4 5.60835C21.486 5.62511 21.5722 5.64254 21.6584 5.66062L21.6611 5.66124C21.7477 5.67939 21.8344 5.69822 21.9213 5.71769L21.9223 5.71791C22.9815 5.95565 24.0593 6.29109 25.1278 6.71988C26.5491 7.29028 27.8682 7.99144 29.0303 8.7853C29.0251 8.66337 29.0191 8.54251 29.0127 8.42254Z" fill="#3951BE"/>
<path d="M22.0473 17.0455L22.0565 17.0462C22.0683 17.0472 22.0802 17.0481 22.0921 17.049L22.0971 17.0494C22.1255 17.0514 22.1539 17.053 22.1822 17.0543L22.1841 17.0544C22.1979 17.055 22.2115 17.0555 22.2252 17.056L22.2272 17.0561C23.6115 17.1003 24.94 16.2851 25.4871 14.9217C26.1862 13.1798 25.3451 11.2027 23.6084 10.5057C22.2353 9.9547 20.7136 10.3689 19.7911 11.4274L19.7902 11.4284C19.7715 11.4499 19.753 11.4716 19.7348 11.4937L19.7316 11.4975C19.7242 11.5065 19.7168 11.5156 19.7094 11.5247L19.7027 11.5331L19.6834 11.5574L19.6769 11.5656C19.6686 11.5763 19.6603 11.587 19.652 11.5978L19.6491 11.6016C19.6332 11.6226 19.6174 11.6438 19.6019 11.6652L19.5966 11.6725L19.5825 11.6922L19.5773 11.6995C19.5696 11.7104 19.562 11.7215 19.5544 11.7325L19.546 11.7447L19.5349 11.7611L19.5248 11.7761L19.5105 11.7979L19.4978 11.8173L19.4882 11.8324L19.4777 11.8491L19.4687 11.8634C19.4627 11.8729 19.4568 11.8825 19.451 11.8921L19.4444 11.903L19.4314 11.9247L19.4247 11.9361C19.4187 11.9464 19.4127 11.9567 19.4068 11.9669L19.4022 11.9751L19.3874 12.0011L19.3823 12.0103C19.3762 12.0212 19.3702 12.0321 19.3643 12.0431L19.3631 12.0455C19.3572 12.0563 19.3514 12.0671 19.3457 12.0781L19.3416 12.086C19.3362 12.0964 19.3308 12.1069 19.3254 12.1173L19.3235 12.121C19.3176 12.1326 19.3118 12.1444 19.306 12.1562L19.3027 12.1629C19.2976 12.1731 19.2926 12.1835 19.2877 12.1938L19.2849 12.1996C19.2792 12.2115 19.2736 12.2236 19.268 12.2356L19.2658 12.2405C19.2609 12.2511 19.2561 12.2618 19.2513 12.2725L19.2481 12.2795C19.2427 12.2917 19.2373 12.304 19.2321 12.3163L19.2311 12.3185C19.2262 12.3299 19.2214 12.3413 19.2166 12.3528L19.2132 12.3609C19.2081 12.3732 19.2031 12.3854 19.1981 12.3978C19.09 12.6672 19.0187 12.9423 18.9819 13.2174L18.9794 13.2368C18.9751 13.2707 18.9712 13.3047 18.968 13.3387L18.9656 13.3635C18.9602 13.4237 18.9565 13.4838 18.9543 13.5439C18.9536 13.5627 18.953 13.5816 18.9526 13.6003C18.9507 13.7043 18.9535 13.8077 18.961 13.9106C18.962 13.9242 18.9631 13.9378 18.9642 13.9514C18.9653 13.9648 18.9665 13.9781 18.9678 13.9914C18.9705 14.0196 18.9736 14.0479 18.9771 14.076C18.9785 14.088 18.98 14.0999 18.9816 14.1119C18.9837 14.1275 18.9859 14.143 18.9882 14.1586L18.9932 14.1917C18.9958 14.2081 18.9985 14.2245 19.0013 14.2408C19.0076 14.2774 19.0145 14.3138 19.0219 14.3501C19.0256 14.3681 19.0295 14.3861 19.0335 14.4041C19.067 14.5546 19.1106 14.7023 19.164 14.8463C19.1781 14.8846 19.1929 14.9225 19.2084 14.9601C19.2186 14.9851 19.2292 15.0099 19.2401 15.0346C19.262 15.0845 19.2851 15.1338 19.3093 15.1825C19.3154 15.1947 19.3215 15.2068 19.3277 15.2188C19.3401 15.243 19.3527 15.267 19.3657 15.2909C19.3722 15.3028 19.3787 15.3147 19.3854 15.3266C19.3986 15.3502 19.4122 15.3738 19.426 15.3972C19.4329 15.4089 19.4399 15.4205 19.4469 15.4322C19.461 15.4554 19.4754 15.4785 19.4901 15.5014C19.4974 15.5128 19.5048 15.5243 19.5123 15.5356C19.5272 15.5583 19.5425 15.581 19.558 15.6033C19.5735 15.6257 19.5892 15.6479 19.6053 15.6699C19.6213 15.692 19.6377 15.7138 19.6542 15.7354C19.6708 15.7571 19.6878 15.7786 19.7049 15.7998C19.7306 15.8318 19.7569 15.8633 19.7838 15.8943C19.8017 15.9149 19.8199 15.9354 19.8384 15.9557C19.8938 16.0165 19.9516 16.0754 20.0117 16.1323C20.0417 16.1608 20.0723 16.1887 20.1034 16.2161C20.1347 16.2435 20.1664 16.2704 20.1987 16.2967C20.2202 16.3143 20.242 16.3317 20.264 16.3487C20.275 16.3572 20.2862 16.3657 20.2973 16.3741C20.3173 16.3892 20.3376 16.4041 20.358 16.4188C20.3717 16.4287 20.3853 16.4384 20.3991 16.448C20.4106 16.4561 20.4222 16.464 20.4338 16.4719C20.457 16.4877 20.4805 16.5032 20.5043 16.5185C20.6822 16.6329 20.8734 16.7321 21.0769 16.8138C21.0888 16.8186 21.1009 16.8233 21.1129 16.828L21.123 16.8319C21.1336 16.836 21.1441 16.8399 21.1546 16.8439L21.1597 16.8458C21.1717 16.8503 21.1837 16.8546 21.1958 16.8589L21.2052 16.8623C21.2152 16.8659 21.2251 16.8694 21.2352 16.8729L21.2427 16.8755C21.2547 16.8796 21.2667 16.8836 21.2788 16.8876L21.2873 16.8903C21.2972 16.8936 21.3071 16.8967 21.317 16.8999L21.3262 16.9028C21.3382 16.9066 21.3502 16.9103 21.3621 16.9139L21.369 16.916C21.3791 16.919 21.3891 16.9219 21.3992 16.9249L21.41 16.928C21.4205 16.931 21.431 16.934 21.4415 16.9369L21.4504 16.9393C21.461 16.9421 21.4715 16.945 21.4821 16.9477L21.4945 16.951L21.5201 16.9575L21.5319 16.9604C21.5429 16.9631 21.554 16.9658 21.5651 16.9684L21.5792 16.9717L21.6025 16.977L21.6163 16.98C21.6268 16.9824 21.6373 16.9846 21.6479 16.9868L21.6668 16.9906L21.683 16.9939L21.7027 16.9978L21.7191 17.0008C21.7302 17.0029 21.7414 17.005 21.7526 17.0069L21.7669 17.0094L21.7884 17.013L21.7991 17.0148C21.8146 17.0173 21.8302 17.0197 21.8457 17.022L21.8496 17.0225L21.8756 17.0263L21.8813 17.027C21.9085 17.0308 21.9358 17.0341 21.9631 17.0372L21.965 17.0373C21.9784 17.0388 21.9917 17.0402 22.0051 17.0415L22.0158 17.0426C22.0262 17.0436 22.0367 17.0446 22.0473 17.0455Z" fill="#6800BA"/>
<path d="M13.6505 33.9438L13.9913 32.4825L12.6425 31.9412C11.9718 33.2936 11.3923 35.4719 12.5096 38.13C12.5096 38.13 15.6422 37.0356 16.731 33.582L15.365 33.0338L14.601 34.3252L13.6505 33.9438Z" fill="#DA802E"/>
<path d="M24.0869 37.0621L25.3437 32.1588L23.264 27.9434C22.9115 28.4112 22.5517 28.8612 22.1882 29.2917L24.7536 32.6451L23.6163 37.2505L24.6312 38.3505L24.0869 37.0621Z" fill="#3951BE"/>
<path d="M7.38584 24.9521L4.90432 29.3639L3.62042 29.9185L5.11414 29.8253L7.47609 25.7115L11.6479 25.0618C11.6829 24.4993 11.734 23.9256 11.8027 23.3438L7.38584 24.9521Z" fill="#3951BE"/>
<path d="M13.9913 32.4825L14.3876 30.7831L11.7256 29.7148L11.5846 29.6582L11.8397 31.619L11.88 31.6352L12.6426 31.9412L13.9913 32.4825Z" fill="#605E6F"/>
<path d="M16.2534 31.5319L15.365 33.0338L16.731 33.582L17.4707 33.8788L17.5166 33.8973L19.0564 32.6568L18.9155 32.6002L16.2534 31.5319Z" fill="#605E6F"/>
<path d="M22.2445 4.27891C22.2839 4.28727 22.3233 4.29577 22.3628 4.30436C22.374 4.30685 22.3854 4.30935 22.3967 4.31183C22.4259 4.31828 22.4552 4.32478 22.4844 4.33135C22.4958 4.33391 22.5072 4.33648 22.5186 4.33907C22.5487 4.34586 22.5788 4.3528 22.609 4.35978C22.6192 4.36215 22.6295 4.36453 22.6397 4.36689C22.6779 4.37586 22.7162 4.38489 22.7545 4.39403L22.7566 4.39454C22.8419 4.41502 22.9274 4.43617 23.0131 4.45789L23.015 4.45841C23.0561 4.46884 23.0974 4.47946 23.1386 4.49021L23.1473 4.49249C23.1887 4.50329 23.2301 4.51423 23.2716 4.52537L23.2721 4.52551C24.9275 3.15188 26.4803 2.17715 27.6084 1.64715L27.6083 1.64687L27.6 1.63384L27.5967 1.62874L27.5884 1.61594L27.5859 1.61221L27.5673 1.58462L27.5672 1.58445L27.5594 1.57317L27.5554 1.56751L27.5479 1.55704L27.5439 1.55146C27.5356 1.54006 27.5273 1.52904 27.5191 1.51842L27.5146 1.51267L27.5078 1.50408L27.5073 1.50349L27.5033 1.49843L27.5024 1.49726L27.4964 1.48992L27.4896 1.48182L27.4861 1.47761L27.4797 1.47017L27.4743 1.46399L27.4683 1.45723L27.4624 1.45074L27.4565 1.44439L27.4548 1.44263L27.4485 1.43589L27.4461 1.43342L27.4412 1.42844L27.4408 1.42805L27.4345 1.42168L27.4293 1.41658L27.4246 1.41208L27.4225 1.41013L27.4178 1.40561L27.4102 1.39872L27.407 1.39583L27.4032 1.3925L27.3956 1.38603L27.3909 1.3821L27.3908 1.38208L27.3832 1.37598L27.3796 1.37315L27.3775 1.37147L27.3708 1.36639L27.3686 1.36483L27.3655 1.3626L27.3574 1.35693L27.3531 1.35402L27.3498 1.35176L27.3491 1.35133L27.3452 1.34889L27.342 1.34685L27.3373 1.34404L27.3341 1.34211L27.331 1.34028L27.3309 1.34023L27.3293 1.33937L27.3218 1.33527L27.3217 1.33515L27.3196 1.33417L27.3163 1.33244L27.3092 1.32893L27.308 1.3284L27.305 1.32701L27.2939 1.32222L27.2806 1.31732L27.2761 1.31589L27.2665 1.31292L27.2611 1.31145L27.2518 1.30905L27.2456 1.30761L27.2367 1.30575L27.2299 1.3044L27.2203 1.30283L27.2138 1.30184L27.2035 1.30055L27.1967 1.29979L27.1835 1.29863L27.1795 1.29826L27.1618 1.2973L27.1542 1.29714L27.1431 1.29687L27.1344 1.29684L27.1239 1.29695L27.1144 1.29717L27.1042 1.29751L27.0939 1.29801L27.0839 1.29864L27.073 1.29941L27.0635 1.3002L27.0515 1.3013L27.043 1.30221C27.0266 1.30402 27.0096 1.30623 26.9921 1.3089L26.9864 1.30979L26.9705 1.3124L26.9632 1.31362L26.947 1.3166L26.9394 1.31803L26.9226 1.32135L26.9161 1.32267L26.8971 1.32667L26.8933 1.32756C26.0507 1.51381 24.2819 2.54274 22.2445 4.27891Z" fill="#3951BE"/>
<path d="M21.9222 5.71791C22.0086 5.63687 22.0948 5.55683 22.181 5.47781C22.008 5.43733 21.8355 5.39933 21.6635 5.36398L21.6602 5.36326C21.6186 5.35471 21.577 5.34631 21.5354 5.33806L21.5305 5.33707C21.4912 5.32931 21.452 5.32168 21.4127 5.31416L21.4007 5.31179C21.3636 5.30474 21.3266 5.29782 21.2895 5.29096L21.2716 5.28763C21.2289 5.27977 21.1862 5.2721 21.1435 5.26454C21.0559 5.34676 20.9681 5.43001 20.8801 5.51455C20.9229 5.52163 20.9658 5.5289 21.0087 5.53632L21.0097 5.5365C21.0524 5.54388 21.0952 5.55146 21.138 5.55917L21.1396 5.55948C21.2254 5.57491 21.3112 5.59105 21.3973 5.60782L21.4 5.60836C21.486 5.62512 21.5721 5.64255 21.6584 5.66063L21.6611 5.66125C21.7477 5.6794 21.8344 5.69823 21.9213 5.7177L21.9222 5.71791Z" fill="#3951BE"/>
<path d="M21.0073 20.7038L18.438 19.6727L15.5213 25.9219L14.7819 29.0928L14.3877 30.7831L13.9913 32.4825L13.6506 33.9438L14.6011 34.3252L15.365 33.0338L16.2534 31.5319L17.1024 30.0967L18.7948 27.2356L21.0073 20.7038Z" fill="#3951BE"/>
<path d="M13.8734 33.9358L14.4455 34.1654L18.1306 27.0055L20.8922 20.8072L18.4497 19.827L16.1604 26.2148L13.8734 33.9358Z" fill="#3951BE"/>
</g>
</g>
<defs>
<linearGradient id="paint0_linear_926_114" x1="87.3905" y1="-8.30851" x2="213.961" y2="50.9059" gradientUnits="userSpaceOnUse">
<stop offset="0.0714721" stop-color="#2D4DDE"/>
<stop offset="1" stop-color="#9F53DA"/>
</linearGradient>
<clipPath id="clip0_926_114">
<rect width="192" height="53" fill="white"/>
</clipPath>
<clipPath id="clip1_926_114">
<rect width="37.4298" height="46.9191" fill="white" transform="translate(10.4747 -7) rotate(21.8663)"/>
</clipPath>
</defs>
</svg>
