<svg width="148" height="27" viewBox="0 0 148 27" fill="none" xmlns="http://www.w3.org/2000/svg">
<path d="M6.40715 27C4.43941 27 2.87962 26.4284 1.72777 25.2851C0.575924 24.1176 0 22.5973 0 20.7243C0 19.3622 0.311959 18.1946 0.935876 17.2216C1.58379 16.2487 2.50767 15.5068 3.70751 14.9959C4.93135 14.4608 6.39516 14.1932 8.09893 14.1932H11.9864V12.9162C11.9864 12.1622 11.7224 11.5784 11.1945 11.1649C10.6906 10.727 9.95868 10.5081 8.99881 10.5081C8.08693 10.5081 7.35503 10.6905 6.8031 11.0554C6.27517 11.4203 5.9872 11.9554 5.93921 12.6608H0.827891C0.899882 10.6905 1.66778 9.12162 3.13159 7.95406C4.59539 6.78649 6.57513 6.2027 9.0708 6.2027C11.6865 6.2027 13.7262 6.81081 15.19 8.02703C16.6538 9.24324 17.3857 10.9459 17.3857 13.1351V26.6351H12.1664V22.6581H11.3025L12.2744 22.0743C12.2744 23.0716 12.0344 23.9473 11.5545 24.7014C11.0745 25.4311 10.3906 26.0027 9.50274 26.4162C8.63885 26.8054 7.60699 27 6.40715 27ZM8.3149 22.6216C9.44275 22.6216 10.3306 22.3419 10.9785 21.7824C11.6505 21.1986 11.9864 20.4446 11.9864 19.5203V17.477H8.20692C7.24704 17.477 6.50314 17.7203 5.97521 18.2068C5.47127 18.6689 5.21931 19.277 5.21931 20.0311C5.21931 20.7851 5.48327 21.4054 6.0112 21.8919C6.56313 22.3784 7.33103 22.6216 8.3149 22.6216Z" fill="url(#paint0_linear_2483_3)"/>
<path d="M30.5459 27C27.8822 27 25.7945 26.2703 24.2827 24.8108C22.7949 23.3514 22.051 21.3568 22.051 18.827V6.56757H27.4503V18.7905C27.4503 19.9095 27.7143 20.773 28.2422 21.3811C28.7701 21.9649 29.538 22.2568 30.5459 22.2568C31.5298 22.2568 32.2857 21.9649 32.8136 21.3811C33.3655 20.773 33.6415 19.9095 33.6415 18.7905V6.56757H39.0408V18.827C39.0408 21.3811 38.2849 23.3878 36.7731 24.8473C35.2613 26.2824 33.1855 27 30.5459 27Z" fill="url(#paint1_linear_2483_3)"/>
<path d="M54.1087 26.6351C52.093 26.6351 50.5092 26.0514 49.3573 24.8838C48.2055 23.7162 47.6296 22.1108 47.6296 20.0676V11.4932H42.3023V6.56757H47.6296V0.912162H53.0288V6.56757H60.7678V11.4932H53.0288V19.8851C53.0288 20.4203 53.1608 20.8581 53.4248 21.1986C53.7127 21.5392 54.1207 21.7095 54.6486 21.7095H60.5878V26.6351H54.1087Z" fill="url(#paint2_linear_2483_3)"/>
<path d="M73.712 27C71.9603 27 70.4365 26.6716 69.1407 26.0149C67.8448 25.3338 66.837 24.3973 66.1171 23.2054C65.4211 21.9892 65.0732 20.5784 65.0732 18.973V14.2297C65.0732 12.6243 65.4211 11.2257 66.1171 10.0338C66.837 8.81757 67.8448 7.88108 69.1407 7.22433C70.4365 6.54324 71.9603 6.2027 73.712 6.2027C75.4878 6.2027 77.0116 6.54324 78.2834 7.22433C79.5793 7.88108 80.5751 8.81757 81.271 10.0338C81.9909 11.2257 82.3509 12.6243 82.3509 14.2297V18.973C82.3509 20.5784 81.9909 21.9892 81.271 23.2054C80.5751 24.3973 79.5793 25.3338 78.2834 26.0149C77.0116 26.6716 75.4878 27 73.712 27ZM73.712 22.2568C74.7679 22.2568 75.5718 21.977 76.1237 21.4176C76.6757 20.8338 76.9516 20.0189 76.9516 18.973V14.2297C76.9516 13.1595 76.6757 12.3446 76.1237 11.7851C75.5718 11.2257 74.7679 10.9459 73.712 10.9459C72.6802 10.9459 71.8763 11.2257 71.3004 11.7851C70.7484 12.3446 70.4725 13.1595 70.4725 14.2297V18.973C70.4725 20.0189 70.7484 20.8338 71.3004 21.4176C71.8763 21.977 72.6802 22.2568 73.712 22.2568Z" fill="url(#paint3_linear_2483_3)"/>
<path d="M87.5921 26.6351V6.56757H92.8114V10.7635H94.3952L92.6315 12.0405C92.6315 10.2405 93.1474 8.81757 94.1793 7.77162C95.2111 6.72568 96.6029 6.2027 98.3547 6.2027C100.346 6.2027 101.906 6.88379 103.034 8.24595C104.162 9.60811 104.726 11.4811 104.726 13.8649V15.8716H99.3266V14.2297C99.3266 13.1838 99.0506 12.3811 98.4987 11.8216C97.9468 11.2378 97.1669 10.9459 96.159 10.9459C95.1511 10.9459 94.3712 11.2743 93.8193 11.9311C93.2674 12.5635 92.9914 13.4757 92.9914 14.6676V26.6351H87.5921Z" fill="white"/>
<path d="M116.914 27C115.162 27 113.627 26.6716 112.307 26.0149C111.011 25.3338 110.003 24.3973 109.283 23.2054C108.587 21.9892 108.239 20.5784 108.239 18.973V14.2297C108.239 12.6243 108.587 11.2257 109.283 10.0338C110.003 8.81757 111.011 7.88108 112.307 7.22433C113.627 6.54324 115.162 6.2027 116.914 6.2027C118.666 6.2027 120.178 6.54324 121.45 7.22433C122.745 7.88108 123.741 8.81757 124.437 10.0338C125.157 11.2257 125.517 12.6243 125.517 14.2297V17.9514H113.387V18.973C113.387 20.2378 113.675 21.1622 114.251 21.7459C114.85 22.3297 115.738 22.6216 116.914 22.6216C117.682 22.6216 118.354 22.5 118.93 22.2568C119.506 22.0135 119.842 21.6486 119.938 21.1622H125.229C124.845 22.9135 123.897 24.3243 122.385 25.3946C120.874 26.4649 119.05 27 116.914 27ZM120.37 15.0689V14.1568C120.37 12.9162 120.082 11.9554 119.506 11.2743C118.954 10.5932 118.09 10.2527 116.914 10.2527C115.738 10.2527 114.85 10.6054 114.251 11.3108C113.675 12.0162 113.387 12.9892 113.387 14.2297V14.7041L120.73 14.6311L120.37 15.0689Z" fill="white"/>
<path d="M141.881 26.6351C140.489 26.6351 139.265 26.3432 138.209 25.7595C137.153 25.1514 136.326 24.3122 135.726 23.2419C135.15 22.1716 134.862 20.9311 134.862 19.5203V4.92568H128.563V0H140.261V19.3378C140.261 20.0432 140.453 20.6149 140.837 21.0527C141.245 21.4905 141.773 21.7095 142.421 21.7095H148V26.6351H141.881Z" fill="white"/>
<defs>
<linearGradient id="paint0_linear_2483_3" x1="0" y1="13.5" x2="148" y2="13.5" gradientUnits="userSpaceOnUse">
<stop stop-color="#00B3FF"/>
<stop offset="1" stop-color="#44EA9A"/>
</linearGradient>
<linearGradient id="paint1_linear_2483_3" x1="0" y1="13.5" x2="148" y2="13.5" gradientUnits="userSpaceOnUse">
<stop stop-color="#00B3FF"/>
<stop offset="1" stop-color="#44EA9A"/>
</linearGradient>
<linearGradient id="paint2_linear_2483_3" x1="0" y1="13.5" x2="148" y2="13.5" gradientUnits="userSpaceOnUse">
<stop stop-color="#00B3FF"/>
<stop offset="1" stop-color="#44EA9A"/>
</linearGradient>
<linearGradient id="paint3_linear_2483_3" x1="0" y1="13.5" x2="148" y2="13.5" gradientUnits="userSpaceOnUse">
<stop stop-color="#00B3FF"/>
<stop offset="1" stop-color="#44EA9A"/>
</linearGradient>
</defs>
</svg>
