<svg width="227" height="68" viewBox="0 0 227 68" fill="none" xmlns="http://www.w3.org/2000/svg">
<path d="M59.618 49.42C57.322 49.42 55.502 48.762 54.158 47.446C52.814 46.102 52.142 44.352 52.142 42.196C52.142 40.628 52.506 39.284 53.234 38.164C53.99 37.044 55.068 36.19 56.468 35.602C57.896 34.986 59.604 34.678 61.592 34.678H66.128V33.208C66.128 32.34 65.82 31.668 65.204 31.192C64.616 30.688 63.762 30.436 62.642 30.436C61.578 30.436 60.724 30.646 60.08 31.066C59.464 31.486 59.128 32.102 59.072 32.914H53.108C53.192 30.646 54.088 28.84 55.796 27.496C57.504 26.152 59.814 25.48 62.726 25.48C65.778 25.48 68.158 26.18 69.866 27.58C71.574 28.98 72.428 30.94 72.428 33.46V49H66.338V44.422H65.33L66.464 43.75C66.464 44.898 66.184 45.906 65.624 46.774C65.064 47.614 64.266 48.272 63.23 48.748C62.222 49.196 61.018 49.42 59.618 49.42ZM61.844 44.38C63.16 44.38 64.196 44.058 64.952 43.414C65.736 42.742 66.128 41.874 66.128 40.81V38.458H61.718C60.598 38.458 59.73 38.738 59.114 39.298C58.526 39.83 58.232 40.53 58.232 41.398C58.232 42.266 58.54 42.98 59.156 43.54C59.8 44.1 60.696 44.38 61.844 44.38ZM87.7836 49.42C84.6756 49.42 82.2396 48.58 80.4756 46.9C78.7396 45.22 77.8716 42.924 77.8716 40.012V25.9H84.1716V39.97C84.1716 41.258 84.4796 42.252 85.0956 42.952C85.7116 43.624 86.6076 43.96 87.7836 43.96C88.9316 43.96 89.8136 43.624 90.4296 42.952C91.0736 42.252 91.3956 41.258 91.3956 39.97V25.9H97.6956V40.012C97.6956 42.952 96.8136 45.262 95.0496 46.942C93.2856 48.594 90.8636 49.42 87.7836 49.42ZM115.277 49C112.925 49 111.077 48.328 109.733 46.984C108.389 45.64 107.717 43.792 107.717 41.44V31.57H101.501V25.9H107.717V19.39H114.017V25.9H123.047V31.57H114.017V41.23C114.017 41.846 114.171 42.35 114.479 42.742C114.815 43.134 115.291 43.33 115.907 43.33H122.837V49H115.277ZM138.151 49.42C136.107 49.42 134.329 49.042 132.817 48.286C131.305 47.502 130.129 46.424 129.289 45.052C128.477 43.652 128.071 42.028 128.071 40.18V34.72C128.071 32.872 128.477 31.262 129.289 29.89C130.129 28.49 131.305 27.412 132.817 26.656C134.329 25.872 136.107 25.48 138.151 25.48C140.223 25.48 142.001 25.872 143.485 26.656C144.997 27.412 146.159 28.49 146.971 29.89C147.811 31.262 148.231 32.872 148.231 34.72V40.18C148.231 42.028 147.811 43.652 146.971 45.052C146.159 46.424 144.997 47.502 143.485 48.286C142.001 49.042 140.223 49.42 138.151 49.42ZM138.151 43.96C139.383 43.96 140.321 43.638 140.965 42.994C141.609 42.322 141.931 41.384 141.931 40.18V34.72C141.931 33.488 141.609 32.55 140.965 31.906C140.321 31.262 139.383 30.94 138.151 30.94C136.947 30.94 136.009 31.262 135.337 31.906C134.693 32.55 134.371 33.488 134.371 34.72V40.18C134.371 41.384 134.693 42.322 135.337 42.994C136.009 43.638 136.947 43.96 138.151 43.96Z" fill="url(#paint0_linear_337_214)"/>
<path d="M154.346 49V25.9H160.436V30.73H162.284L160.226 32.2C160.226 30.128 160.828 28.49 162.032 27.286C163.236 26.082 164.86 25.48 166.904 25.48C169.228 25.48 171.048 26.264 172.364 27.832C173.68 29.4 174.338 31.556 174.338 34.3V36.61H168.038V34.72C168.038 33.516 167.716 32.592 167.072 31.948C166.428 31.276 165.518 30.94 164.342 30.94C163.166 30.94 162.256 31.318 161.612 32.074C160.968 32.802 160.646 33.852 160.646 35.224V49H154.346ZM188.56 49.42C186.516 49.42 184.724 49.042 183.184 48.286C181.672 47.502 180.496 46.424 179.656 45.052C178.844 43.652 178.438 42.028 178.438 40.18V34.72C178.438 32.872 178.844 31.262 179.656 29.89C180.496 28.49 181.672 27.412 183.184 26.656C184.724 25.872 186.516 25.48 188.56 25.48C190.604 25.48 192.368 25.872 193.852 26.656C195.364 27.412 196.526 28.49 197.338 29.89C198.178 31.262 198.598 32.872 198.598 34.72V39.004H184.444V40.18C184.444 41.636 184.78 42.7 185.452 43.372C186.152 44.044 187.188 44.38 188.56 44.38C189.456 44.38 190.24 44.24 190.912 43.96C191.584 43.68 191.976 43.26 192.088 42.7H198.262C197.814 44.716 196.708 46.34 194.944 47.572C193.18 48.804 191.052 49.42 188.56 49.42ZM192.592 35.686V34.636C192.592 33.208 192.256 32.102 191.584 31.318C190.94 30.534 189.932 30.142 188.56 30.142C187.188 30.142 186.152 30.548 185.452 31.36C184.78 32.172 184.444 33.292 184.444 34.72V35.266L193.012 35.182L192.592 35.686ZM217.692 49C216.068 49 214.64 48.664 213.408 47.992C212.176 47.292 211.21 46.326 210.51 45.094C209.838 43.862 209.502 42.434 209.502 40.81V24.01H202.152V18.34H215.802V40.6C215.802 41.412 216.026 42.07 216.474 42.574C216.95 43.078 217.566 43.33 218.322 43.33H224.832V49H217.692Z" fill="white"/>
<path d="M15.4219 23.9609C14.2734 24.4531 13.125 25.0273 12.1406 25.8477L11.6484 26.2578L10.9922 26.0938L5.66016 24.3711L2.13281 30.5234L6.23438 34.2148L6.72656 34.707L6.64453 35.3633C6.5625 36.0195 6.5625 36.6758 6.5625 37.332C6.5625 37.9062 6.5625 38.5625 6.64453 39.2188L6.72656 39.875L6.23438 40.3672L2.13281 44.0586L5.66016 50.2109L10.9922 48.4883L11.6484 48.3242L12.1406 48.7344C13.125 49.4727 14.2734 50.1289 15.5039 50.6211L16.0781 50.8672L16.2422 51.6055L17.3906 56.9375H24.5273L25.6758 51.6055L25.8398 50.8672L26.4961 50.6211C27.6445 50.1289 28.793 49.4727 29.7773 48.7344L30.3516 48.3242L31.0078 48.4883L36.2578 50.2109L39.7852 44.0586L35.6836 40.3672L35.1914 39.875L35.2734 39.2188C35.3555 38.5625 35.3555 37.9062 35.3555 37.25C35.3555 36.5938 35.3555 36.0195 35.2734 35.3633L35.1914 34.707L35.6836 34.2148L39.7852 30.5234L36.2578 24.3711L30.9258 26.0938L30.2695 26.2578L29.7773 25.8477C28.793 25.1094 27.6445 24.4531 26.4961 23.9609L25.8398 23.6328L25.6758 22.9766L24.5273 17.5625H17.3906L16.2422 22.9766L16.0781 23.6328L15.4219 23.9609ZM25.5938 16.25L26.9883 22.7305C28.3008 23.2227 29.4492 23.9609 30.5977 24.7812L36.832 22.8125L41.4258 30.7695L36.5859 35.1992C36.668 35.8555 36.75 36.5938 36.75 37.332C36.75 37.9883 36.668 38.7266 36.5859 39.3828L41.4258 43.8125L36.832 51.7695L30.5977 49.8008C29.4492 50.6211 28.3008 51.3594 26.9883 51.8516L25.5938 58.25H16.4062L14.9297 51.8516C13.6992 51.2773 12.4688 50.6211 11.3203 49.8008L5.08594 51.7695L0.492188 43.8125L5.33203 39.3828C5.25 38.7266 5.25 37.9883 5.25 37.25C5.25 36.5938 5.25 35.8555 5.33203 35.1992L0.492188 30.7695L5.08594 22.8125L11.3203 24.7812C12.4688 23.9609 13.6992 23.2227 14.9297 22.7305L16.4062 16.25H25.5938ZM15.75 37.25C15.75 39.1367 16.7344 40.8594 18.375 41.8438C19.9336 42.7461 21.9844 42.7461 23.625 41.8438C25.1836 40.8594 26.25 39.1367 26.25 37.25C26.25 35.4453 25.1836 33.7227 23.625 32.7383C21.9844 31.8359 19.9336 31.8359 18.375 32.7383C16.7344 33.7227 15.75 35.4453 15.75 37.25ZM27.5625 37.25C27.5625 39.6289 26.25 41.7617 24.2812 42.9922C22.2305 44.1406 19.6875 44.1406 17.7188 42.9922C15.668 41.7617 14.4375 39.6289 14.4375 37.25C14.4375 34.9531 15.668 32.8203 17.7188 31.5898C19.6875 30.4414 22.2305 30.4414 24.2812 31.5898C26.25 32.8203 27.5625 34.9531 27.5625 37.25Z" fill="white"/>
<defs>
<linearGradient id="paint0_linear_337_214" x1="50" y1="34" x2="227" y2="34" gradientUnits="userSpaceOnUse">
<stop stop-color="#00B3FF"/>
<stop offset="1" stop-color="#44EA9A"/>
</linearGradient>
</defs>
</svg>
