<svg width="248" height="61" viewBox="0 0 248 61" fill="none" xmlns="http://www.w3.org/2000/svg">
<path d="M240.44 43C238.928 43 237.598 42.692 236.45 42.076C235.33 41.46 234.448 40.592 233.804 39.472C233.16 38.324 232.838 37.008 232.838 35.524V17.086H225.236V12.34H238.088V35.398C238.088 36.266 238.326 36.966 238.802 37.498C239.306 38.002 239.978 38.254 240.818 38.254H247.58V43H240.44Z" fill="black"/>
<path d="M211.56 43.42C209.6 43.42 207.892 43.042 206.436 42.286C204.98 41.53 203.846 40.466 203.034 39.094C202.25 37.694 201.858 36.056 201.858 34.18V28.72C201.858 26.844 202.25 25.22 203.034 23.848C203.846 22.448 204.98 21.37 206.436 20.614C207.892 19.858 209.6 19.48 211.56 19.48C213.492 19.48 215.172 19.858 216.6 20.614C218.056 21.37 219.176 22.434 219.96 23.806C220.772 25.15 221.178 26.732 221.178 28.552V32.752H206.898V34.348C206.898 35.916 207.304 37.106 208.116 37.918C208.928 38.702 210.076 39.094 211.56 39.094C212.652 39.094 213.576 38.912 214.332 38.548C215.116 38.156 215.578 37.596 215.718 36.868H220.926C220.562 38.856 219.526 40.452 217.818 41.656C216.11 42.832 214.024 43.42 211.56 43.42ZM216.138 29.77V28.51C216.138 26.914 215.746 25.682 214.962 24.814C214.206 23.946 213.072 23.512 211.56 23.512C210.048 23.512 208.886 23.96 208.074 24.856C207.29 25.724 206.898 26.956 206.898 28.552V29.35L216.516 29.308L216.138 29.77Z" fill="black"/>
<path d="M177.808 43V19.9H182.932V24.562H184.36L182.806 25.822C182.806 23.862 183.38 22.322 184.528 21.202C185.704 20.054 187.3 19.48 189.316 19.48C191.668 19.48 193.502 20.236 194.818 21.748C196.134 23.26 196.792 25.374 196.792 28.09V30.274H191.542V28.342C191.542 26.914 191.178 25.836 190.45 25.108C189.722 24.38 188.686 24.016 187.342 24.016C185.97 24.016 184.906 24.436 184.15 25.276C183.422 26.116 183.058 27.306 183.058 28.846V43H177.808Z" fill="black"/>
<path d="M161.151 43.378C159.191 43.378 157.483 43 156.027 42.244C154.571 41.488 153.451 40.424 152.667 39.052C151.883 37.652 151.491 36.014 151.491 34.138V28.762C151.491 26.858 151.883 25.22 152.667 23.848C153.451 22.476 154.571 21.412 156.027 20.656C157.483 19.9 159.191 19.522 161.151 19.522C163.139 19.522 164.847 19.9 166.275 20.656C167.731 21.412 168.851 22.476 169.635 23.848C170.419 25.22 170.811 26.858 170.811 28.762V34.138C170.811 36.014 170.419 37.652 169.635 39.052C168.851 40.424 167.731 41.488 166.275 42.244C164.847 43 163.139 43.378 161.151 43.378ZM161.151 38.8C162.551 38.8 163.629 38.422 164.385 37.666C165.169 36.882 165.561 35.762 165.561 34.306V28.594C165.561 27.11 165.169 25.99 164.385 25.234C163.629 24.478 162.551 24.1 161.151 24.1C159.779 24.1 158.701 24.478 157.917 25.234C157.133 25.99 156.741 27.11 156.741 28.594V34.306C156.741 35.762 157.133 36.882 157.917 37.666C158.701 38.422 159.779 38.8 161.151 38.8Z" fill="black"/>
<path d="M138.277 43C136.121 43 134.399 42.384 133.111 41.152C131.851 39.892 131.221 38.198 131.221 36.07V24.646H124.837V19.9H131.221V13.39H136.513V19.9H145.711V24.646H136.513V35.944C136.513 36.616 136.695 37.176 137.059 37.624C137.451 38.044 137.983 38.254 138.655 38.254H145.501V43H138.277Z" fill="black"/>
<path d="M110.784 43.42C107.844 43.42 105.534 42.608 103.854 40.984C102.174 39.332 101.334 37.092 101.334 34.264V19.9H106.584V34.222C106.584 35.678 106.948 36.812 107.676 37.624C108.404 38.436 109.44 38.842 110.784 38.842C112.1 38.842 113.122 38.436 113.85 37.624C114.606 36.812 114.984 35.678 114.984 34.222V19.9H120.234V34.264C120.234 37.092 119.38 39.332 117.672 40.984C115.964 42.608 113.668 43.42 110.784 43.42Z" fill="black"/>
<path d="M83.038 43.42C80.686 43.42 78.824 42.762 77.452 41.446C76.108 40.102 75.436 38.352 75.436 36.196C75.436 34.684 75.786 33.382 76.486 32.29C77.186 31.198 78.18 30.358 79.468 29.77C80.784 29.154 82.324 28.846 84.088 28.846H89.716V27.208C89.716 26.088 89.366 25.234 88.666 24.646C87.994 24.03 86.986 23.722 85.642 23.722C84.41 23.722 83.416 23.96 82.66 24.436C81.932 24.912 81.54 25.584 81.484 26.452H76.444C76.556 24.352 77.424 22.672 79.048 21.412C80.7 20.124 82.912 19.48 85.684 19.48C88.624 19.48 90.906 20.166 92.53 21.538C94.154 22.91 94.966 24.842 94.966 27.334V43H89.842V38.59H89.002L89.926 37.834C89.926 38.982 89.646 39.976 89.086 40.816C88.526 41.628 87.728 42.272 86.692 42.748C85.656 43.196 84.438 43.42 83.038 43.42ZM84.718 39.136C86.258 39.136 87.476 38.758 88.372 38.002C89.268 37.246 89.716 36.238 89.716 34.978V32.248H84.34C83.192 32.248 82.282 32.57 81.61 33.214C80.938 33.83 80.602 34.656 80.602 35.692C80.602 36.728 80.952 37.568 81.652 38.212C82.38 38.828 83.402 39.136 84.718 39.136Z" fill="black"/>
<path fill-rule="evenodd" clip-rule="evenodd" d="M61 30.5C61 47.3447 47.3447 61 30.5 61C21.1021 61 12.697 56.7496 7.10215 50.0662H17.8812C18.6228 52.1174 20.5863 53.5834 22.8939 53.5834C25.837 53.5834 28.2228 51.1976 28.2228 48.2545C28.2228 45.3114 25.837 42.9256 22.8939 42.9256C20.5863 42.9256 18.6228 44.3916 17.8812 46.4428H4.49348C1.64349 41.8037 0 36.3438 0 30.5C0 13.6553 13.6553 0 30.5 0C41.4841 0 51.1121 5.80638 56.482 14.5172H43.9883C43.2468 12.466 41.2832 11 38.9756 11C36.0326 11 33.6467 13.3858 33.6467 16.3289C33.6467 19.272 36.0326 21.6578 38.9756 21.6578C41.2832 21.6578 43.2468 20.1918 43.9883 18.1406H58.3919C60.0685 21.9185 61 26.1005 61 30.5ZM11 32.3289C11 35.272 13.3858 37.6578 16.3289 37.6578C18.6365 37.6578 20.6 36.1918 21.3416 34.1406H39.8812C40.6228 36.1918 42.5863 37.6578 44.8939 37.6578C47.837 37.6578 50.2228 35.272 50.2228 32.3289C50.2228 29.3858 47.837 27 44.8939 27C42.5863 27 40.6228 28.466 39.8812 30.5172H21.3416C20.6 28.466 18.6365 27 16.3289 27C13.3858 27 11 29.3858 11 32.3289Z" fill="black"/>
</svg>
