<svg xmlns="http://www.w3.org/2000/svg" width="192" height="48" fill="none" viewBox="0 0 192 48"><g clip-path="url(#a)"><path fill="url(#b)" d="M52.476 8.4h6.156L69.956 35h-6.384l-8.208-20.596L47.118 35h-6.232l11.59-26.6Zm-5.13 16.606H63.04v4.674H47.346v-4.674Zm28.856.798c0 1.317.342 2.356 1.026 3.116.684.76 1.622 1.14 2.812 1.14 1.419-.025 2.52-.545 3.306-1.558.81-1.013 1.216-2.293 1.216-3.838h1.406c0 2.381-.342 4.357-1.026 5.928-.658 1.545-1.608 2.698-2.85 3.458-1.216.76-2.672 1.153-4.37 1.178-1.52 0-2.824-.317-3.914-.95-1.09-.659-1.938-1.57-2.546-2.736-.608-1.165-.912-2.546-.912-4.142V14.594h5.852v11.21Zm8.36-11.21h5.814V35h-5.814V14.594Zm17.448 13.452c0 .912.178 1.558.532 1.938.355.355.836.52 1.444.494.38 0 .798-.063 1.254-.19.456-.127.95-.317 1.482-.57l1.216 4.104c-.76.456-1.596.81-2.508 1.064-.912.253-1.849.38-2.812.38-1.216 0-2.318-.228-3.306-.684a5.19 5.19 0 0 1-2.28-2.09c-.557-.937-.836-2.103-.836-3.496V9.844h5.814v18.202Zm-8.664-12.578h14.212v3.914H93.346v-3.914Zm26.443-1.064c2.179 0 4.092.43 5.738 1.292 1.647.861 2.926 2.077 3.838 3.648.912 1.545 1.368 3.357 1.368 5.434s-.456 3.901-1.368 5.472c-.912 1.57-2.191 2.787-3.838 3.648-1.646.861-3.559 1.292-5.738 1.292-2.178 0-4.104-.43-5.776-1.292-1.646-.861-2.926-2.077-3.838-3.648-.912-1.57-1.368-3.395-1.368-5.472 0-2.077.456-3.889 1.368-5.434.912-1.57 2.192-2.787 3.838-3.648 1.672-.861 3.598-1.292 5.776-1.292Zm0 4.674c-1.013 0-1.912.24-2.698.722-.76.481-1.355 1.165-1.786 2.052-.43.861-.646 1.862-.646 3.002 0 1.14.216 2.153.646 3.04.431.861 1.026 1.545 1.786 2.052.786.481 1.685.722 2.698.722 1.014 0 1.9-.24 2.66-.722a5.21 5.21 0 0 0 1.786-2.052c.431-.887.646-1.9.646-3.04 0-1.14-.215-2.14-.646-3.002-.43-.887-1.026-1.57-1.786-2.052-.76-.481-1.646-.722-2.66-.722ZM145.508 8.4c3.471 0 6.156.81 8.056 2.432 1.926 1.596 2.888 3.85 2.888 6.764 0 3.065-.962 5.46-2.888 7.182-1.9 1.697-4.585 2.546-8.056 2.546h-5.548V35h-6.004V8.4h11.552Zm0 14.06c1.647 0 2.926-.38 3.838-1.14.938-.785 1.406-1.963 1.406-3.534 0-1.52-.468-2.66-1.406-3.42-.912-.76-2.191-1.14-3.838-1.14h-5.548v9.234h5.548Zm-.722 2.622h5.852l6.46 9.918h-6.802l-5.51-9.918Zm29.132-1.938c-.025-.937-.228-1.735-.608-2.394a3.781 3.781 0 0 0-1.558-1.596c-.684-.38-1.469-.57-2.356-.57-.988 0-1.849.253-2.584.76-.734.507-1.304 1.203-1.71 2.09-.405.887-.608 1.913-.608 3.078 0 1.317.228 2.445.684 3.382.456.937 1.102 1.66 1.938 2.166.836.507 1.799.76 2.888.76 1.976 0 3.699-.735 5.168-2.204l3.078 3.04c-1.013 1.14-2.267 2.014-3.762 2.622-1.469.608-3.128.912-4.978.912-2.178 0-4.066-.43-5.662-1.292-1.596-.861-2.837-2.065-3.724-3.61-.861-1.57-1.292-3.382-1.292-5.434 0-2.103.444-3.927 1.33-5.472a9.29 9.29 0 0 1 3.686-3.648c1.596-.861 3.433-1.305 5.51-1.33 2.407 0 4.37.507 5.89 1.52 1.546.988 2.66 2.394 3.344 4.218.71 1.799.976 3.94.798 6.422h-15.732v-3.42h10.26Zm8.766-16.34h5.852V35h-5.852V6.804Z"/><g clip-path="url(#c)"><path fill="#D2D2D2" d="M28.815 32.293 27.481 25.3c.5-.704.976-1.437 1.42-2.198 2.724-4.676 3.838-9.821 4.129-13.975a32.16 32.16 0 0 0 .082-2.226v-.08l-.002-.237V6.49l-.004-.226-.002-.097a25.954 25.954 0 0 0-.006-.221l-.002-.089-.009-.225-.003-.062a24.57 24.57 0 0 0-.087-1.264l-.007-.08a19.582 19.582 0 0 0-.08-.677l-.011-.08a14.15 14.15 0 0 0-.023-.158l-.01-.059a13.56 13.56 0 0 0-.086-.5l-.016-.079a8.381 8.381 0 0 0-.023-.114l-.019-.086-.023-.103a9.309 9.309 0 0 0-.067-.264l-.023-.086a6.605 6.605 0 0 0-.024-.082l-.023-.076a5.135 5.135 0 0 0-.028-.085l-.02-.062a4.065 4.065 0 0 0-.048-.132l-.016-.038a2.897 2.897 0 0 0-.035-.085l-.02-.044-.02-.046-.002-.002-.009-.018a2.005 2.005 0 0 0-.105-.181.891.891 0 0 0-.022-.031l-.007-.011-.003-.004c-.007-.01-.014-.017-.022-.026l-.02-.024-.024-.023-.015-.014-.014-.013a.353.353 0 0 0-.053-.036.354.354 0 0 0-.06-.024l-.022-.006a.534.534 0 0 0-.048-.01L31.917.94a.82.82 0 0 0-.188-.003l-.063.005-.047.005a2.517 2.517 0 0 0-.072.01L31.5.966c-.03.005-.06.01-.09.017l-.04.008-.137.032-.063.018-.086.023-.076.023a5.173 5.173 0 0 0-.34.113 7.388 7.388 0 0 0-.183.067l-.08.032-.11.043-.072.03c-.15.06-.305.129-.468.203L29.7 1.6l-.146.068-.07.034c-.05.023-.099.047-.148.072l-.076.037a22.573 22.573 0 0 0-.387.198l-.07.037-.172.092-.049.026c-.283.154-.578.323-.883.505l-.053.032a30.583 30.583 0 0 0-.728.453l-.08.052a28.66 28.66 0 0 0-.198.13l-.067.044a33.063 33.063 0 0 0-1.504 1.06h-.002l-.308.233c-3.308 2.529-6.991 6.291-9.396 11.139a29.32 29.32 0 0 0-1.054 2.395l-6.573 2.735-4.251 7.602 1.599.08 3.004-4.09 4.513-.19a30.587 30.587 0 0 0-.475 4.956l-.144-.077.036 2.115.04.022c-1.355 1.522-3.98 5.343-2.304 11.056 0 0 6.13-1.27 7.978-8.001l.047.025 1.786-1.134-.144-.077.03-.02.22-.151.155-.107.23-.164.147-.106c.086-.062.172-.125.258-.19l.123-.091c.127-.095.254-.192.381-.291l.003-.003a32.043 32.043 0 0 0 2.329-2.002l2.325 3.873-1.761 4.76.947 1.29 4.007-7.734Z"/><path fill="#E7DB00" d="m17.733 34.415-.751-.404-1.386-.747-.967 1.281-.965-.519.537-1.513-1.368-.737-.774-.416c-1.356 1.522-3.982 5.343-2.306 11.056 0 0 6.13-1.269 7.98-8Z"/><path fill="#3951BE" d="m28.815 32.293-1.334-6.991a32.205 32.205 0 0 1-2.879 3.499c-.43.455-.867.89-1.305 1.304l2.325 3.872-1.761 4.76.947 1.29 4.007-7.734ZM12.971 22.537a32.211 32.211 0 0 1 1.336-4.33l-6.57 2.735-4.252 7.602 1.599.08 3.004-4.09 4.512-.19c.105-.593.228-1.197.371-1.807ZM33.11 7.16c.03-2.807-.322-4.935-.736-5.79v-.001l-.007-.015-.003-.006-.007-.014-.002-.005-.017-.031-.007-.013-.004-.007-.006-.012-.004-.006a1.512 1.512 0 0 0-.022-.038l-.004-.007-.006-.01h-.001l-.004-.007-.006-.01-.006-.009-.003-.005-.006-.008-.005-.008-.006-.007-.005-.008-.006-.008-.002-.002-.005-.008-.003-.002-.004-.006-.006-.008-.005-.006-.005-.006-.002-.002-.004-.005-.008-.009-.003-.003-.003-.004-.008-.008-.004-.005-.008-.007-.003-.004-.002-.002-.007-.006-.002-.002-.003-.002-.008-.007-.004-.004-.003-.003-.005-.003-.003-.003-.005-.004-.003-.002-.003-.002-.002-.001-.007-.006-.002-.001L32.102 1l-.008-.005-.004-.003-.011-.006-.014-.007-.004-.002-.01-.004-.006-.002-.01-.004-.006-.002-.009-.003-.007-.003-.01-.002-.007-.002-.01-.003-.008-.001-.014-.003-.004-.001-.018-.003-.009-.001-.011-.002-.01-.001-.01-.001-.01-.001h-.012l-.01-.002h-.023l-.01-.001h-.077l-.007.001h-.017l-.008.001-.017.001-.008.001-.019.002h-.007l-.02.002h-.005c-.918.098-2.921.98-5.295 2.58l.123.042.035.012a29.612 29.612 0 0 1 .37.13h.002c.089.033.177.065.265.099h.002l.128.05.009.003.128.05c.82.322 1.647.703 2.469 1.146A22.334 22.334 0 0 1 33.11 7.16Z"/><path fill="#73798F" d="m24.616 17.07.01.002.037.008h.006l.09.016h.002l.043.007h.002a3.636 3.636 0 0 0 3.721-1.878 3.63 3.63 0 0 0-1.467-4.919 3.627 3.627 0 0 0-4.168.522h-.001l-.067.064-.004.003-.027.027-.008.008-.023.023-.008.008-.03.031-.004.004-.058.062-.006.007-.018.02-.006.006a4.37 4.37 0 0 0-.029.033l-.01.012-.014.016-.012.015-.018.021-.016.02-.012.014-.013.017-.011.014-.023.028-.008.01-.016.022-.009.012-.022.03-.006.008-.02.026-.006.01-.023.032-.001.003-.023.032-.005.008-.021.031-.002.004a3.08 3.08 0 0 0-.023.035l-.005.007-.02.031-.003.006a2.2 2.2 0 0 0-.022.036l-.003.005-.02.033-.004.006-.021.038-.001.002a2.375 2.375 0 0 0-.02.035l-.005.008a3.65 3.65 0 0 0-.349.883l-.004.02a3.668 3.668 0 0 0-.024.107l-.006.026a3.549 3.549 0 0 0-.07.58l-.002.045a3.07 3.07 0 0 0-.001.134v.038l.002.05.001.037.003.053c.002.04.005.079.009.118l.005.06a3.63 3.63 0 0 0 .247.982l.017.04a4.015 4.015 0 0 0 .09.198l.02.04a3.547 3.547 0 0 0 .459.694 3.75 3.75 0 0 0 .374.382l.034.03a3.542 3.542 0 0 0 .643.44l.036.02.01.005.033.016.005.003.037.018.009.005.03.015.008.003.037.017.009.004.03.014.01.004.037.016.007.003.03.014.012.004.032.013.01.004.032.013.013.005.026.01.013.004a2 2 0 0 0 .034.013l.015.005.024.008.014.005.033.011.02.006.016.006.02.006.018.006.035.01.015.005.022.006.011.003.049.013.004.001.027.007.006.002.086.02h.002l.042.01.011.003.033.006Z"/><path fill="#DA2E95" d="m13.664 34.026.537-1.513-1.368-.737c-.876 1.357-1.753 3.603-.884 6.563 0 0 3.461-.788 5.033-4.328l-1.386-.747-.967 1.281-.965-.519Z"/><path fill="#605E6F" d="m14.201 32.514.625-1.76-2.701-1.454-.143-.077.036 2.115.04.022.775.416 1.368.738ZM16.72 31.774l-1.124 1.49 1.386.747.75.404.047.025 1.786-1.134-.143-.077-2.702-1.455Z"/><path fill="#3951BE" d="m26.357 3.523.123.042.035.012.09.03c.012.005.024.01.036.013a16.555 16.555 0 0 1 .244.087h.002c.089.033.177.065.265.099h.002l.128.05.009.003.128.05c1.925-1.262 3.692-2.112 4.955-2.54l-.007-.015-.003-.006-.007-.014-.002-.005-.017-.031-.007-.013-.004-.007-.006-.012-.004-.006a1.512 1.512 0 0 0-.022-.038l-.004-.007-.006-.01h-.001l-.004-.007-.006-.01-.006-.009-.003-.005-.006-.008-.005-.008-.006-.007-.005-.008-.006-.008-.002-.002-.005-.008-.003-.002-.004-.006-.006-.008-.005-.006-.005-.006-.002-.002-.004-.005-.008-.009-.003-.003-.003-.004-.008-.008-.004-.005-.008-.007-.003-.004-.002-.002-.007-.006-.002-.002-.003-.002-.008-.007-.004-.004-.003-.003-.005-.003-.003-.003-.005-.004-.003-.002-.003-.002-.002-.001-.007-.006-.002-.001L32.102 1l-.008-.005-.004-.003-.011-.006-.014-.007-.004-.002-.01-.004-.006-.002-.01-.004-.006-.002-.009-.003-.007-.003-.01-.002-.007-.002-.01-.003-.008-.001-.014-.003-.004-.001-.018-.003-.009-.001-.011-.002-.01-.001-.01-.001-.01-.001h-.012l-.01-.002h-.023l-.01-.001h-.077l-.007.001h-.017l-.008.001-.017.001-.008.001-.019.002h-.007l-.02.002h-.005c-.918.098-2.921.98-5.295 2.58ZM23.072 20.834l-2.607-1.404-3.85 6.293-1.167 3.282-.622 1.75-.625 1.759-.537 1.512.965.52.966-1.282 1.125-1.49 1.075-1.423 2.142-2.839 3.135-6.678Z"/></g></g><defs><clipPath id="a"><path fill="#fff" d="M0 0h192v48H0z"/></clipPath><clipPath id="c"><path fill="#fff" d="M0 0h40.04v50.191H0z" transform="rotate(28.304 27.186 25.2)"/></clipPath><linearGradient id="b" x1="87.391" x2="213.961" y1="-6.309" y2="52.906" gradientUnits="userSpaceOnUse"><stop offset=".071" stop-color="#2D4DDE"/><stop offset="1" stop-color="#9F53DA"/></linearGradient></defs></svg>