<svg width="96" height="18" viewBox="0 0 96 18" fill="none" xmlns="http://www.w3.org/2000/svg">
<path d="M4.15599 18C2.87962 18 1.86786 17.6189 1.12072 16.8568C0.373572 16.0784 0 15.0649 0 13.8162C0 12.9081 0.202352 12.1297 0.607055 11.4811C1.02732 10.8324 1.6266 10.3378 2.40487 9.9973C3.19871 9.64054 4.14821 9.46216 5.25336 9.46216H7.77497V8.61081C7.77497 8.10811 7.60375 7.71892 7.26131 7.44324C6.93443 7.15135 6.45969 7.00541 5.83707 7.00541C5.24558 7.00541 4.77083 7.12703 4.41282 7.37027C4.07038 7.61351 3.88359 7.97027 3.85246 8.44054H0.537011C0.583707 7.12703 1.0818 6.08108 2.0313 5.3027C2.9808 4.52433 4.26495 4.13514 5.88376 4.13514C7.5804 4.13514 8.90347 4.54054 9.85296 5.35135C10.8025 6.16216 11.2772 7.2973 11.2772 8.75676V17.7568H7.89171V15.1054H7.33135L7.96176 14.7162C7.96176 15.3811 7.8061 15.9649 7.49479 16.4676C7.18348 16.9541 6.73986 17.3351 6.16394 17.6108C5.60358 17.8703 4.93427 18 4.15599 18ZM5.39345 15.0811C6.12503 15.0811 6.70095 14.8946 7.12122 14.5216C7.55705 14.1324 7.77497 13.6297 7.77497 13.0135V11.6514H5.3234C4.70078 11.6514 4.21825 11.8135 3.87581 12.1378C3.54893 12.4459 3.3855 12.8514 3.3855 13.3541C3.3855 13.8568 3.55672 14.2703 3.89916 14.5946C4.25717 14.9189 4.75526 15.0811 5.39345 15.0811Z" fill="url(#paint0_linear_2483_4)"/>
<path d="M19.8135 18C18.0858 18 16.7316 17.5135 15.751 16.5405C14.7859 15.5676 14.3034 14.2378 14.3034 12.5514V4.37838H17.8056V12.527C17.8056 13.273 17.9768 13.8487 18.3193 14.2541C18.6617 14.6432 19.1598 14.8378 19.8135 14.8378C20.4517 14.8378 20.942 14.6432 21.2845 14.2541C21.6425 13.8487 21.8215 13.273 21.8215 12.527V4.37838H25.3237V12.5514C25.3237 14.2541 24.8334 15.5919 23.8528 16.5649C22.8722 17.5216 21.5258 18 19.8135 18Z" fill="url(#paint1_linear_2483_4)"/>
<path d="M35.0975 17.7568C33.79 17.7568 32.7627 17.3676 32.0156 16.5892C31.2684 15.8108 30.8948 14.7405 30.8948 13.3784V7.66216H27.4393V4.37838H30.8948V0.608108H34.3971V4.37838H39.417V7.66216H34.3971V13.2568C34.3971 13.6135 34.4827 13.9054 34.6539 14.1324C34.8407 14.3595 35.1053 14.473 35.4478 14.473H39.3002V17.7568H35.0975Z" fill="url(#paint2_linear_2483_4)"/>
<path d="M47.8132 18C46.6769 18 45.6885 17.7811 44.848 17.3432C44.0075 16.8892 43.3537 16.2649 42.8867 15.4703C42.4353 14.6595 42.2096 13.7189 42.2096 12.6487V9.48649C42.2096 8.41622 42.4353 7.48378 42.8867 6.68919C43.3537 5.87838 44.0075 5.25406 44.848 4.81622C45.6885 4.36216 46.6769 4.13514 47.8132 4.13514C48.9651 4.13514 49.9535 4.36216 50.7784 4.81622C51.619 5.25406 52.2649 5.87838 52.7163 6.68919C53.1833 7.48378 53.4168 8.41622 53.4168 9.48649V12.6487C53.4168 13.7189 53.1833 14.6595 52.7163 15.4703C52.2649 16.2649 51.619 16.8892 50.7784 17.3432C49.9535 17.7811 48.9651 18 47.8132 18ZM47.8132 14.8378C48.4981 14.8378 49.0195 14.6514 49.3776 14.2784C49.7356 13.8892 49.9146 13.3459 49.9146 12.6487V9.48649C49.9146 8.77297 49.7356 8.22973 49.3776 7.85676C49.0195 7.48379 48.4981 7.2973 47.8132 7.2973C47.1439 7.2973 46.6225 7.48379 46.2489 7.85676C45.8909 8.22973 45.7119 8.77297 45.7119 9.48649V12.6487C45.7119 13.3459 45.8909 13.8892 46.2489 14.2784C46.6225 14.6514 47.1439 14.8378 47.8132 14.8378Z" fill="url(#paint3_linear_2483_4)"/>
<path d="M56.8165 17.7568V4.37838H60.202V7.17568H61.2293L60.0853 8.02703C60.0853 6.82703 60.4199 5.87838 61.0893 5.18108C61.7586 4.48378 62.6614 4.13514 63.7977 4.13514C65.0896 4.13514 66.1013 4.58919 66.8329 5.4973C67.5645 6.40541 67.9303 7.65405 67.9303 9.24324V10.5811H64.4281V9.48649C64.4281 8.78919 64.249 8.25406 63.891 7.88108C63.533 7.49189 63.0272 7.2973 62.3734 7.2973C61.7197 7.2973 61.2138 7.51622 60.8558 7.95406C60.4978 8.37568 60.3188 8.98378 60.3188 9.77838V17.7568H56.8165Z" fill="black"/>
<path d="M75.8362 18C74.7 18 73.7038 17.7811 72.8477 17.3432C72.0071 16.8892 71.3534 16.2649 70.8864 15.4703C70.435 14.6595 70.2093 13.7189 70.2093 12.6487V9.48649C70.2093 8.41622 70.435 7.48378 70.8864 6.68919C71.3534 5.87838 72.0071 5.25406 72.8477 4.81622C73.7038 4.36216 74.7 4.13514 75.8362 4.13514C76.9725 4.13514 77.9531 4.36216 78.7781 4.81622C79.6186 5.25406 80.2646 5.87838 80.716 6.68919C81.183 7.48378 81.4165 8.41622 81.4165 9.48649V11.9676H73.5481V12.6487C73.5481 13.4919 73.7349 14.1081 74.1085 14.4973C74.4976 14.8865 75.0735 15.0811 75.8362 15.0811C76.3343 15.0811 76.7702 15 77.1437 14.8378C77.5173 14.6757 77.7352 14.4324 77.7975 14.1081H81.2297C80.9806 15.2757 80.3658 16.2162 79.3852 16.9297C78.4045 17.6432 77.2216 18 75.8362 18ZM78.0777 10.0459V9.43784C78.0777 8.61081 77.8909 7.97027 77.5173 7.51622C77.1593 7.06216 76.5989 6.83514 75.8362 6.83514C75.0735 6.83514 74.4976 7.07027 74.1085 7.54054C73.7349 8.01081 73.5481 8.65946 73.5481 9.48649V9.8027L78.3111 9.75405L78.0777 10.0459Z" fill="black"/>
<path d="M92.0308 17.7568C91.128 17.7568 90.3342 17.5622 89.6493 17.173C88.9644 16.7676 88.4274 16.2081 88.0382 15.4946C87.6647 14.7811 87.4779 13.9541 87.4779 13.0135V3.28378H83.3919V0H90.9801V12.8919C90.9801 13.3622 91.1046 13.7432 91.3537 14.0351C91.6183 14.327 91.9608 14.473 92.381 14.473H96V17.7568H92.0308Z" fill="black"/>
<defs>
<linearGradient id="paint0_linear_2483_4" x1="0" y1="9" x2="96" y2="9" gradientUnits="userSpaceOnUse">
<stop stop-color="#00B3FF"/>
<stop offset="1" stop-color="#44EA9A"/>
</linearGradient>
<linearGradient id="paint1_linear_2483_4" x1="0" y1="9" x2="96" y2="9" gradientUnits="userSpaceOnUse">
<stop stop-color="#00B3FF"/>
<stop offset="1" stop-color="#44EA9A"/>
</linearGradient>
<linearGradient id="paint2_linear_2483_4" x1="0" y1="9" x2="96" y2="9" gradientUnits="userSpaceOnUse">
<stop stop-color="#00B3FF"/>
<stop offset="1" stop-color="#44EA9A"/>
</linearGradient>
<linearGradient id="paint3_linear_2483_4" x1="0" y1="9" x2="96" y2="9" gradientUnits="userSpaceOnUse">
<stop stop-color="#00B3FF"/>
<stop offset="1" stop-color="#44EA9A"/>
</linearGradient>
</defs>
</svg>
