<svg width="96" height="17" viewBox="0 0 96 17" fill="none" xmlns="http://www.w3.org/2000/svg">
<path d="M4.15599 17C2.87962 17 1.86786 16.6401 1.12072 15.9203C0.373572 15.1851 0 14.2279 0 13.0486C0 12.191 0.202352 11.4559 0.607055 10.8432C1.02732 10.2306 1.6266 9.76352 2.40487 9.44189C3.19871 9.10496 4.14821 8.93649 5.25336 8.93649H7.77497V8.13243C7.77497 7.65766 7.60375 7.29009 7.26131 7.02973C6.93443 6.75406 6.45969 6.61622 5.83707 6.61622C5.24558 6.61622 4.77083 6.73108 4.41282 6.96081C4.07038 7.19054 3.88359 7.52748 3.85246 7.97162H0.537011C0.583707 6.73108 1.0818 5.74324 2.0313 5.00811C2.9808 4.27297 4.26495 3.90541 5.88376 3.90541C7.5804 3.90541 8.90347 4.28829 9.85296 5.05405C10.8025 5.81982 11.2772 6.89189 11.2772 8.27027V16.7703H7.89171V14.2662H7.33135L7.96176 13.8987C7.96176 14.5266 7.8061 15.0779 7.49479 15.5527C7.18348 16.0122 6.73986 16.3721 6.16394 16.6324C5.60358 16.8775 4.93427 17 4.15599 17ZM5.39345 14.2432C6.12503 14.2432 6.70095 14.0671 7.12122 13.7149C7.55705 13.3473 7.77497 12.8725 7.77497 12.2905V11.0041H5.3234C4.70078 11.0041 4.21825 11.1572 3.87581 11.4635C3.54893 11.7545 3.3855 12.1374 3.3855 12.6122C3.3855 13.0869 3.55672 13.4775 3.89916 13.7838C4.25717 14.0901 4.75526 14.2432 5.39345 14.2432Z" fill="url(#paint0_linear_2483_3)"/>
<path d="M19.8135 17C18.0858 17 16.7316 16.5405 15.751 15.6216C14.7859 14.7027 14.3034 13.4468 14.3034 11.8541V4.13514H17.8056V11.8311C17.8056 12.5356 17.9768 13.0793 18.3193 13.4622C18.6617 13.8297 19.1598 14.0135 19.8135 14.0135C20.4517 14.0135 20.942 13.8297 21.2845 13.4622C21.6425 13.0793 21.8215 12.5356 21.8215 11.8311V4.13514H25.3237V11.8541C25.3237 13.4622 24.8334 14.7257 23.8528 15.6446C22.8722 16.5482 21.5258 17 19.8135 17Z" fill="url(#paint1_linear_2483_3)"/>
<path d="M35.0975 16.7703C33.79 16.7703 32.7627 16.4027 32.0156 15.6676C31.2684 14.9324 30.8948 13.9216 30.8948 12.6351V7.23649H27.4393V4.13514H30.8948V0.574324H34.3971V4.13514H39.417V7.23649H34.3971V12.5203C34.3971 12.8572 34.4827 13.1329 34.6539 13.3473C34.8407 13.5617 35.1053 13.6689 35.4478 13.6689H39.3002V16.7703H35.0975Z" fill="url(#paint2_linear_2483_3)"/>
<path d="M47.8132 17C46.6769 17 45.6885 16.7932 44.848 16.3797C44.0075 15.9509 43.3537 15.3613 42.8867 14.6108C42.4353 13.845 42.2096 12.9568 42.2096 11.9459V8.95946C42.2096 7.94865 42.4353 7.06802 42.8867 6.31757C43.3537 5.5518 44.0075 4.96216 44.848 4.54865C45.6885 4.11982 46.6769 3.90541 47.8132 3.90541C48.9651 3.90541 49.9535 4.11982 50.7784 4.54865C51.619 4.96216 52.2649 5.5518 52.7163 6.31757C53.1833 7.06802 53.4168 7.94865 53.4168 8.95946V11.9459C53.4168 12.9568 53.1833 13.845 52.7163 14.6108C52.2649 15.3613 51.619 15.9509 50.7784 16.3797C49.9535 16.7932 48.9651 17 47.8132 17ZM47.8132 14.0135C48.4981 14.0135 49.0195 13.8374 49.3776 13.4851C49.7356 13.1176 49.9146 12.6045 49.9146 11.9459V8.95946C49.9146 8.28559 49.7356 7.77252 49.3776 7.42027C49.0195 7.06802 48.4981 6.89189 47.8132 6.89189C47.1439 6.89189 46.6225 7.06802 46.2489 7.42027C45.8909 7.77252 45.7119 8.28559 45.7119 8.95946V11.9459C45.7119 12.6045 45.8909 13.1176 46.2489 13.4851C46.6225 13.8374 47.1439 14.0135 47.8132 14.0135Z" fill="url(#paint3_linear_2483_3)"/>
<path d="M56.8165 16.7703V4.13514H60.202V6.77703H61.2293L60.0853 7.58108C60.0853 6.44775 60.4199 5.5518 61.0893 4.89324C61.7586 4.23469 62.6614 3.90541 63.7977 3.90541C65.0896 3.90541 66.1013 4.33424 66.8329 5.19189C67.5645 6.04955 67.9303 7.22883 67.9303 8.72973V9.99324H64.4281V8.95946C64.4281 8.3009 64.249 7.7955 63.891 7.44324C63.533 7.07568 63.0272 6.89189 62.3734 6.89189C61.7197 6.89189 61.2138 7.09865 60.8558 7.51216C60.4978 7.91036 60.3188 8.48469 60.3188 9.23514V16.7703H56.8165Z" fill="white"/>
<path d="M75.8362 17C74.7 17 73.7038 16.7932 72.8477 16.3797C72.0071 15.9509 71.3534 15.3613 70.8864 14.6108C70.435 13.845 70.2093 12.9568 70.2093 11.9459V8.95946C70.2093 7.94865 70.435 7.06802 70.8864 6.31757C71.3534 5.5518 72.0071 4.96216 72.8477 4.54865C73.7038 4.11982 74.7 3.90541 75.8362 3.90541C76.9725 3.90541 77.9531 4.11982 78.7781 4.54865C79.6186 4.96216 80.2646 5.5518 80.716 6.31757C81.183 7.06802 81.4165 7.94865 81.4165 8.95946V11.3027H73.5481V11.9459C73.5481 12.7423 73.7349 13.3243 74.1085 13.6919C74.4976 14.0595 75.0735 14.2432 75.8362 14.2432C76.3343 14.2432 76.7702 14.1667 77.1437 14.0135C77.5173 13.8604 77.7352 13.6306 77.7975 13.3243H81.2297C80.9806 14.427 80.3658 15.3153 79.3852 15.9892C78.4045 16.6631 77.2216 17 75.8362 17ZM78.0777 9.48784V8.91352C78.0777 8.13243 77.8909 7.52748 77.5173 7.09865C77.1593 6.66982 76.5989 6.45541 75.8362 6.45541C75.0735 6.45541 74.4976 6.67748 74.1085 7.12162C73.7349 7.56577 73.5481 8.17838 73.5481 8.95946V9.25811L78.3111 9.21216L78.0777 9.48784Z" fill="white"/>
<path d="M92.0308 16.7703C91.128 16.7703 90.3342 16.5865 89.6493 16.2189C88.9644 15.836 88.4274 15.3077 88.0382 14.6338C87.6647 13.9599 87.4779 13.1788 87.4779 12.2905V3.10135H83.3919V0H90.9801V12.1757C90.9801 12.6198 91.1046 12.9797 91.3537 13.2554C91.6183 13.5311 91.9608 13.6689 92.381 13.6689H96V16.7703H92.0308Z" fill="white"/>
<defs>
<linearGradient id="paint0_linear_2483_3" x1="0" y1="8.5" x2="96" y2="8.5" gradientUnits="userSpaceOnUse">
<stop stop-color="#00B3FF"/>
<stop offset="1" stop-color="#44EA9A"/>
</linearGradient>
<linearGradient id="paint1_linear_2483_3" x1="0" y1="8.5" x2="96" y2="8.5" gradientUnits="userSpaceOnUse">
<stop stop-color="#00B3FF"/>
<stop offset="1" stop-color="#44EA9A"/>
</linearGradient>
<linearGradient id="paint2_linear_2483_3" x1="0" y1="8.5" x2="96" y2="8.5" gradientUnits="userSpaceOnUse">
<stop stop-color="#00B3FF"/>
<stop offset="1" stop-color="#44EA9A"/>
</linearGradient>
<linearGradient id="paint3_linear_2483_3" x1="0" y1="8.5" x2="96" y2="8.5" gradientUnits="userSpaceOnUse">
<stop stop-color="#00B3FF"/>
<stop offset="1" stop-color="#44EA9A"/>
</linearGradient>
</defs>
</svg>
