<svg width="259" height="61" viewBox="0 0 259 61" fill="none" xmlns="http://www.w3.org/2000/svg">
<path d="M251.44 43C249.928 43 248.598 42.692 247.45 42.076C246.33 41.46 245.448 40.592 244.804 39.472C244.16 38.324 243.838 37.008 243.838 35.524V17.086H236.236V12.34H249.088V35.398C249.088 36.266 249.326 36.966 249.802 37.498C250.306 38.002 250.978 38.254 251.818 38.254H258.58V43H251.44Z" fill="black"/>
<path d="M222.56 43.42C220.6 43.42 218.892 43.042 217.436 42.286C215.98 41.53 214.846 40.466 214.034 39.094C213.25 37.694 212.858 36.056 212.858 34.18V28.72C212.858 26.844 213.25 25.22 214.034 23.848C214.846 22.448 215.98 21.37 217.436 20.614C218.892 19.858 220.6 19.48 222.56 19.48C224.492 19.48 226.172 19.858 227.6 20.614C229.056 21.37 230.176 22.434 230.96 23.806C231.772 25.15 232.178 26.732 232.178 28.552V32.752H217.898V34.348C217.898 35.916 218.304 37.106 219.116 37.918C219.928 38.702 221.076 39.094 222.56 39.094C223.652 39.094 224.576 38.912 225.332 38.548C226.116 38.156 226.578 37.596 226.718 36.868H231.926C231.562 38.856 230.526 40.452 228.818 41.656C227.11 42.832 225.024 43.42 222.56 43.42ZM227.138 29.77V28.51C227.138 26.914 226.746 25.682 225.962 24.814C225.206 23.946 224.072 23.512 222.56 23.512C221.048 23.512 219.886 23.96 219.074 24.856C218.29 25.724 217.898 26.956 217.898 28.552V29.35L227.516 29.308L227.138 29.77Z" fill="black"/>
<path d="M188.808 43V19.9H193.932V24.562H195.36L193.806 25.822C193.806 23.862 194.38 22.322 195.528 21.202C196.704 20.054 198.3 19.48 200.316 19.48C202.668 19.48 204.502 20.236 205.818 21.748C207.134 23.26 207.792 25.374 207.792 28.09V30.274H202.542V28.342C202.542 26.914 202.178 25.836 201.45 25.108C200.722 24.38 199.686 24.016 198.342 24.016C196.97 24.016 195.906 24.436 195.15 25.276C194.422 26.116 194.058 27.306 194.058 28.846V43H188.808Z" fill="black"/>
<path d="M172.151 43.378C170.191 43.378 168.483 43 167.027 42.244C165.571 41.488 164.451 40.424 163.667 39.052C162.883 37.652 162.491 36.014 162.491 34.138V28.762C162.491 26.858 162.883 25.22 163.667 23.848C164.451 22.476 165.571 21.412 167.027 20.656C168.483 19.9 170.191 19.522 172.151 19.522C174.139 19.522 175.847 19.9 177.275 20.656C178.731 21.412 179.851 22.476 180.635 23.848C181.419 25.22 181.811 26.858 181.811 28.762V34.138C181.811 36.014 181.419 37.652 180.635 39.052C179.851 40.424 178.731 41.488 177.275 42.244C175.847 43 174.139 43.378 172.151 43.378ZM172.151 38.8C173.551 38.8 174.629 38.422 175.385 37.666C176.169 36.882 176.561 35.762 176.561 34.306V28.594C176.561 27.11 176.169 25.99 175.385 25.234C174.629 24.478 173.551 24.1 172.151 24.1C170.779 24.1 169.701 24.478 168.917 25.234C168.133 25.99 167.741 27.11 167.741 28.594V34.306C167.741 35.762 168.133 36.882 168.917 37.666C169.701 38.422 170.779 38.8 172.151 38.8Z" fill="black"/>
<path d="M149.277 43C147.121 43 145.399 42.384 144.111 41.152C142.851 39.892 142.221 38.198 142.221 36.07V24.646H135.837V19.9H142.221V13.39H147.513V19.9H156.711V24.646H147.513V35.944C147.513 36.616 147.695 37.176 148.059 37.624C148.451 38.044 148.983 38.254 149.655 38.254H156.501V43H149.277Z" fill="black"/>
<path d="M121.784 43.42C118.844 43.42 116.534 42.608 114.854 40.984C113.174 39.332 112.334 37.092 112.334 34.264V19.9H117.584V34.222C117.584 35.678 117.948 36.812 118.676 37.624C119.404 38.436 120.44 38.842 121.784 38.842C123.1 38.842 124.122 38.436 124.85 37.624C125.606 36.812 125.984 35.678 125.984 34.222V19.9H131.234V34.264C131.234 37.092 130.38 39.332 128.672 40.984C126.964 42.608 124.668 43.42 121.784 43.42Z" fill="black"/>
<path d="M94.038 43.42C91.686 43.42 89.824 42.762 88.452 41.446C87.108 40.102 86.436 38.352 86.436 36.196C86.436 34.684 86.786 33.382 87.486 32.29C88.186 31.198 89.18 30.358 90.468 29.77C91.784 29.154 93.324 28.846 95.088 28.846H100.716V27.208C100.716 26.088 100.366 25.234 99.666 24.646C98.994 24.03 97.986 23.722 96.642 23.722C95.41 23.722 94.416 23.96 93.66 24.436C92.932 24.912 92.54 25.584 92.484 26.452H87.444C87.556 24.352 88.424 22.672 90.048 21.412C91.7 20.124 93.912 19.48 96.684 19.48C99.624 19.48 101.906 20.166 103.53 21.538C105.154 22.91 105.966 24.842 105.966 27.334V43H100.842V38.59H100.002L100.926 37.834C100.926 38.982 100.646 39.976 100.086 40.816C99.526 41.628 98.728 42.272 97.692 42.748C96.656 43.196 95.438 43.42 94.038 43.42ZM95.718 39.136C97.258 39.136 98.476 38.758 99.372 38.002C100.268 37.246 100.716 36.238 100.716 34.978V32.248H95.34C94.192 32.248 93.282 32.57 92.61 33.214C91.938 33.83 91.602 34.656 91.602 35.692C91.602 36.728 91.952 37.568 92.652 38.212C93.38 38.828 94.402 39.136 95.718 39.136Z" fill="black"/>
<path d="M72 30.5C72 47.3447 58.3447 61 41.5 61C24.6553 61 11 47.3447 11 30.5C11 13.6553 24.6553 0 41.5 0C58.3447 0 72 13.6553 72 30.5Z" fill="black"/>
<path fill-rule="evenodd" clip-rule="evenodd" d="M5.3289 52.5834C2.93811 52.5834 1 50.6453 1 48.2545C1 45.8637 2.93811 43.9256 5.3289 43.9256C7.44225 43.9256 9.2019 45.44 9.58182 47.4428H29.641C30.0209 45.44 31.7806 43.9256 33.8939 43.9256C36.2847 43.9256 38.2228 45.8637 38.2228 48.2545C38.2228 50.6453 36.2847 52.5834 33.8939 52.5834C31.7806 52.5834 30.0209 51.069 29.641 49.0662H9.58182C9.2019 51.069 7.44225 52.5834 5.3289 52.5834Z" fill="black"/>
<path fill-rule="evenodd" clip-rule="evenodd" d="M5.3289 53.5834C2.38583 53.5834 0 51.1976 0 48.2545C0 45.3114 2.38583 42.9256 5.3289 42.9256C7.63652 42.9256 9.60005 44.3916 10.3416 46.4428H28.8812C29.6228 44.3916 31.5863 42.9256 33.8939 42.9256C36.837 42.9256 39.2228 45.3114 39.2228 48.2545C39.2228 51.1976 36.837 53.5834 33.8939 53.5834C31.5863 53.5834 29.6228 52.1174 28.8812 50.0662H10.3416C9.60005 52.1174 7.63652 53.5834 5.3289 53.5834ZM9.58182 49.0662H29.641C30.0209 51.069 31.7806 52.5834 33.8939 52.5834C36.2847 52.5834 38.2228 50.6453 38.2228 48.2545C38.2228 45.8637 36.2847 43.9256 33.8939 43.9256C31.7806 43.9256 30.0209 45.44 29.641 47.4428H9.58182C9.2019 45.44 7.44225 43.9256 5.3289 43.9256C2.93811 43.9256 1 45.8637 1 48.2545C1 50.6453 2.93811 52.5834 5.3289 52.5834C7.44225 52.5834 9.2019 51.069 9.58182 49.0662Z" fill="black"/>
<path fill-rule="evenodd" clip-rule="evenodd" d="M27.3289 36.6578C24.9381 36.6578 23 34.7197 23 32.3289C23 29.9381 24.9381 28 27.3289 28C29.4423 28 31.2019 29.5144 31.5818 31.5172H51.641C52.0209 29.5144 53.7806 28 55.8939 28C58.2847 28 60.2228 29.9381 60.2228 32.3289C60.2228 34.7197 58.2847 36.6578 55.8939 36.6578C53.7806 36.6578 52.0209 35.1434 51.641 33.1406H31.5818C31.2019 35.1434 29.4423 36.6578 27.3289 36.6578Z" fill="black"/>
<path fill-rule="evenodd" clip-rule="evenodd" d="M27.3289 37.6578C24.3858 37.6578 22 35.272 22 32.3289C22 29.3858 24.3858 27 27.3289 27C29.6365 27 31.6 28.466 32.3416 30.5172H50.8812C51.6228 28.466 53.5863 27 55.8939 27C58.837 27 61.2228 29.3858 61.2228 32.3289C61.2228 35.272 58.837 37.6578 55.8939 37.6578C53.5863 37.6578 51.6228 36.1918 50.8812 34.1406H32.3416C31.6 36.1918 29.6365 37.6578 27.3289 37.6578ZM31.5818 33.1406H51.641C52.0209 35.1434 53.7806 36.6578 55.8939 36.6578C58.2847 36.6578 60.2228 34.7197 60.2228 32.3289C60.2228 29.9381 58.2847 28 55.8939 28C53.7806 28 52.0209 29.5144 51.641 31.5172H31.5818C31.2019 29.5144 29.4423 28 27.3289 28C24.9381 28 23 29.9381 23 32.3289C23 34.7197 24.9381 36.6578 27.3289 36.6578C29.4423 36.6578 31.2019 35.1434 31.5818 33.1406Z" fill="black"/>
<path fill-rule="evenodd" clip-rule="evenodd" d="M49.9756 20.6578C47.5848 20.6578 45.6467 18.7197 45.6467 16.3289C45.6467 13.9381 47.5848 12 49.9756 12C52.089 12 53.8486 13.5144 54.2286 15.5172H74.2877C74.6676 13.5144 76.4273 12 78.5406 12C80.9314 12 82.8695 13.9381 82.8695 16.3289C82.8695 18.7197 80.9314 20.6578 78.5406 20.6578C76.4273 20.6578 74.6676 19.1434 74.2877 17.1406H54.2286C53.8486 19.1434 52.089 20.6578 49.9756 20.6578Z" fill="black"/>
<path fill-rule="evenodd" clip-rule="evenodd" d="M49.9756 21.6578C47.0326 21.6578 44.6467 19.272 44.6467 16.3289C44.6467 13.3858 47.0326 11 49.9756 11C52.2832 11 54.2468 12.466 54.9883 14.5172H73.5279C74.2695 12.466 76.233 11 78.5406 11C81.4837 11 83.8695 13.3858 83.8695 16.3289C83.8695 19.272 81.4837 21.6578 78.5406 21.6578C76.233 21.6578 74.2695 20.1918 73.5279 18.1406H54.9884C54.2468 20.1918 52.2832 21.6578 49.9756 21.6578ZM54.2286 17.1406H74.2877C74.6676 19.1434 76.4273 20.6578 78.5406 20.6578C80.9314 20.6578 82.8695 18.7197 82.8695 16.3289C82.8695 13.9381 80.9314 12 78.5406 12C76.4273 12 74.6676 13.5144 74.2877 15.5172H54.2286C53.8486 13.5144 52.089 12 49.9756 12C47.5848 12 45.6467 13.9381 45.6467 16.3289C45.6467 18.7197 47.5848 20.6578 49.9756 20.6578C52.089 20.6578 53.8486 19.1434 54.2286 17.1406Z" fill="black"/>
</svg>
