<svg width="225" height="77" viewBox="0 0 225 77" fill="none" xmlns="http://www.w3.org/2000/svg">
<path d="M211.917 62C207.967 62 204.886 60.9203 202.674 58.761C200.462 56.6017 199.356 53.5997 199.356 49.755V26.292H187.348V18.55H199.356V6.30499H207.888V18.55H224.873V26.292H207.888V49.755C207.888 52.757 209.336 54.258 212.233 54.258H224.083V62H211.917Z" fill="black"/>
<path d="M159.728 62.79C154.514 62.79 150.354 61.289 147.246 58.287C144.139 55.2323 142.585 51.098 142.585 45.884V18.55H151.117V45.884C151.117 48.886 151.881 51.2297 153.408 52.915C154.936 54.5477 157.042 55.364 159.728 55.364C162.467 55.364 164.6 54.5477 166.127 52.915C167.707 51.2297 168.497 48.886 168.497 45.884V18.55H177.029V45.884C177.029 51.098 175.449 55.2323 172.289 58.287C169.182 61.289 164.995 62.79 159.728 62.79Z" fill="black"/>
<path d="M112.438 62.711C108.857 62.711 105.75 62.0263 103.116 60.657C100.483 59.2877 98.4553 57.339 97.0333 54.811C95.6113 52.283 94.9003 49.3073 94.9003 45.884V34.666C94.9003 31.19 95.6113 28.2143 97.0333 25.739C98.4553 23.211 100.483 21.2623 103.116 19.893C105.75 18.5237 108.857 17.839 112.438 17.839C116.02 17.839 119.127 18.5237 121.76 19.893C124.394 21.2623 126.421 23.211 127.843 25.739C129.265 28.2143 129.976 31.19 129.976 34.666V45.884C129.976 49.3073 129.265 52.283 127.843 54.811C126.421 57.339 124.394 59.2877 121.76 60.657C119.127 62.0263 116.02 62.711 112.438 62.711ZM112.438 55.206C115.335 55.206 117.573 54.416 119.153 52.836C120.733 51.2033 121.523 48.886 121.523 45.884V34.666C121.523 31.6113 120.733 29.294 119.153 27.714C117.573 26.134 115.335 25.344 112.438 25.344C109.594 25.344 107.356 26.134 105.723 27.714C104.143 29.294 103.353 31.6113 103.353 34.666V45.884C103.353 48.886 104.143 51.2033 105.723 52.836C107.356 54.416 109.594 55.206 112.438 55.206Z" fill="black"/>
<path d="M63.5681 62.711C60.4608 62.711 57.7221 62.2107 55.3521 61.21C53.0348 60.2093 51.1915 58.84 49.8221 57.102C48.5055 55.3113 47.7418 53.2047 47.5311 50.782H56.0631C56.2738 52.204 57.0375 53.3627 58.3541 54.258C59.6708 55.1007 61.4088 55.522 63.5681 55.522H66.9651C69.5458 55.522 71.4945 54.9953 72.8111 53.942C74.1278 52.8887 74.7861 51.493 74.7861 49.755C74.7861 48.0697 74.1805 46.753 72.9691 45.805C71.8105 44.8043 70.0725 44.146 67.7551 43.83L62.1461 42.961C57.5115 42.2237 54.0881 40.907 51.8761 39.011C49.7168 37.0623 48.6371 34.192 48.6371 30.4C48.6371 26.3973 49.9275 23.3163 52.5081 21.157C55.1415 18.945 59.0125 17.839 64.1211 17.839H67.1231C71.6525 17.839 75.2601 18.8923 77.9461 20.999C80.6848 23.053 82.2385 25.818 82.6071 29.294H74.0751C73.8645 28.03 73.1535 27.003 71.9421 26.213C70.7835 25.423 69.1771 25.028 67.1231 25.028H64.1211C61.6458 25.028 59.8288 25.502 58.6701 26.45C57.5641 27.3453 57.0111 28.6883 57.0111 30.479C57.0111 32.059 57.5115 33.244 58.5121 34.034C59.5128 34.824 61.0665 35.377 63.1731 35.693L68.9401 36.641C73.8381 37.3257 77.4195 38.695 79.6841 40.749C82.0015 42.7503 83.1601 45.6733 83.1601 49.518C83.1601 53.6787 81.7908 56.9177 79.0521 59.235C76.3661 61.5523 72.3371 62.711 66.9651 62.711H63.5681Z" fill="#00A3FF"/>
<path d="M0.635986 76.22V68.32H11.538C14.4347 68.32 16.6993 67.53 18.332 65.95C19.9647 64.37 20.781 62.1317 20.781 59.235V26.371H3.00599V18.55H29.313V59.314C29.313 64.528 27.733 68.636 24.573 71.638C21.413 74.6927 17.147 76.22 11.775 76.22H0.635986ZM24.652 11.045C22.8087 11.045 21.334 10.571 20.228 9.62299C19.122 8.62232 18.569 7.30565 18.569 5.67299C18.569 3.98765 19.122 2.67099 20.228 1.72299C21.334 0.722321 22.8087 0.221985 24.652 0.221985C26.4953 0.221985 27.97 0.722321 29.076 1.72299C30.182 2.67099 30.735 3.98765 30.735 5.67299C30.735 7.30565 30.182 8.62232 29.076 9.62299C27.97 10.571 26.4953 11.045 24.652 11.045Z" fill="#00A3FF"/>
</svg>
